<?xml version="1.0" encoding="UTF-8" standalone="no"?><!DOCTYPE svg PUBLIC "-//W3C//DTD SVG 1.1//EN" "http://www.w3.org/Graphics/SVG/1.1/DTD/svg11.dtd"><svg width="100%" height="100%" viewBox="0 0 2395 400" version="1.1" xmlns="http://www.w3.org/2000/svg" xmlns:xlink="http://www.w3.org/1999/xlink" xml:space="preserve" xmlns:serif="http://www.serif.com/" style="fill-rule:evenodd;clip-rule:evenodd;stroke-linejoin:round;stroke-miterlimit:2;"><rect id="Inline---Dark---Regular-Big" serif:id="Inline - Dark - Regular Big" x="0" y="0" width="2394.58" height="400" style="fill:none;"/><clipPath id="_clip1"><rect x="0" y="0" width="2394.58" height="400"/></clipPath><g clip-path="url(#_clip1)"><path d="M891.328,126.614l19.241,0l15.438,79.874c1.342,8.055 2.759,15.96 4.251,23.717c1.492,7.756 2.909,15.661 4.251,23.716l0.895,-0c1.641,-8.055 3.356,-15.997 5.146,-23.828c1.79,-7.831 3.505,-15.699 5.146,-23.605l20.36,-79.874l17.004,0l20.36,79.874c1.79,7.757 3.58,15.587 5.37,23.493c1.79,7.905 3.58,15.885 5.37,23.94l0.895,-0c1.342,-8.055 2.685,-15.997 4.027,-23.828c1.342,-7.831 2.759,-15.699 4.251,-23.605l15.438,-79.874l17.899,0l-30.428,146.772l-22.374,-0l-22.15,-88.376c-1.343,-5.668 -2.573,-11.225 -3.692,-16.669c-1.119,-5.444 -2.275,-11 -3.468,-16.668l-0.895,-0c-1.193,5.668 -2.424,11.224 -3.692,16.668c-1.267,5.444 -2.498,11.001 -3.691,16.669l-21.703,88.376l-22.15,-0l-31.099,-146.772Z" style="fill:#303956;fill-rule:nonzero;"/><path d="M1113.28,126.614l84.572,0l0,15.662l-66.002,-0l-0,46.09l55.71,-0l0,15.885l-55.71,0l-0,53.25l68.24,-0l-0,15.885l-86.81,-0l-0,-146.772Z" style="fill:#303956;fill-rule:nonzero;"/><path d="M1262.29,126.614l43.629,0c7.458,0 14.282,0.671 20.472,2.014c6.19,1.342 11.485,3.43 15.885,6.264c4.4,2.834 7.831,6.526 10.292,11.075c2.461,4.55 3.692,10.031 3.692,16.445c-0,7.309 -1.827,13.909 -5.482,19.801c-3.654,5.892 -8.987,9.956 -15.997,12.194l-0,0.895c8.949,1.64 16.184,5.369 21.702,11.186c5.519,5.818 8.279,13.798 8.279,23.94c-0,7.16 -1.343,13.425 -4.028,18.794c-2.684,5.37 -6.488,9.845 -11.41,13.425c-4.922,3.579 -10.814,6.264 -17.675,8.054c-6.862,1.79 -14.394,2.685 -22.598,2.685l-46.761,-0l-0,-146.772Zm40.273,62.423c12.529,-0 21.553,-2.163 27.072,-6.489c5.519,-4.325 8.278,-10.217 8.278,-17.675c0,-8.502 -2.871,-14.543 -8.614,-18.123c-5.742,-3.579 -14.356,-5.369 -25.841,-5.369l-22.598,-0l0,47.656l21.703,-0Zm3.803,69.582c12.679,0 22.523,-2.349 29.534,-7.047c7.01,-4.699 10.515,-11.97 10.515,-21.815c0,-9.099 -3.43,-15.773 -10.292,-20.024c-6.861,-4.251 -16.78,-6.377 -29.757,-6.377l-25.506,0l0,55.263l25.506,0Z" style="fill:#303956;fill-rule:nonzero;"/><path d="M1541.51,276.071c-10.292,-0 -19.838,-1.939 -28.639,-5.817c-8.8,-3.878 -16.407,-9.174 -22.821,-15.886l11.187,-12.977c5.22,5.519 11.373,9.957 18.458,13.313c7.085,3.356 14.431,5.034 22.038,5.034c9.696,-0 17.228,-2.2 22.598,-6.6c5.37,-4.4 8.054,-10.18 8.054,-17.34c0,-3.729 -0.634,-6.899 -1.901,-9.509c-1.268,-2.61 -2.984,-4.847 -5.146,-6.712c-2.163,-1.864 -4.736,-3.542 -7.719,-5.034c-2.983,-1.492 -6.19,-3.058 -9.621,-4.699l-21.031,-9.173c-3.431,-1.491 -6.936,-3.281 -10.516,-5.369c-3.58,-2.089 -6.787,-4.624 -9.621,-7.608c-2.834,-2.983 -5.146,-6.525 -6.936,-10.627c-1.79,-4.102 -2.684,-8.838 -2.684,-14.207c-0,-5.519 1.155,-10.665 3.467,-15.438c2.312,-4.773 5.519,-8.913 9.621,-12.418c4.102,-3.505 8.95,-6.227 14.543,-8.166c5.594,-1.939 11.746,-2.909 18.458,-2.909c8.801,0 16.93,1.678 24.388,5.034c7.458,3.356 13.797,7.719 19.018,13.089l-10.069,12.082c-4.474,-4.326 -9.434,-7.719 -14.878,-10.18c-5.444,-2.461 -11.597,-3.692 -18.459,-3.692c-8.203,0 -14.803,1.902 -19.8,5.705c-4.997,3.804 -7.496,9.062 -7.496,15.774c0,3.58 0.709,6.6 2.126,9.061c1.417,2.461 3.319,4.624 5.705,6.489c2.387,1.864 4.997,3.505 7.831,4.922c2.834,1.417 5.743,2.722 8.726,3.915l20.808,8.95c4.176,1.79 8.129,3.841 11.858,6.153c3.729,2.312 6.935,4.996 9.62,8.054c2.685,3.058 4.811,6.638 6.377,10.74c1.566,4.101 2.349,8.837 2.349,14.207c0,5.817 -1.156,11.261 -3.468,16.333c-2.312,5.071 -5.631,9.509 -9.956,13.312c-4.326,3.804 -9.546,6.787 -15.662,8.95c-6.115,2.162 -13.051,3.244 -20.807,3.244Z" style="fill:#303956;fill-rule:nonzero;"/><path d="M1651.37,126.614l18.57,0l0,61.528l68.24,-0l0,-61.528l18.794,0l0,146.772l-18.794,-0l0,-69.135l-68.24,0l0,69.135l-18.57,-0l-0,-146.772Z" style="fill:#303956;fill-rule:nonzero;"/><path d="M1890.76,213.648l-6.936,-22.374c-2.684,-8.203 -5.22,-16.37 -7.607,-24.499c-2.386,-8.129 -4.773,-16.445 -7.159,-24.947l-0.895,0c-2.238,8.502 -4.55,16.818 -6.936,24.947c-2.387,8.129 -4.922,16.296 -7.607,24.499l-6.936,22.374l44.076,0Zm4.699,14.99l-53.474,0l-14.095,44.748l-19.018,-0l49.67,-146.772l21.031,0l49.67,146.772l-19.913,-0l-13.871,-44.748Z" style="fill:#303956;fill-rule:nonzero;"/><path d="M1981.15,126.614l41.839,0c8.204,0 15.699,0.746 22.486,2.237c6.787,1.492 12.566,3.916 17.34,7.272c4.773,3.356 8.502,7.793 11.186,13.312c2.685,5.519 4.028,12.306 4.028,20.36c-0,7.757 -1.305,14.469 -3.916,20.137c-2.61,5.668 -6.302,10.366 -11.075,14.095c-4.773,3.729 -10.478,6.526 -17.116,8.39c-6.637,1.865 -13.983,2.797 -22.038,2.797l-24.163,0l-0,58.172l-18.571,-0l0,-146.772Zm40.497,73.386c12.827,0 22.336,-2.424 28.526,-7.271c6.19,-4.848 9.285,-12.493 9.285,-22.934c0,-10.59 -3.244,-17.936 -9.732,-22.038c-6.488,-4.102 -16.147,-6.153 -28.974,-6.153l-21.031,0l-0,58.396l21.926,0Z" style="fill:#303956;fill-rule:nonzero;"/><path d="M2138.89,126.614l84.573,0l0,15.662l-66.002,-0l-0,46.09l55.71,-0l0,15.885l-55.71,0l-0,53.25l68.24,-0l-0,15.885l-86.811,-0l0,-146.772Z" style="fill:#303956;fill-rule:nonzero;"/><path d="M2287.9,126.614l36.693,0c22.672,0 39.9,6.265 51.683,18.794c11.784,12.529 17.675,30.503 17.675,53.921c0,11.634 -1.491,22.038 -4.474,31.211c-2.983,9.173 -7.384,16.93 -13.201,23.269c-5.817,6.339 -12.977,11.187 -21.479,14.543c-8.502,3.356 -18.272,5.034 -29.309,5.034l-37.588,-0l-0,-146.772Zm35.35,131.558c17.154,-0 30.018,-5.146 38.595,-15.438c8.577,-10.292 12.865,-24.76 12.865,-43.405c-0,-18.645 -4.288,-32.89 -12.865,-42.734c-8.577,-9.845 -21.441,-14.767 -38.595,-14.767l-16.78,0l-0,116.344l16.78,-0Z" style="fill:#303956;fill-rule:nonzero;"/><g><path d="M809.281,70.732c-1.052,-1.645 -2.87,-2.641 -4.823,-2.641c-35.264,-0.035 -379.229,-0.035 -379.229,-0.035c-23.62,2.009 -41.94,17.267 -55.684,43.967c-6.33,12.249 -14.603,23.392 -24.497,32.995c-24.651,23.937 -53.672,34.773 -87.643,30.762c-53.986,-3.314 -93.061,-29.927 -98.653,-108.858c0,-0 43.482,-0.021 66.239,-0.032c15.058,-0.008 29.689,-5.011 41.598,-14.227c15.412,-11.925 24.039,-28.987 24.834,-52.663c0,0 -54.786,0.012 -78.121,0.017c-16.074,0.003 -31.672,5.453 -44.251,15.46c-13.712,10.981 -21.919,26.344 -25.04,45.775c-2.516,-21.914 -12.68,-36.609 -28.2,-46.858c-13.42,-8.821 -29.098,-13.585 -45.157,-13.722c-24.06,-0.254 -70.654,-0.653 -70.654,-0.653c0.604,36.178 17.374,56.441 45.115,64.157c5.485,1.522 11.138,2.351 16.828,2.468c17.299,0.359 68.46,1.412 68.46,1.412c7.728,122.19 56.321,215.639 154.217,274.414c89.193,55.061 185.809,81.496 302.763,29.483c112.074,-46.067 179.126,-129.222 203.014,-255.548c15.506,-4.187 22.696,-11.573 12.435,-25.67c10.631,-4.24 12.45,-10.825 6.449,-20.003Z" style="fill:#303956;"/><path d="M802.193,89.458c-0.119,-0.065 -121.694,1.114 -165.65,1.542c-16.304,0.16 -32.311,4.374 -46.58,12.263c-7.386,4.082 -14.365,9.204 -18.658,15.38c-16.236,19.456 -17.293,40.633 -16.363,80.08c0.556,148.395 -115.652,177.587 -189.553,182.519c66.705,23.787 138.986,26.066 221.355,-10.566c112.075,-46.067 179.126,-129.222 203.015,-255.547c15.506,-4.188 22.696,-11.573 12.434,-25.671Z" style="fill:#fff;stroke:#303956;stroke-width:1.79px;stroke-linecap:round;stroke-miterlimit:1.5;"/><g><path d="M500.496,168.599l-31.271,-0l0,15.551c0.001,8.681 7.038,15.719 15.719,15.719l0.036,-0c8.569,-0 15.516,-6.947 15.516,-15.516l-0,-15.754Z" style="fill:#fff;"/><circle cx="484.861" cy="168.599" r="12.45" style="fill:#303956;"/></g></g></g></svg>