<?xml version="1.0" encoding="UTF-8" standalone="no"?>
<svg
   width="248.29721"
   height="48"
   fill="none"
   viewBox="0 0 248.2972 48"
   version="1.1"
   id="svg10"
   sodipodi:docname="logo-cleaner-web.svg"
   inkscape:version="1.1.2 (0a00cf5339, 2022-02-04)"
   xmlns:inkscape="http://www.inkscape.org/namespaces/inkscape"
   xmlns:sodipodi="http://sodipodi.sourceforge.net/DTD/sodipodi-0.dtd"
   xmlns="http://www.w3.org/2000/svg"
   xmlns:svg="http://www.w3.org/2000/svg">
  <defs
     id="defs14" />
  <sodipodi:namedview
     id="namedview12"
     pagecolor="#ffffff"
     bordercolor="#666666"
     borderopacity="1.0"
     inkscape:pageshadow="2"
     inkscape:pageopacity="0.0"
     inkscape:pagecheckerboard="0"
     showgrid="false"
     inkscape:zoom="1.9187637"
     inkscape:cx="217.06685"
     inkscape:cy="23.97377"
     inkscape:window-width="1366"
     inkscape:window-height="699"
     inkscape:window-x="0"
     inkscape:window-y="32"
     inkscape:window-maximized="1"
     inkscape:current-layer="svg10" />
  <path
     fill="#000475"
     fill-rule="evenodd"
     d="m 243.15991,2.044 c 0,-1.144 -0.877,-2.044 -1.992,-2.044 h -49.12 c -1.114,0 -1.99,0.9 -1.99,2.044 v 35.408 c 0,0.408 -0.12,0.817 -0.359,1.144 l -4.024,6.215 c -0.877,1.349 0.04,3.189 1.633,3.189 h 58.999 c 1.593,0 2.55,-1.84 1.633,-3.19 l -4.62,-7.032 c -0.04,-0.04 -0.04,-0.04 -0.08,-0.04 -0.08,0 -0.12,-0.041 -0.12,-0.123 V 2.045 h 0.04 z"
     clip-rule="evenodd"
     id="path2" />
  <path
     fill="#ffffef"
     d="m 240.84791,2.821 h -48.482 V 36.43 h 48.482 V 2.822 Z"
     id="path4" />
  <path
     fill="#62da99"
     fill-rule="evenodd"
     d="m 228.45991,22.896 c -0.12,0.123 -0.2,0.245 -0.28,0.368 -1.473,2.535 -3.903,4.58 -6.891,5.56 -6.175,2.004 -12.549,-1.267 -14.222,-7.318 -1.673,-6.051 1.952,-12.593 8.127,-14.596 2.47,-0.818 4.98,-0.777 7.21,-0.041 0.12,0.04 0.28,0.082 0.399,0.082 0.08,0 0.16,0 0.199,0.04 l 8.525,1.8 3.984,1.185 c 1.434,0.409 1.832,2.29 0.796,3.435 l -4.7,4.988 c -0.08,0.081 -0.12,0.163 -0.2,0.245 l -2.788,3.966 c 0,0.082 -0.08,0.204 -0.16,0.286 z"
     clip-rule="evenodd"
     id="path6" />
  <path
     fill="#62da99"
     d="m 198.81991,31.196 c -0.319,-0.45 -0.359,-1.063 -0.08,-1.554 4.303,-7.973 8.127,-10.753 16.334,-11.98 0.517,-0.081 0.995,0.164 1.314,0.573 0.598,0.859 0.08,2.126 -0.916,2.33 -2.35,0.532 -6.055,1.554 -8.286,3.394 -2.271,1.84 -4.542,5.07 -5.856,7.155 -0.598,0.9 -1.873,0.94 -2.51,0.082 z"
     id="path8" />
  <text
     xml:space="preserve"
     style="font-style:normal;font-weight:normal;font-size:24px;line-height:1.25;font-family:sans-serif;fill:#000000;fill-opacity:1;stroke:none"
     x="-2.0859375"
     y="32.021069"
     id="text4660"><tspan
       sodipodi:role="line"
       id="tspan4658"
       x="-2.0859375"
       y="32.021069"
       style="font-style:normal;font-variant:normal;font-weight:bold;font-stretch:normal;font-size:24px;font-family:sans-serif;-inkscape-font-specification:'sans-serif Bold'"><tspan
   style="fill:#62da99;fill-opacity:1"
   id="tspan62625">°</tspan><tspan
   style="fill:#000475;fill-opacity:1"
   id="tspan27407">Cleaner Web</tspan> </tspan></text>
</svg>
