<svg xmlns="http://www.w3.org/2000/svg" width="63" height="48" fill="none" viewBox="0 0 63 48"><path fill="#000475" fill-rule="evenodd" d="M57.825 2.044C57.825.9 56.948 0 55.833 0H6.713C5.599 0 4.723.9 4.723 2.044v35.408c0 .408-.12.817-.359 1.144L.34 44.811C-.537 46.16.38 48 1.973 48h58.999c1.593 0 2.55-1.84 1.633-3.19l-4.62-7.032c-.04-.04-.04-.04-.08-.04-.08 0-.12-.041-.12-.123V2.045h.04z" clip-rule="evenodd"/><path fill="#FFFFEF" d="M55.513 2.821H7.031V36.43h48.482V2.822z"/><path fill="#62DA99" fill-rule="evenodd" d="M43.125 22.896c-.12.123-.2.245-.28.368-1.473 2.535-3.903 4.58-6.891 5.56-6.175 2.004-12.549-1.267-14.222-7.318S23.684 8.913 29.859 6.91c2.47-.818 4.98-.777 7.21-.041.12.04.28.082.399.082.08 0 .16 0 .199.04l8.525 1.8 3.984 1.185c1.434.409 1.832 2.29.796 3.435l-4.7 4.988c-.08.081-.12.163-.2.245l-2.788 3.966c0 .082-.08.204-.16.286z" clip-rule="evenodd"/><path fill="#62DA99" d="M13.485 31.196c-.319-.45-.359-1.063-.08-1.554 4.303-7.973 8.127-10.753 16.334-11.98.517-.081.995.164 1.314.573.598.859.08 2.126-.916 2.33-2.35.532-6.055 1.554-8.286 3.394-2.271 1.84-4.542 5.07-5.856 7.155-.598.9-1.873.94-2.51.082z"/></svg>