<?xml version="1.0" encoding="UTF-8"?>
<svg width="121px" height="71px" viewBox="0 0 121 71" version="1.1" xmlns="http://www.w3.org/2000/svg" xmlns:xlink="http://www.w3.org/1999/xlink">
    <!-- Generator: Sketch 50.2 (55047) - http://www.bohemiancoding.com/sketch -->
    <title>Shape</title>
    <desc>Created with Sketch.</desc>
    <defs/>
    <g id="Landingpage" stroke="none" stroke-width="1" fill="none" fill-rule="evenodd">
        <g id="Landingpage-Desktop-960" transform="translate(-52.000000, -68.000000)" fill="#FFFFFF">
            <g id="logo-header" transform="translate(52.000000, 67.000000)">
                <path d="M120.695,15.317 C120.408,15.753 119.81,16.202 118.901,16.668 C117.462,17.365 115.985,18.101 114.47,18.872 C112.953,19.644 111.345,20.488 109.644,21.405 C109.457,22.449 109.269,23.577 109.079,24.784 C108.891,25.992 108.685,27.198 108.466,28.403 C109.652,27.802 110.859,27.251 112.092,26.749 L112.387,26.637 C113.201,26.324 113.868,26.203 114.388,26.27 C114.906,26.336 115.377,26.657 115.8,27.232 L115.793,27.191 C116.236,27.7 116.574,28.212 116.809,28.727 C117.042,29.242 117.277,29.764 117.513,30.292 L117.465,30.267 C117.646,30.64 117.757,30.952 117.798,31.201 C117.876,31.672 117.777,32.115 117.502,32.531 C117.227,32.946 116.843,33.336 116.35,33.702 C115.858,34.067 115.275,34.43 114.603,34.791 C113.93,35.152 113.237,35.527 112.526,35.917 L112.568,35.901 C111.536,36.533 110.531,37.132 109.548,37.699 C108.566,38.267 107.602,38.849 106.655,39.447 C106.521,40.089 106.395,40.778 106.278,41.514 C106.16,42.255 106.115,42.883 106.141,43.404 C107.177,42.802 108.25,42.198 109.361,41.596 C110.471,40.995 111.659,40.451 112.923,39.967 C113.682,39.677 114.317,39.59 114.829,39.702 C115.341,39.817 115.778,40.158 116.14,40.727 L116.134,40.686 C116.58,41.223 117.003,41.842 117.403,42.544 C117.802,43.247 118.061,43.959 118.18,44.68 C118.284,45.318 118.204,45.821 117.935,46.188 C117.668,46.556 117.139,46.981 116.352,47.459 C114.617,48.536 112.834,49.638 111.004,50.766 C109.174,51.894 107.405,52.991 105.699,54.058 L105.734,54 C104.979,54.494 104.335,54.846 103.801,55.049 C103.183,55.285 102.629,55.409 102.137,55.421 C101.646,55.432 101.177,55.353 100.732,55.185 C100.286,55.016 99.824,54.795 99.345,54.521 C98.867,54.247 98.344,53.925 97.774,53.552 L97.781,53.594 C97.319,53.328 96.935,52.988 96.628,52.574 C96.321,52.162 96.108,51.594 95.989,50.873 C95.921,50.457 95.894,50.024 95.91,49.577 L98.683,19.054 L99.134,18.261 C100.212,17.554 101.395,16.798 102.682,15.996 C103.969,15.194 105.315,14.391 106.722,13.588 C108.127,12.785 109.573,11.995 111.059,11.22 C112.544,10.445 114.027,9.745 115.507,9.119 L115.717,9.039 C116.617,8.694 117.342,8.61 117.894,8.781 C118.444,8.954 118.907,9.352 119.278,9.976 L119.271,9.935 C119.657,10.465 119.941,10.917 120.121,11.29 C120.302,11.663 120.474,12.07 120.636,12.509 L120.586,12.483 C120.758,12.801 120.877,13.154 120.94,13.542 C121.064,14.292 120.981,14.883 120.695,15.317 Z M94.577,31.421 C94.533,31.492 94.501,31.557 94.483,31.617 C94.385,32.114 94.243,32.523 94.058,32.845 C93.872,33.169 93.446,33.446 92.78,33.676 C92.651,33.72 92.511,33.768 92.357,33.823 C92.204,33.875 92.033,33.908 91.848,33.917 C90.954,34.036 90.194,34.048 89.567,33.953 C88.939,33.857 88.407,33.66 87.968,33.365 C87.529,33.067 87.17,32.668 86.893,32.166 C86.615,31.664 86.391,31.062 86.222,30.359 C86.158,29.865 86.114,29.357 86.088,28.836 C86.06,28.314 86.022,27.858 85.973,27.467 C85.936,27.181 85.876,26.924 85.794,26.694 C85.71,26.464 85.599,26.319 85.458,26.259 C85.077,26.418 84.627,26.974 84.106,27.93 C83.588,28.885 83.071,30.023 82.557,31.343 C82.044,32.662 81.562,34.074 81.112,35.575 C80.661,37.077 80.304,38.473 80.041,39.759 C79.719,41.421 79.513,43.057 79.423,44.664 C79.334,46.271 79.364,47.648 79.51,48.795 C79.606,49.55 79.749,50.159 79.942,50.623 C80.136,51.086 80.394,51.331 80.717,51.354 L80.871,51.3 C81.664,51.026 82.821,49.606 84.339,47.041 C85.446,45.243 86.831,44.057 88.496,43.48 C88.854,43.356 89.224,43.263 89.603,43.198 C89.982,43.135 90.385,43.098 90.811,43.086 C91.504,43.065 92.021,43.191 92.364,43.465 C92.706,43.742 92.911,44.14 92.978,44.661 C93.024,45.026 92.996,45.436 92.895,45.892 C92.792,46.35 92.666,46.835 92.518,47.348 C91.748,49.9 90.565,52.157 88.971,54.123 C87.377,56.09 85.351,57.499 82.893,58.351 C82.687,58.421 82.509,58.483 82.355,58.536 C82.202,58.59 82.06,58.625 81.928,58.644 L81.966,58.63 C80.797,58.899 79.732,59.037 78.771,59.044 C77.81,59.05 76.939,59.039 76.161,59.01 L76.198,58.996 C75.8,59.026 75.379,58.974 74.936,58.841 C74.491,58.711 74.058,58.514 73.637,58.251 C73.216,57.99 72.828,57.675 72.475,57.309 C72.12,56.941 71.836,56.55 71.623,56.134 L71.633,56.213 C71.229,55.565 70.898,54.803 70.64,53.926 C70.382,53.052 70.187,52.105 70.057,51.089 C69.855,49.501 69.823,47.683 69.963,45.636 C70.104,43.589 70.407,41.465 70.875,39.263 C71.342,37.062 71.96,34.877 72.726,32.709 C73.492,30.54 74.393,28.535 75.428,26.694 C76.463,24.855 77.63,23.26 78.928,21.913 C80.227,20.566 81.644,19.626 83.18,19.094 C83.309,19.05 83.436,19.005 83.565,18.961 C83.718,18.908 83.86,18.873 83.992,18.854 L83.954,18.868 C84.604,18.724 85.285,18.61 85.996,18.527 C86.707,18.444 87.398,18.409 88.068,18.421 C88.737,18.434 89.379,18.491 89.994,18.59 C90.609,18.69 91.141,18.839 91.594,19.036 C92.751,19.506 93.538,20.131 93.959,20.909 C94.379,21.689 94.657,22.611 94.793,23.679 C94.867,24.252 94.919,24.879 94.953,25.561 C94.986,26.243 94.993,26.928 94.974,27.614 C94.955,28.301 94.913,28.974 94.851,29.633 C94.789,30.294 94.696,30.891 94.577,31.421 Z M66.186,59.894 C65.508,60.08 64.876,60.227 64.292,60.334 C63.708,60.442 63.091,60.441 62.446,60.328 L62.485,60.358 C61.718,60.305 61.185,60.105 60.883,59.755 C60.579,59.404 60.376,58.72 60.269,57.699 C60.126,56.453 60.007,54.99 59.913,53.309 L59.798,52.554 C58.163,53.265 56.56,53.973 54.988,54.679 C53.415,55.387 52.033,56.075 50.841,56.743 C50.493,57.573 50.166,58.457 49.863,59.391 C49.558,60.328 49.244,61.201 48.92,62.012 C48.597,62.823 48.266,63.51 47.928,64.076 C47.591,64.64 47.204,64.983 46.768,65.101 C46.38,65.209 45.949,65.221 45.477,65.141 L45.028,65.029 C44.629,64.928 44.228,64.815 43.828,64.688 C43.428,64.562 43.069,64.404 42.75,64.216 C42.433,64.027 42.168,63.799 41.955,63.529 C41.743,63.259 41.626,62.918 41.602,62.504 C41.587,62.22 41.6,61.901 41.642,61.548 C41.683,61.196 41.777,60.777 41.922,60.291 C42.636,58.101 43.511,55.598 44.547,52.781 C45.583,49.966 46.677,47.086 47.829,44.146 C48.981,41.207 50.138,38.344 51.3,35.559 C52.459,32.774 53.535,30.327 54.525,28.22 C54.9,27.435 55.357,26.737 55.903,26.129 C56.447,25.521 57.216,25.08 58.21,24.808 C59.883,24.348 61.29,24.113 62.434,24.102 C63.577,24.09 64.581,24.122 65.447,24.199 L66.113,24.214 C66.879,24.293 67.408,24.508 67.699,24.862 C67.988,25.215 68.152,25.728 68.191,26.4 C68.197,26.53 68.207,26.671 68.215,26.826 C68.221,26.956 68.217,27.087 68.2,27.224 L68.197,27.184 C68.099,28.944 68.037,31.021 68.011,33.416 C67.983,35.811 67.979,38.344 67.992,41.017 C68.005,43.689 68.041,46.416 68.099,49.194 C68.156,51.973 68.217,54.614 68.282,57.114 C68.329,57.942 68.215,58.55 67.941,58.94 C67.669,59.33 67.084,59.648 66.186,59.894 Z M59.474,35.56 C58.8,37.137 58.087,38.807 57.337,40.575 C56.587,42.342 55.835,44.168 55.078,46.055 C55.823,45.719 56.556,45.413 57.279,45.136 C58.001,44.86 58.736,44.593 59.485,44.334 C59.476,42.842 59.467,41.361 59.458,39.894 C59.45,38.427 59.456,36.981 59.474,35.56 Z M60.14,8.647 L60.14,8.622 C59.644,9.887 58.854,11.143 57.77,12.395 C56.687,13.644 55.393,14.898 53.891,16.154 C54.175,16.52 54.483,16.901 54.816,17.293 C55.148,17.688 55.488,18.075 55.836,18.456 C56.183,18.838 56.527,19.2 56.867,19.542 C57.207,19.885 57.526,20.188 57.823,20.452 L57.823,20.427 C58.135,20.687 58.291,20.998 58.291,21.358 C58.291,21.604 58.217,21.849 58.068,22.094 C57.919,22.34 57.742,22.558 57.536,22.753 C57.331,22.949 57.126,23.118 56.92,23.264 C56.714,23.409 56.555,23.505 56.441,23.552 L56.463,23.522 C56.293,23.616 56.13,23.706 55.975,23.789 C55.818,23.871 55.648,23.938 55.464,23.987 C55.194,24.059 54.905,24.08 54.593,24.05 C54.281,24.02 53.955,23.91 53.615,23.723 C53.332,23.521 53.013,23.272 52.659,22.973 C52.304,22.676 51.94,22.344 51.565,21.978 C51.189,21.613 50.817,21.226 50.449,20.816 C50.081,20.408 49.733,19.986 49.407,19.549 C49.167,20.547 48.932,21.511 48.706,22.44 C48.479,23.371 48.259,24.307 48.047,25.248 C47.963,25.598 47.845,25.875 47.697,26.079 C47.548,26.283 47.332,26.424 47.049,26.5 C46.878,26.546 46.701,26.56 46.517,26.544 C46.177,26.521 45.851,26.503 45.539,26.488 C45.227,26.474 44.951,26.422 44.711,26.33 C44.469,26.24 44.279,26.083 44.137,25.858 C43.995,25.635 43.924,25.301 43.924,24.859 C43.924,24.63 43.945,24.37 43.988,24.08 C44.087,23.529 44.236,22.707 44.435,21.613 C44.632,20.519 44.856,19.312 45.104,17.992 C45.352,16.673 45.621,15.302 45.911,13.88 C46.202,12.459 46.499,11.141 46.804,9.929 C47.108,8.717 47.417,7.675 47.729,6.805 C48.04,5.935 48.337,5.388 48.621,5.164 C49.145,4.745 49.691,4.324 50.257,3.9 C50.824,3.477 51.394,3.086 51.968,2.727 C52.542,2.367 53.108,2.047 53.669,1.765 C54.228,1.483 54.764,1.274 55.273,1.136 C55.868,0.976 56.439,0.929 56.984,0.994 C57.529,1.061 58.001,1.303 58.397,1.72 C58.638,1.982 58.882,2.274 59.13,2.591 C59.378,2.909 59.605,3.271 59.81,3.673 C60.016,4.078 60.182,4.532 60.31,5.038 C60.437,5.545 60.501,6.109 60.501,6.732 C60.501,7.092 60.469,7.425 60.405,7.728 C60.342,8.032 60.253,8.339 60.14,8.647 Z M55.953,6.678 C55.882,6.485 55.563,6.465 54.997,6.617 C54.671,6.704 54.302,6.849 53.891,7.05 C53.48,7.25 53.048,7.526 52.595,7.878 C52.397,8.505 52.203,9.167 52.011,9.866 C51.82,10.565 51.617,11.303 51.405,12.081 L51.405,12.057 C51.377,12.163 51.348,12.269 51.32,12.375 C51.292,12.48 51.263,12.594 51.235,12.716 C51.957,12.161 52.612,11.584 53.201,10.983 C53.789,10.382 54.285,9.806 54.689,9.255 C55.092,8.703 55.404,8.203 55.624,7.75 C55.843,7.298 55.953,6.949 55.953,6.704 L55.953,6.678 Z M45.675,8.804 C45.509,9.024 45.199,9.228 44.743,9.414 C44.025,9.688 43.287,9.978 42.528,10.287 C41.769,10.595 40.96,10.936 40.105,11.31 C39.939,11.881 39.767,12.499 39.587,13.161 C39.408,13.824 39.221,14.485 39.028,15.144 C39.621,14.904 40.222,14.695 40.83,14.514 L40.975,14.475 C41.375,14.368 41.692,14.354 41.927,14.435 C42.161,14.516 42.355,14.735 42.507,15.093 L42.507,15.069 C42.672,15.391 42.79,15.707 42.86,16.015 C42.928,16.324 42.997,16.636 43.066,16.953 L43.045,16.934 C43.1,17.159 43.128,17.344 43.128,17.487 C43.128,17.759 43.048,18 42.89,18.209 C42.732,18.421 42.524,18.607 42.269,18.772 C42.013,18.937 41.717,19.093 41.379,19.239 C41.04,19.386 40.692,19.54 40.333,19.701 L40.353,19.695 C39.829,19.964 39.319,20.218 38.821,20.455 C38.324,20.694 37.834,20.94 37.351,21.198 C37.241,21.547 37.13,21.924 37.02,22.329 C36.91,22.734 36.84,23.084 36.813,23.378 C37.337,23.125 37.879,22.876 38.438,22.629 C38.997,22.383 39.587,22.176 40.208,22.009 C40.581,21.908 40.882,21.911 41.11,22.018 C41.337,22.124 41.513,22.352 41.637,22.702 L41.637,22.678 C41.803,23.015 41.951,23.399 42.082,23.827 C42.213,24.254 42.279,24.675 42.279,25.09 C42.279,25.457 42.203,25.734 42.051,25.918 C41.899,26.103 41.623,26.296 41.223,26.5 C40.34,26.962 39.432,27.434 38.5,27.916 C37.569,28.399 36.667,28.868 35.797,29.326 L35.819,29.297 C35.432,29.512 35.108,29.656 34.845,29.726 C34.542,29.809 34.276,29.832 34.047,29.797 C33.821,29.763 33.61,29.68 33.416,29.549 C33.223,29.417 33.026,29.255 32.826,29.061 C32.626,28.868 32.409,28.643 32.174,28.387 L32.174,28.411 C31.981,28.224 31.829,28 31.719,27.743 C31.609,27.486 31.553,27.15 31.553,26.735 C31.553,26.496 31.573,26.251 31.615,26 L35.218,9.082 L35.487,8.675 C36.039,8.367 36.643,8.04 37.299,7.696 C37.955,7.352 38.638,7.012 39.349,6.677 C40.06,6.341 40.788,6.018 41.534,5.706 C42.279,5.394 43.018,5.122 43.749,4.893 L43.853,4.865 C44.295,4.746 44.636,4.759 44.878,4.901 C45.119,5.042 45.302,5.305 45.427,5.686 L45.427,5.663 C45.564,5.993 45.662,6.27 45.717,6.494 C45.771,6.719 45.821,6.961 45.862,7.221 L45.841,7.203 C45.897,7.396 45.924,7.605 45.924,7.827 C45.924,8.258 45.841,8.584 45.675,8.804 Z M31.22,19.022 C30.972,19.316 30.72,19.61 30.465,19.907 C30.21,20.201 29.932,20.503 29.631,20.811 C30.037,21.096 30.363,21.518 30.613,22.079 C30.86,22.639 30.985,23.222 30.985,23.827 C30.985,24.552 30.851,25.216 30.583,25.818 C30.314,26.42 29.919,27.047 29.397,27.701 L29.416,27.697 C29.05,28.204 28.615,28.707 28.111,29.206 C27.608,29.704 27.078,30.179 26.522,30.632 C25.966,31.083 25.407,31.507 24.844,31.9 C24.282,32.293 23.752,32.639 23.256,32.941 L23.275,32.935 C22.805,33.243 22.412,33.44 22.099,33.524 C21.863,33.587 21.647,33.601 21.451,33.562 C21.255,33.524 21.039,33.439 20.804,33.305 C20.424,33.197 20.048,33.036 19.676,32.827 C19.303,32.617 18.967,32.296 18.665,31.863 L18.685,31.88 C18.502,31.642 18.358,31.427 18.254,31.237 C18.149,31.046 18.096,30.776 18.096,30.429 C18.096,30.278 18.106,30.127 18.126,29.978 C18.145,29.829 18.169,29.668 18.194,29.495 C18.352,28.409 18.558,27.223 18.812,25.937 C19.068,24.651 19.325,23.334 19.587,21.985 C19.849,20.637 20.101,19.288 20.343,17.937 C20.584,16.587 20.777,15.31 20.922,14.107 C21.392,13.707 21.918,13.309 22.501,12.91 C23.082,12.511 23.68,12.138 24.295,11.791 C24.91,11.444 25.535,11.133 26.169,10.856 C26.802,10.579 27.408,10.363 27.984,10.209 C28.73,10.007 29.423,9.92 30.063,9.944 C30.704,9.967 31.201,10.152 31.554,10.494 C31.763,10.711 31.966,10.946 32.163,11.203 C32.358,11.461 32.535,11.746 32.692,12.059 C32.849,12.372 32.973,12.718 33.064,13.093 C33.156,13.469 33.202,13.876 33.202,14.315 C33.202,15.132 33.008,15.947 32.623,16.761 C32.238,17.577 31.769,18.33 31.22,19.022 Z M23.393,25.055 C23.263,25.619 23.135,26.154 23.01,26.655 C22.886,27.157 22.758,27.667 22.628,28.187 C23.177,27.842 23.677,27.485 24.128,27.113 C24.58,26.742 24.966,26.385 25.286,26.042 C25.607,25.698 25.858,25.374 26.041,25.067 C26.225,24.761 26.316,24.494 26.316,24.268 C26.29,24.154 26.185,24.083 26.002,24.057 C25.819,24.03 25.558,24.064 25.218,24.155 C24.72,24.289 24.112,24.59 23.393,25.055 Z M28.2,14.891 C27.885,14.975 27.513,15.136 27.081,15.374 C26.65,15.611 26.178,15.927 25.669,16.321 C25.538,16.766 25.411,17.226 25.286,17.706 C25.162,18.186 25.034,18.684 24.904,19.204 C24.838,19.404 24.786,19.583 24.746,19.746 C25.374,19.289 25.944,18.814 26.454,18.322 C26.964,17.828 27.399,17.36 27.757,16.915 C28.118,16.471 28.392,16.072 28.582,15.718 C28.771,15.364 28.867,15.089 28.867,14.892 C28.867,14.771 28.644,14.771 28.2,14.891 Z M19.462,16.504 C19.03,18.708 18.594,20.774 18.156,22.7 C17.717,24.627 17.253,26.372 16.763,27.937 C16.274,29.503 15.743,30.869 15.171,32.038 C14.598,33.207 13.969,34.134 13.283,34.818 C12.876,35.178 12.466,35.472 12.052,35.701 C11.639,35.929 11.191,36.11 10.708,36.24 C9.449,36.579 8.394,36.61 7.541,36.331 C6.69,36.054 6.061,35.389 5.654,34.337 C5.413,33.667 5.291,32.818 5.291,31.788 C5.291,30.848 5.383,29.79 5.568,28.616 C5.752,27.44 5.994,26.226 6.292,24.969 C6.591,23.713 6.923,22.451 7.285,21.184 C7.647,19.917 8.012,18.713 8.381,17.57 C8.508,17.184 8.651,16.89 8.81,16.694 C8.969,16.497 9.175,16.364 9.43,16.294 C9.736,16.213 10.076,16.202 10.45,16.262 C10.825,16.324 11.179,16.445 11.509,16.628 C11.839,16.812 12.12,17.048 12.348,17.339 C12.577,17.631 12.691,17.968 12.691,18.35 C12.691,18.629 12.634,18.946 12.52,19.3 L12.539,19.272 C12.246,20.189 11.938,21.21 11.614,22.334 C11.289,23.458 10.985,24.585 10.698,25.712 C10.412,26.841 10.177,27.903 9.993,28.901 C9.808,29.899 9.716,30.722 9.716,31.368 C9.716,31.707 9.742,31.971 9.792,32.164 C9.843,32.356 9.933,32.435 10.06,32.4 C10.34,32.325 10.634,31.977 10.946,31.357 C11.258,30.737 11.569,29.943 11.88,28.976 C12.192,28.011 12.504,26.931 12.815,25.737 C13.127,24.543 13.423,23.335 13.702,22.113 C13.982,20.891 14.24,19.712 14.474,18.575 C14.71,17.438 14.91,16.443 15.075,15.59 L15.057,15.639 C15.12,15.211 15.251,14.889 15.447,14.674 C15.644,14.46 15.883,14.314 16.163,14.239 C16.354,14.188 16.56,14.172 16.782,14.194 C17.005,14.215 17.234,14.252 17.469,14.306 C17.704,14.36 17.94,14.429 18.175,14.513 C18.41,14.597 18.629,14.678 18.833,14.755 C19.112,14.885 19.303,15.029 19.405,15.185 C19.507,15.341 19.557,15.545 19.557,15.794 C19.557,15.897 19.551,16.005 19.539,16.12 C19.526,16.233 19.501,16.361 19.462,16.504 Z M5.733,45.781 C6.264,44.747 6.869,43.733 7.547,42.74 C8.226,41.749 8.957,40.8 9.741,39.894 C10.524,38.989 11.289,38.22 12.036,37.586 L11.973,37.635 C12.359,37.22 12.866,36.834 13.494,36.477 C14.122,36.122 14.806,35.869 15.549,35.718 C16.056,35.616 16.623,35.591 17.245,35.645 C17.868,35.699 18.5,35.818 19.143,36 C19.785,36.184 20.4,36.431 20.987,36.745 C21.574,37.06 22.078,37.416 22.496,37.812 C23.143,38.427 23.545,39.104 23.705,39.842 C23.864,40.581 23.94,41.287 23.931,41.963 L23.919,42.869 C23.826,43.464 23.696,44.178 23.527,45.007 C23.357,45.836 23.156,46.677 22.922,47.53 C22.69,48.385 22.441,49.224 22.177,50.047 C21.911,50.872 21.649,51.587 21.387,52.194 C21.149,52.652 20.911,53.019 20.676,53.295 C20.44,53.572 20.142,53.747 19.781,53.82 C19.485,53.88 19.136,53.855 18.737,53.742 L18.768,53.773 C16.134,53.175 14.83,51.84 14.857,49.763 C14.86,49.522 14.924,49.141 15.047,48.622 C15.169,48.105 15.309,47.54 15.465,46.93 C15.621,46.321 15.772,45.707 15.918,45.088 C16.062,44.468 16.159,43.949 16.207,43.529 C16.186,43.559 16.164,43.575 16.143,43.579 L16.111,43.622 C15.727,43.917 15.299,44.353 14.827,44.93 C14.352,45.507 13.907,46.145 13.485,46.845 C13.064,47.543 12.71,48.279 12.426,49.047 C12.14,49.814 11.995,50.537 11.986,51.212 C11.976,51.961 12.168,52.56 12.564,53.008 L12.565,52.973 C13.315,53.76 14.162,54.449 15.105,55.04 C16.048,55.63 16.933,56.229 17.761,56.831 C18.588,57.434 19.287,58.092 19.859,58.807 C20.43,59.521 20.71,60.397 20.696,61.435 C20.687,62.136 20.519,62.881 20.192,63.67 L20.192,63.633 C19.929,64.313 19.576,65.053 19.133,65.852 C18.689,66.652 18.108,67.432 17.39,68.192 C16.672,68.952 15.807,69.651 14.795,70.289 C13.782,70.929 12.588,71.4 11.211,71.704 L10.796,71.787 C9.059,72.14 7.412,72.022 5.857,71.434 C4.3,70.848 2.784,69.657 1.306,67.862 C0.431,66.931 -0.002,66.128 0.006,65.452 L0.007,65.38 C0.06,64.599 0.407,63.938 1.047,63.399 L1.112,63.35 C1.859,62.813 2.656,62.459 3.503,62.287 C4.054,62.176 4.573,62.148 5.058,62.206 C5.542,62.265 5.974,62.423 6.351,62.685 C7.462,63.398 8.47,63.898 9.375,64.184 C10.28,64.47 11.061,64.546 11.718,64.412 C12.204,64.314 12.588,64.117 12.866,63.819 C12.827,63.538 12.506,63.17 11.898,62.715 C11.291,62.26 10.579,61.766 9.762,61.234 C9.008,60.737 8.264,60.238 7.531,59.737 C6.798,59.236 6.145,58.664 5.573,58.021 C4.999,57.378 4.544,56.627 4.207,55.77 C3.87,54.911 3.708,53.903 3.724,52.744 C3.739,51.537 4.021,50.168 4.57,48.636 L4.538,48.678 C4.803,47.782 5.201,46.817 5.733,45.781 Z M22.334,61.037 C22.672,59.508 23.022,57.778 23.387,55.845 C23.752,53.911 24.124,51.909 24.5,49.835 C24.878,47.763 25.249,45.841 25.611,44.071 C25.974,42.302 26.328,40.8 26.672,39.57 C27.017,38.34 27.333,37.608 27.621,37.374 C28.462,36.73 29.374,36.064 30.358,35.379 C31.341,34.692 32.358,34.044 33.405,33.432 C34.454,32.82 35.496,32.284 36.531,31.825 C37.567,31.365 38.556,31.04 39.5,30.848 C40.423,30.66 41.266,30.633 42.032,30.765 C42.796,30.897 43.458,31.256 44.021,31.84 C44.367,32.219 44.728,32.663 45.105,33.173 C45.481,33.684 45.823,34.251 46.133,34.874 C46.442,35.498 46.697,36.182 46.895,36.927 C47.093,37.673 47.186,38.484 47.176,39.36 C47.158,40.686 46.852,41.927 46.257,43.083 C45.659,44.24 44.962,45.374 44.159,46.484 C43.377,47.516 42.461,48.557 41.408,49.606 C40.352,50.656 39.212,51.667 37.983,52.64 C36.755,53.613 35.473,54.542 34.137,55.422 C32.799,56.306 31.469,57.105 30.146,57.823 C29.753,59.4 29.366,60.946 28.984,62.457 C28.604,63.969 28.249,65.469 27.924,66.958 C27.72,67.498 27.505,67.916 27.283,68.211 C27.06,68.505 26.718,68.699 26.257,68.793 C25.971,68.852 25.686,68.872 25.402,68.855 C24.878,68.761 24.353,68.668 23.829,68.575 C23.305,68.481 22.84,68.339 22.438,68.145 C22.036,67.953 21.711,67.682 21.463,67.333 C21.216,66.984 21.097,66.496 21.104,65.871 C21.109,65.495 21.205,64.989 21.388,64.354 C21.681,63.671 21.996,62.565 22.334,61.037 Z M35.889,45.785 C36.798,44.94 37.558,44.124 38.171,43.338 C38.782,42.553 39.253,41.821 39.58,41.143 C39.905,40.466 40.072,39.89 40.078,39.414 C40.079,39.365 40.091,39.306 40.113,39.238 C40.137,39.172 40.12,39.112 40.067,39.061 C40.012,39.01 39.892,38.985 39.706,38.985 C39.52,38.985 39.23,39.026 38.834,39.105 C38.329,39.209 37.735,39.403 37.052,39.692 C36.37,39.98 35.664,40.373 34.934,40.87 C34.592,41.987 34.242,43.15 33.887,44.357 C33.531,45.565 33.159,46.844 32.768,48.196 C33.939,47.434 34.98,46.631 35.889,45.785 Z" id="Shape"/>
            </g>
        </g>
    </g>
</svg>