<?xml version="1.0" ?><svg id="Icons" viewBox="0 0 24 24" xmlns="http://www.w3.org/2000/svg"><defs><style>.cls-1{fill:#232323;}</style></defs><path class="cls-1" d="M7,1V3H5V1A1,1,0,0,1,7,1Z"/><path class="cls-1" d="M19,1V3H17V1a1,1,0,0,1,2,0Z"/><path class="cls-1" d="M20,3H19V5a1,1,0,0,1-2,0V3H7V5A1,1,0,0,1,5,5V3H4A3,3,0,0,0,1,6V20a3,3,0,0,0,3,3H20a3,3,0,0,0,3-3V6A3,3,0,0,0,20,3ZM7,19H5a1,1,0,0,1,0-2H7a1,1,0,0,1,0,2Zm0-5H5a1,1,0,0,1,0-2H7a1,1,0,0,1,0,2Zm6,5H11a1,1,0,0,1,0-2h2a1,1,0,0,1,0,2Zm0-5H11a1,1,0,0,1,0-2h2a1,1,0,0,1,0,2Zm6,5H17a1,1,0,0,1,0-2h2a1,1,0,0,1,0,2Zm0-5H17a1,1,0,0,1,0-2h2a1,1,0,0,1,0,2Zm0-5H5A1,1,0,0,1,5,7H19a1,1,0,0,1,0,2Z"/></svg>