<svg xmlns="http://www.w3.org/2000/svg" width="66" height="66" viewBox="0 0 66 66">
  <g id="Group_135" data-name="Group 135" transform="translate(-1171 -1558)">
    <g id="Ellipse_8" data-name="Ellipse 8" transform="translate(1171 1558)" fill="none" stroke="#84adc8" stroke-width="5">
      <circle cx="33" cy="33" r="33" stroke="none"/>
      <circle cx="33" cy="33" r="30.5" fill="none"/>
    </g>
    <g id="link" transform="translate(1187.999 1575)">
      <path id="Path_36" data-name="Path 36" d="M192.51,2.2l-6.5,6.5c-.013.012-.02.028-.033.04a9.4,9.4,0,0,1,4.774.522l4.414-4.414a3.75,3.75,0,0,1,5.3,5.3l-6.5,6.5a3.79,3.79,0,0,1-5.3,0,1.878,1.878,0,0,0-2.652,0l-1.138,1.138a7.437,7.437,0,0,0,1.138,1.513,7.554,7.554,0,0,0,10.566.033c.013-.013.028-.02.04-.033l6.5-6.5A7.5,7.5,0,0,0,192.51,2.2Z" transform="translate(-173.312 0)" fill="#84adc8"/>
      <path id="Path_37" data-name="Path 37" d="M14.581,180.3l-4.429,4.429a3.75,3.75,0,0,1-5.3-5.3l6.518-6.518a3.79,3.79,0,0,1,5.3,0,1.877,1.877,0,0,0,2.652,0l1.138-1.138a7.432,7.432,0,0,0-1.138-1.513,7.551,7.551,0,0,0-10.566-.033c-.013.013-.028.02-.04.033L2.2,176.778A7.5,7.5,0,0,0,12.8,187.384l6.518-6.518c.013-.013.02-.028.033-.04a9.4,9.4,0,0,1-4.774-.522Z" transform="translate(0 -157.581)" fill="#84adc8"/>
    </g>
  </g>
</svg>
