<?xml version="1.0" encoding="UTF-8" standalone="no"?>
<svg
   width="66"
   height="66"
   viewBox="0 0 66 66"
   version="1.1"
   id="svg15"
   sodipodi:docname="icon-box-event.svg"
   inkscape:version="1.2.2 (b0a8486541, 2022-12-01)"
   xmlns:inkscape="http://www.inkscape.org/namespaces/inkscape"
   xmlns:sodipodi="http://sodipodi.sourceforge.net/DTD/sodipodi-0.dtd"
   xmlns="http://www.w3.org/2000/svg"
   xmlns:svg="http://www.w3.org/2000/svg">
  <defs
     id="defs19" />
  <sodipodi:namedview
     id="namedview17"
     pagecolor="#505050"
     bordercolor="#ffffff"
     borderopacity="1"
     inkscape:showpageshadow="0"
     inkscape:pageopacity="0"
     inkscape:pagecheckerboard="1"
     inkscape:deskcolor="#505050"
     showgrid="false"
     inkscape:zoom="15.151515"
     inkscape:cx="30.954"
     inkscape:cy="33"
     inkscape:window-width="3840"
     inkscape:window-height="2091"
     inkscape:window-x="1920"
     inkscape:window-y="32"
     inkscape:window-maximized="1"
     inkscape:current-layer="svg15" />
  <g
     id="Group_140"
     data-name="Group 140"
     transform="translate(-991 -1274)">
    <g
       id="Ellipse_7"
       data-name="Ellipse 7"
       transform="translate(991 1274)"
       fill="none"
       stroke="#88aa45"
       stroke-width="5">
      <circle
         cx="33"
         cy="33"
         r="33"
         stroke="none"
         id="circle2" />
      <circle
         cx="33"
         cy="33"
         r="30.5"
         fill="none"
         id="circle4" />
    </g>
  </g>
  <g
     id="g2508"
     transform="translate(-0.333383,1.1094577)">
    <path
       class="cls-1"
       d="m 25.240148,14.894749 v 3.237293 h -3.237294 v -3.237293 a 1.618647,1.618647 0 0 1 3.237294,0 z"
       id="path252"
       style="fill:#88aa45;fill-opacity:1;stroke:#88aa45;stroke-width:0;stroke-dasharray:none;stroke-opacity:1" />
    <path
       class="cls-1"
       d="m 44.663912,14.894749 v 3.237293 h -3.237294 v -3.237293 a 1.618647,1.618647 0 0 1 3.237294,0 z"
       id="path254"
       style="fill:#88aa45;fill-opacity:1;stroke:#88aa45;stroke-width:0;stroke-dasharray:none;stroke-opacity:1" />
    <path
       class="cls-1"
       d="m 46.282559,18.132042 h -1.618647 v 3.237294 a 1.618647,1.618647 0 0 1 -3.237294,0 v -3.237294 h -16.18647 v 3.237294 a 1.618647,1.618647 0 0 1 -3.237294,0 v -3.237294 h -1.618647 a 4.8559411,4.8559411 0 0 0 -4.855941,4.855941 v 22.661058 a 4.8559411,4.8559411 0 0 0 4.855941,4.855941 H 46.282559 A 4.8559411,4.8559411 0 0 0 51.1385,45.649041 V 22.987983 A 4.8559411,4.8559411 0 0 0 46.282559,18.132042 Z M 25.240148,44.030394 h -3.237294 a 1.618647,1.618647 0 0 1 0,-3.237294 h 3.237294 a 1.618647,1.618647 0 0 1 0,3.237294 z m 0,-8.093235 h -3.237294 a 1.618647,1.618647 0 0 1 0,-3.237294 h 3.237294 a 1.618647,1.618647 0 0 1 0,3.237294 z m 9.711882,8.093235 h -3.237294 a 1.618647,1.618647 0 0 1 0,-3.237294 h 3.237294 a 1.618647,1.618647 0 0 1 0,3.237294 z m 0,-8.093235 h -3.237294 a 1.618647,1.618647 0 0 1 0,-3.237294 h 3.237294 a 1.618647,1.618647 0 0 1 0,3.237294 z m 9.711882,8.093235 h -3.237294 a 1.618647,1.618647 0 0 1 0,-3.237294 h 3.237294 a 1.618647,1.618647 0 0 1 0,3.237294 z m 0,-8.093235 h -3.237294 a 1.618647,1.618647 0 0 1 0,-3.237294 h 3.237294 a 1.618647,1.618647 0 0 1 0,3.237294 z m 0,-8.093235 H 22.002854 a 1.618647,1.618647 0 0 1 0,-3.237294 h 22.661058 a 1.618647,1.618647 0 0 1 0,3.237294 z"
       id="path256"
       style="fill:#88aa45;fill-opacity:1;stroke:#88aa45;stroke-width:0;stroke-dasharray:none;stroke-opacity:1" />
  </g>
</svg>
