<svg xmlns="http://www.w3.org/2000/svg" width="66" height="66" viewBox="0 0 66 66">
  <g id="Group_136" data-name="Group 136" transform="translate(-1161 -835)">
    <g id="info_1_" data-name="info (1)" transform="translate(1154.861 849)">
      <path id="Path_44" data-name="Path 44" d="M47.6,34.267l-.537,2.194q-2.415.953-3.854,1.452a10.166,10.166,0,0,1-3.342.5,6.672,6.672,0,0,1-4.547-1.426A4.615,4.615,0,0,1,33.7,33.364a12.815,12.815,0,0,1,.121-1.743q.123-.892.392-2.013l2.012-7.122q.269-1.023.453-1.939a8.427,8.427,0,0,0,.183-1.669,2.582,2.582,0,0,0-.563-1.9,3.181,3.181,0,0,0-2.152-.538,5.64,5.64,0,0,0-1.6.244c-.547.162-1.015.318-1.408.463l.538-2.2q1.977-.805,3.784-1.378A11.316,11.316,0,0,1,38.882,13a6.509,6.509,0,0,1,4.479,1.4,4.657,4.657,0,0,1,1.573,3.646c0,.309-.034.855-.108,1.634a10.932,10.932,0,0,1-.4,2.148l-2,7.094a18.842,18.842,0,0,0-.44,1.954,10.058,10.058,0,0,0-.2,1.658,2.389,2.389,0,0,0,.631,1.927,3.563,3.563,0,0,0,2.192.512,6.329,6.329,0,0,0,1.657-.256A9.267,9.267,0,0,0,47.6,34.267Zm.508-29.781a4.151,4.151,0,0,1-1.4,3.159,4.772,4.772,0,0,1-3.375,1.307,4.825,4.825,0,0,1-3.392-1.307,4.142,4.142,0,0,1-1.415-3.159,4.183,4.183,0,0,1,1.415-3.17,5.008,5.008,0,0,1,6.767,0A4.191,4.191,0,0,1,48.111,4.486Z" transform="translate(0)" fill="#a8bd7a"/>
    </g>
    <g id="Ellipse_9" data-name="Ellipse 9" transform="translate(1161 835)" fill="none" stroke="#a8bd7a" stroke-width="5">
      <circle cx="33" cy="33" r="33" stroke="none"/>
      <circle cx="33" cy="33" r="30.5" fill="none"/>
    </g>
  </g>
</svg>
