<?xml version="1.0" encoding="UTF-8" standalone="no"?>
<svg
   width="66"
   height="66"
   viewBox="0 0 66 66"
   version="1.1"
   id="svg15"
   sodipodi:docname="icon-box-mail.svg"
   inkscape:version="1.2.2 (b0a8486541, 2022-12-01)"
   xmlns:inkscape="http://www.inkscape.org/namespaces/inkscape"
   xmlns:sodipodi="http://sodipodi.sourceforge.net/DTD/sodipodi-0.dtd"
   xmlns="http://www.w3.org/2000/svg"
   xmlns:svg="http://www.w3.org/2000/svg">
  <defs
     id="defs19" />
  <sodipodi:namedview
     id="namedview17"
     pagecolor="#505050"
     bordercolor="#ffffff"
     borderopacity="1"
     inkscape:showpageshadow="0"
     inkscape:pageopacity="0"
     inkscape:pagecheckerboard="1"
     inkscape:deskcolor="#505050"
     showgrid="false"
     inkscape:zoom="15.151515"
     inkscape:cx="30.954"
     inkscape:cy="33"
     inkscape:window-width="3840"
     inkscape:window-height="2091"
     inkscape:window-x="1920"
     inkscape:window-y="32"
     inkscape:window-maximized="1"
     inkscape:current-layer="svg15" />
  <g
     id="Group_140"
     data-name="Group 140"
     transform="translate(-991 -1274)">
    <g
       id="Ellipse_7"
       data-name="Ellipse 7"
       transform="translate(991 1274)"
       fill="none"
       stroke="#88aa45"
       stroke-width="5">
      <circle
         cx="33"
         cy="33"
         r="33"
         stroke="none"
         id="circle2" />
      <circle
         cx="33"
         cy="33"
         r="30.5"
         fill="none"
         id="circle4" />
    </g>
  </g>
  <g
     id="g2725"
     style="stroke-width:0;stroke-dasharray:none;stroke:#88aa45;stroke-opacity:1;fill:#88aa45;fill-opacity:1">
    <path
       d="m 34.194359,33.808497 a 1.7841845,1.7841845 0 0 1 -2.390807,0 L 16.673668,20.052435 a 3.568369,3.568369 0 0 1 2.016128,-0.624465 h 28.546952 a 3.568369,3.568369 0 0 1 2.016128,0.624465 z"
       fill="#464646"
       id="path2539"
       style="stroke-width:0;stroke-dasharray:none;stroke:#88aa45;stroke-opacity:1;fill:#88aa45;fill-opacity:1" />
    <path
       d="m 50.805117,23.460227 v 19.162142 a 5.3525535,5.3525535 0 0 1 -5.352554,5.352553 H 20.47398 A 5.3525535,5.3525535 0 0 1 15.121427,42.622369 V 23.460227 l 15.486721,14.130741 a 3.568369,3.568369 0 0 0 2.355124,0.874251 3.568369,3.568369 0 0 0 2.372965,-0.909934 z"
       fill="#464646"
       id="path2541"
       style="stroke-width:0;stroke-dasharray:none;stroke:#88aa45;stroke-opacity:1;fill:#88aa45;fill-opacity:1" />
  </g>
</svg>
