<?xml version="1.0" standalone="no"?>
<!DOCTYPE svg PUBLIC "-//W3C//DTD SVG 20010904//EN"
 "http://www.w3.org/TR/2001/REC-SVG-20010904/DTD/svg10.dtd">
<svg version="1.0" xmlns="http://www.w3.org/2000/svg"
 width="516.000000pt" height="516.000000pt" viewBox="0 0 516.000000 516.000000"
 preserveAspectRatio="xMidYMid meet">
<metadata>
Created by potrace 1.14, written by Peter Selinger 2001-2017
</metadata>
<g transform="translate(0.000000,516.000000) scale(0.100000,-0.100000)"
fill="#000000" stroke="none">
<path d="M2340 5149 c-36 -5 -87 -11 -113 -13 -27 -3 -56 -7 -65 -10 -9 -3
-30 -7 -46 -10 -16 -3 -55 -11 -85 -17 -31 -6 -60 -12 -66 -14 -69 -14 -242
-71 -345 -112 -353 -145 -642 -340 -899 -607 -96 -100 -92 -96 -152 -171 -261
-329 -434 -699 -518 -1110 -37 -182 -46 -281 -46 -510 1 -169 9 -313 20 -348
2 -7 6 -30 9 -52 34 -262 164 -630 318 -895 139 -242 358 -500 584 -688 143
-119 372 -265 519 -332 39 -17 77 -35 86 -40 37 -19 172 -70 264 -98 187 -58
342 -90 540 -111 85 -9 466 -6 525 4 120 21 150 26 190 31 77 11 326 82 438
125 358 138 692 358 931 612 31 33 63 67 72 76 139 141 363 493 450 706 44
106 104 276 114 321 2 10 17 78 34 149 44 192 59 348 56 580 -2 110 -8 234
-14 275 -6 41 -14 93 -17 115 -21 154 -110 455 -176 595 -11 25 -28 63 -38 85
-57 132 -205 367 -328 520 -179 224 -391 407 -682 591 -246 156 -692 310 -982
340 -34 3 -67 9 -72 12 -15 9 -437 9 -506 1z"/>
</g>
</svg>
