<?xml version="1.0" encoding="UTF-8" standalone="no"?>
<svg
   xmlns:dc="http://purl.org/dc/elements/1.1/"
   xmlns:cc="http://creativecommons.org/ns#"
   xmlns:rdf="http://www.w3.org/1999/02/22-rdf-syntax-ns#"
   xmlns:svg="http://www.w3.org/2000/svg"
   xmlns="http://www.w3.org/2000/svg"
   xmlns:xlink="http://www.w3.org/1999/xlink"
   xmlns:sodipodi="http://sodipodi.sourceforge.net/DTD/sodipodi-0.dtd"
   xmlns:inkscape="http://www.inkscape.org/namespaces/inkscape"
   width="1200"
   height="670"
   viewBox="0 0 317.5 177.27083"
   version="1.1"
   id="svg8"
   inkscape:export-filename="/home/ben/ORDNUNG/PROFESSIONELL/B&amp;B/AG ÖA/Social Media/Bildmaterial/Twitter_Banner.png"
   inkscape:export-xdpi="96"
   inkscape:export-ydpi="96"
   inkscape:version="1.0.2 (e86c870879, 2021-01-15)"
   sodipodi:docname="Twitter_Banner.svg">
  <title
     id="title1404">#bitsundbaeume22</title>
  <defs
     id="defs2">
    <rect
       x="262.04523"
       y="7.7045397"
       width="88.929787"
       height="62.689885"
       id="rect1283" />
    <rect
       id="SVGID_1_"
       x="69"
       y="65.699997"
       width="893.91998"
       height="653.29999" />
    <rect
       id="SVGID_3_"
       x="69"
       y="65.699997"
       width="893.91998"
       height="653.29999" />
    <rect
       id="SVGID_5_"
       x="69"
       y="65.699997"
       width="893.91998"
       height="653.29999" />
    <clipPath
       id="SVGID_2_">
      <use
         xlink:href="#SVGID_1_"
         style="overflow:visible"
         id="use1411"
         x="0"
         y="0"
         width="100%"
         height="100%" />
    </clipPath>
    <clipPath
       id="clipPath1001">
      <use
         xlink:href="#SVGID_1_"
         style="overflow:visible"
         id="use999"
         x="0"
         y="0"
         width="100%"
         height="100%" />
    </clipPath>
    <clipPath
       id="clipPath1005">
      <use
         xlink:href="#SVGID_1_"
         style="overflow:visible"
         id="use1003"
         x="0"
         y="0"
         width="100%"
         height="100%" />
    </clipPath>
    <clipPath
       id="clipPath1009">
      <use
         xlink:href="#SVGID_1_"
         style="overflow:visible"
         id="use1007"
         x="0"
         y="0"
         width="100%"
         height="100%" />
    </clipPath>
    <clipPath
       id="clipPath1013">
      <use
         xlink:href="#SVGID_1_"
         style="overflow:visible"
         id="use1011"
         x="0"
         y="0"
         width="100%"
         height="100%" />
    </clipPath>
    <rect
       id="rect1459"
       x="69"
       y="65.699997"
       width="893.91998"
       height="653.29999" />
    <clipPath
       id="SVGID_4_">
      <use
         xlink:href="#SVGID_3_"
         style="overflow:visible"
         id="use1431"
         x="0"
         y="0"
         width="100%"
         height="100%" />
    </clipPath>
    <rect
       id="rect1471"
       x="69"
       y="65.699997"
       width="893.91998"
       height="653.29999" />
    <clipPath
       id="SVGID_2_-9">
      <use
         xlink:href="#SVGID_1_"
         style="overflow:visible"
         id="use1411-7"
         x="0"
         y="0"
         width="100%"
         height="100%" />
    </clipPath>
    <clipPath
       id="clipPath1205">
      <use
         xlink:href="#SVGID_1_"
         style="overflow:visible"
         id="use1203"
         x="0"
         y="0"
         width="100%"
         height="100%" />
    </clipPath>
    <clipPath
       id="clipPath1209">
      <use
         xlink:href="#SVGID_1_"
         style="overflow:visible"
         id="use1207"
         x="0"
         y="0"
         width="100%"
         height="100%" />
    </clipPath>
    <clipPath
       id="clipPath1213">
      <use
         xlink:href="#SVGID_1_"
         style="overflow:visible"
         id="use1211"
         x="0"
         y="0"
         width="100%"
         height="100%" />
    </clipPath>
    <clipPath
       id="clipPath1217">
      <use
         xlink:href="#SVGID_1_"
         style="overflow:visible"
         id="use1215"
         x="0"
         y="0"
         width="100%"
         height="100%" />
    </clipPath>
  </defs>
  <sodipodi:namedview
     id="base"
     pagecolor="#ffffff"
     bordercolor="#666666"
     borderopacity="1.0"
     inkscape:pageopacity="0.0"
     inkscape:pageshadow="2"
     inkscape:zoom="0.70729513"
     inkscape:cx="682.08413"
     inkscape:cy="359.20094"
     inkscape:document-units="mm"
     inkscape:current-layer="layer2"
     inkscape:document-rotation="0"
     showgrid="false"
     inkscape:window-width="1920"
     inkscape:window-height="983"
     inkscape:window-x="0"
     inkscape:window-y="27"
     inkscape:window-maximized="1" />
  <metadata
     id="metadata5">
    <rdf:RDF>
      <cc:Work
         rdf:about="">
        <dc:format>image/svg+xml</dc:format>
        <dc:type
           rdf:resource="http://purl.org/dc/dcmitype/StillImage" />
        <dc:title>#bitsundbaeume22</dc:title>
        <dc:creator>
          <cc:Agent>
            <dc:title>@bitsundbaume</dc:title>
          </cc:Agent>
        </dc:creator>
        <dc:subject>
          <rdf:Bag>
            <rdf:li>#nachhaltigkeit</rdf:li>
          </rdf:Bag>
        </dc:subject>
      </cc:Work>
    </rdf:RDF>
  </metadata>
  <g
     inkscape:groupmode="layer"
     id="layer3"
     inkscape:label="Hintergrund"
     style="display:inline;opacity:1">
    <rect
       style="opacity:1;fill:#ffffff;fill-opacity:1;stroke-width:0.0365142"
       id="rect1536"
       width="317.5"
       height="177.27083"
       x="0"
       y="0"
       inkscape:export-xdpi="96"
       inkscape:export-ydpi="96" />
  </g>
  <g
     inkscape:label="Logo"
     inkscape:groupmode="layer"
     id="layer1">
    <g
       id="g1485"
       transform="matrix(0.21103597,0,0,0.21103597,-19.853149,-8.5733963)">
      <g
         id="g1424"
         transform="translate(116.82225,-40.003872)">
        <defs
           id="defs1409">
          <rect
             id="rect1065"
             x="69"
             y="65.699997"
             width="893.91998"
             height="653.29999" />
        </defs>
        <clipPath
           id="clipPath1021">
          <use
             xlink:href="#SVGID_1_"
             style="overflow:visible"
             id="use1019"
             x="0"
             y="0"
             width="100%"
             height="100%" />
        </clipPath>
        <path
           class="st0"
           d="m 946.09,374.7 h -42.25 c 1.75,-13.5 9.69,-21.13 21.92,-21.13 11.59,0.01 18.74,7.63 20.33,21.13 m 15.56,6.51 c 0,-24.46 -14.45,-41.3 -35.9,-41.3 -23.19,0 -37.49,16.84 -37.49,42.57 0,26.84 14.3,44.79 38.92,44.79 18.74,0 32.72,-9.37 35.74,-26.21 l -14.77,-3.02 c -2.07,9.53 -9.85,15.57 -20.97,15.57 -14.45,0 -22.71,-10.17 -23.51,-26.84 h 57.5 c 0.17,-0.95 0.48,-3.33 0.48,-5.56 M 823.31,368.67 c 2.54,-8.1 10.32,-14.61 19.38,-14.61 10.96,0 18.11,8.42 18.11,20.65 v 50.83 h 15.25 V 373.6 c 0,-20.81 -12.71,-33.67 -29.23,-33.67 -12.39,0 -21.6,7.62 -26.05,17.47 -4.61,-10.32 -14.77,-17.47 -26.84,-17.47 -11.6,0 -19.54,6.51 -23.51,15.09 v -13.34 h -15.25 v 83.87 h 15.25 v -57.34 c 2.7,-8.1 10.48,-14.14 19.38,-14.14 11.12,0 18.11,8.42 18.11,20.49 v 50.99 h 15.41 V 368.67 Z M 697.3,427.28 c 10.64,0 20.01,-6.04 24.46,-14.93 v 13.18 h 15.25 v -83.87 h -15.25 v 57.82 c -4.29,8.1 -11.44,13.66 -20.33,13.66 -11.12,0 -18.27,-9.05 -18.27,-21.29 v -50.19 h -15.25 v 51.15 c 0.01,21.28 12.87,34.47 29.39,34.47 M 609.75,312.59 h -15.57 v 17.79 h 15.57 z m 13.19,17.79 h 15.57 v -17.79 h -15.57 z m -20.34,71.64 c 0,-7.47 5.4,-12.71 15.73,-14.61 l 17.47,-3.02 v 19.7 c -4.77,6.51 -11.28,10.64 -18.74,10.64 -8.1,0 -14.46,-4.77 -14.46,-12.71 m -21.6,-32.4 14.77,2.7 c 2.06,-11.75 10.01,-18.9 22.24,-18.9 11.12,0 17.79,6.04 17.79,15.41 0,3.34 -1.27,4.45 -4.29,5.08 l -15.25,2.7 c -20.33,3.81 -28.91,12.55 -28.91,25.73 0,14.77 10.17,24.94 25.41,24.94 10.32,0 18.9,-4.61 23.67,-11.44 v 9.69 H 651.2 V 372 c 0,-20.33 -13.34,-32.24 -33.52,-32.24 -19.84,0 -33.5,11.59 -36.68,29.86 M 517.76,328 h 23.35 c 11.44,0 17.79,5.4 17.79,15.57 0,10.32 -6.51,17.47 -17.47,17.47 h -23.67 z m 21.6,46.7 c 12.55,0 19.54,6.67 19.54,18.27 0,11.12 -6.83,18.9 -19.7,18.9 H 517.76 V 374.7 Z m 34.78,19.22 c 0,-12.71 -6.2,-21.76 -17,-26.21 10.64,-4.13 17,-13.02 17,-25.1 0,-17 -13.02,-28.27 -33.04,-28.27 h -38.6 v 111.19 h 36.22 c 21.92,0 35.42,-12.55 35.42,-31.61"
           clip-path="url(#SVGID_2_)"
           id="path1414"
           style="fill:#1d1d1b"
           transform="translate(30.351775,-0.57172964)" />
        <path
           class="st0"
           d="m 836.86,199.02 c 0,7.31 -5.72,14.93 -15.41,20.49 l -3.02,-3.49 c -5.56,-6.51 -7.94,-11.6 -7.94,-16.68 0,-7.62 4.92,-13.18 13.18,-13.18 8.27,0 13.19,5.72 13.19,12.86 m 7.95,68.94 c -6.2,4.45 -13.02,6.67 -20.49,6.67 -13.34,0 -23.19,-7.78 -23.19,-19.7 0,-9.37 6.35,-15.57 15.57,-20.49 z m 9.21,10.64 6.51,7.94 h 18.11 l -14.77,-17.31 c 8.26,-10.17 13.98,-23.51 16.2,-37.33 l -14.14,-3.18 c -1.75,11.75 -5.72,21.76 -11.44,29.54 l -25.26,-29.54 c 13.34,-7.62 21.92,-18.74 21.92,-30.5 0,-13.18 -10.64,-24.62 -27.48,-24.62 -17.63,0 -27.48,12.07 -27.48,25.26 0,9.05 4.61,16.36 12.71,26.21 -13.02,6.99 -23.03,15.57 -23.03,30.82 0,18.9 15.88,32.4 37.8,32.4 11.92,0 22.09,-3.65 30.35,-9.69 M 728.38,254.46 c 5.56,1.91 8.42,5.24 8.42,9.69 0,6.04 -5.24,10.96 -13.5,10.96 -9.05,0 -14.14,-6.51 -15.57,-15.88 l -14.14,2.86 c 2.54,16.36 13.03,26.21 29.7,26.21 16.36,0 28.75,-9.85 28.75,-24.14 0,-10.01 -6.19,-17.15 -20.49,-22.08 l -13.34,-4.61 c -9.05,-3.18 -12.71,-6.67 -12.71,-11.91 0,-6.83 6.35,-11.6 16.36,-11.6 11.12,0 18.27,6.67 20.33,19.38 l 14.77,-2.7 c -3.02,-19.22 -15.72,-29.7 -35.1,-29.7 -18.58,0 -31.61,9.85 -31.61,24.62 0,11.28 7.47,18.27 24.62,24.14 z m -51.47,17.95 h -6.67 c -9.37,0 -14.45,-4.77 -14.45,-14.77 v -41.3 h 26.84 v -13.66 h -26.84 v -19.7 h -11.44 l -1.27,10.64 c -0.79,6.19 -4.45,9.05 -11.75,9.05 h -6.35 v 13.66 h 15.57 v 41.3 c 0,18.74 10.96,29.54 28.75,29.54 3.02,0 5.56,-0.32 7.62,-0.64 v -14.12 z m -65.6,-102.14 h -16.52 v 17.79 h 16.52 z m -15.88,116.27 h 15.25 v -83.87 h -15.25 z m -77.67,-97.52 h 23.35 c 11.44,0 17.79,5.4 17.79,15.57 0,10.32 -6.51,17.47 -17.47,17.47 h -23.67 z m 21.6,46.7 c 12.55,0 19.54,6.67 19.54,18.27 0,11.12 -6.83,18.9 -19.7,18.9 h -21.44 v -37.17 z m 34.78,19.22 c 0,-12.71 -6.2,-21.76 -17,-26.21 10.64,-4.13 17,-13.02 17,-25.1 0,-17 -13.02,-28.27 -33.04,-28.27 h -38.6 v 111.19 h 36.22 c 21.92,-0.01 35.42,-12.55 35.42,-31.61"
           clip-path="url(#SVGID_2_)"
           id="path1416"
           style="fill:#1d1d1b"
           transform="translate(30.351775,-0.57172964)" />
        <path
           class="st0"
           d="m 849.71,609.75 h -2.27 c -3.18,0 -4.91,-1.62 -4.91,-5.02 V 590.7 h 9.12 v -4.64 h -9.12 v -6.69 h -3.88 l -0.43,3.62 c -0.27,2.1 -1.51,3.08 -3.99,3.08 h -2.16 v 4.64 h 5.29 v 14.03 c 0,6.37 3.72,10.04 9.77,10.04 1.03,0 1.89,-0.11 2.59,-0.22 v -4.81 z m -22.28,-34.69 h -5.61 v 6.04 h 5.61 z m -5.4,39.49 h 5.18 v -28.49 h -5.18 z m -11.44,-17.26 h -14.35 c 0.59,-4.59 3.29,-7.18 7.45,-7.18 3.93,0 6.36,2.59 6.9,7.18 m 5.29,2.21 c 0,-8.31 -4.91,-14.03 -12.19,-14.03 -7.88,0 -12.73,5.72 -12.73,14.46 0,9.12 4.86,15.21 13.22,15.21 6.37,0 11.11,-3.18 12.14,-8.9 l -5.02,-1.02 c -0.7,3.24 -3.35,5.29 -7.12,5.29 -4.91,0 -7.72,-3.45 -7.99,-9.12 h 19.53 c 0.05,-0.33 0.16,-1.14 0.16,-1.89 m -43.11,15.05 v -12.68 l 9.12,12.68 h 5.83 l -9.77,-13.54 12.14,-14.94 h -5.99 l -11.33,13.92 v -24.93 h -5.18 v 39.49 z m -15.32,4.16 c 0,2.91 -3.24,4.96 -8.85,4.96 -5.23,0 -8.15,-1.29 -8.15,-3.99 0,-2.59 2.59,-4.1 5.83,-4.1 h 7.55 c 2.27,0 3.62,1.24 3.62,3.13 m -8.69,-28.82 c 3.67,0 6.53,2.27 6.53,6.26 0,4.21 -2.86,6.31 -6.53,6.31 -3.72,0 -6.53,-2.1 -6.53,-6.31 0,-3.99 2.81,-6.26 6.53,-6.26 m 0,38.2 c 7.88,0 13.87,-3.18 13.87,-9.77 0,-4.64 -3.02,-7.39 -8.63,-7.39 h -7.55 c -1.83,0 -3.02,-0.81 -3.02,-2.1 0,-0.92 0.65,-1.73 1.78,-2.37 1.13,0.27 2.32,0.43 3.56,0.43 6.47,0 11.71,-3.94 11.71,-10.74 0,-3.4 -1.35,-6.1 -3.45,-7.93 l 4.32,-7.12 h -5.93 l -2.1,5.07 c -1.4,-0.49 -2.91,-0.7 -4.53,-0.7 -6.47,0 -11.71,3.88 -11.71,10.68 0,4.32 2.1,7.5 5.29,9.23 -2.16,0.97 -3.56,2.81 -3.56,4.91 0,1.51 0.76,2.91 2.1,3.88 -3.13,1.24 -4.75,3.51 -4.75,6.58 -0.02,4.81 4.4,7.34 12.6,7.34 m -17.8,-53.03 h -5.61 v 6.04 h 5.61 z m -5.4,39.49 h 5.18 v -28.49 h -5.18 z m -6.8,-4.8 h -2.27 c -3.18,0 -4.91,-1.62 -4.91,-5.02 V 590.7 h 9.12 v -4.64 h -9.12 v -6.69 h -3.88 l -0.43,3.62 c -0.27,2.1 -1.51,3.08 -3.99,3.08 h -2.16 v 4.64 h 5.29 v 14.03 c 0,6.37 3.72,10.04 9.77,10.04 1.03,0 1.89,-0.11 2.59,-0.22 v -4.81 z m -27.67,4.8 h 5.18 v -39.49 h -5.18 z m -19.27,-12.95 5.93,-1.02 v 6.69 c -1.62,2.21 -3.83,3.62 -6.37,3.62 -2.75,0 -4.91,-1.62 -4.91,-4.32 0.01,-2.54 1.85,-4.32 5.35,-4.97 m -12.67,-6.04 5.02,0.92 c 0.7,-3.99 3.4,-6.42 7.55,-6.42 3.78,0 6.04,2.05 6.04,5.23 0,1.13 -0.43,1.51 -1.46,1.73 l -5.18,0.92 c -6.91,1.29 -9.82,4.26 -9.82,8.74 0,5.02 3.45,8.47 8.63,8.47 3.51,0 6.42,-1.56 8.04,-3.88 v 3.29 h 5.02 v -18.18 c 0,-6.91 -4.53,-10.95 -11.38,-10.95 -6.75,-0.01 -11.39,3.92 -12.46,10.13 m -28.38,-20.5 v 39.49 h 5.18 v -19.32 c 0.92,-2.7 3.56,-4.8 6.91,-4.8 4.1,0 6.26,3.08 6.26,7.45 v 16.67 h 5.23 V 597.5 c 0,-7.55 -4.32,-11.87 -10.14,-11.87 -3.99,0 -6.91,2 -8.26,4.91 v -15.48 z m -31.67,0 v 39.49 h 5.18 v -19.32 c 0.92,-2.7 3.56,-4.8 6.91,-4.8 4.1,0 6.26,3.08 6.26,7.45 v 16.67 h 5.23 V 597.5 c 0,-7.55 -4.32,-11.87 -10.14,-11.87 -3.99,0 -6.91,2 -8.25,4.91 v -15.48 z m -17.97,35.44 c -4.96,0 -7.93,-4.26 -7.93,-10.41 0,-5.99 2.97,-9.98 8.15,-9.98 3.78,0 6.74,2.27 7.45,6.37 l 5.02,-0.92 c -0.86,-6.31 -5.72,-10.09 -12.46,-10.09 -8.31,0 -13.33,5.72 -13.33,14.62 0,9.17 5.02,15.05 13.11,15.05 5.88,0 10.25,-3.29 11.17,-8.9 l -5.02,-0.92 c -0.5,3.03 -2.92,5.18 -6.16,5.18 m -29.89,-8.9 5.93,-1.02 v 6.69 c -1.62,2.21 -3.83,3.62 -6.37,3.62 -2.75,0 -4.91,-1.62 -4.91,-4.32 0.01,-2.54 1.84,-4.32 5.35,-4.97 m -12.68,-6.04 5.02,0.92 c 0.7,-3.99 3.4,-6.42 7.55,-6.42 3.78,0 6.04,2.05 6.04,5.23 0,1.13 -0.43,1.51 -1.46,1.73 l -5.18,0.92 c -6.91,1.29 -9.82,4.26 -9.82,8.74 0,5.02 3.45,8.47 8.63,8.47 3.51,0 6.42,-1.56 8.04,-3.88 v 3.29 h 5.02 v -18.18 c 0,-6.91 -4.53,-10.95 -11.38,-10.95 -6.74,-0.01 -11.38,3.92 -12.46,10.13 M 507.7,576.78 h -5.23 v 37.77 h 5.13 v -29.78 l 20.39,29.78 h 5.18 v -37.77 h -5.07 v 29.78 z"
           clip-path="url(#SVGID_2_)"
           id="path1418"
           transform="translate(500.11867,-66.088182)"
           style="fill:#1d1d1b" />
        <path
           class="st0"
           d="m 931.51,538.65 c 0,-6.31 2.86,-10.04 7.82,-10.04 3.78,0 6.31,2.16 7.5,4.48 v 11.06 c -1.19,2.37 -3.72,4.53 -7.5,4.53 -4.96,0 -7.82,-3.72 -7.82,-10.03 m 20.51,-25.26 h -5.18 v 14.57 c -1.73,-2.48 -4.42,-4.15 -8.31,-4.15 -7.12,0 -12.19,5.61 -12.19,14.84 0,9.23 5.07,14.84 12.09,14.84 3.67,0 6.47,-1.51 8.42,-4.15 v 3.56 h 5.18 v -39.51 z m -54.87,11.01 v 28.49 h 5.18 v -19.32 c 0.92,-2.7 3.56,-4.8 6.91,-4.8 4.1,0 6.26,3.08 6.26,7.45 v 16.67 h 5.23 v -17.05 c 0,-7.55 -4.32,-11.87 -10.14,-11.87 -3.99,0 -6.91,2 -8.25,4.91 v -4.48 z m -21.8,29.08 c 3.62,0 6.8,-2.05 8.31,-5.07 v 4.48 h 5.18 V 524.4 h -5.18 v 19.64 c -1.46,2.75 -3.88,4.64 -6.91,4.64 -3.78,0 -6.2,-3.08 -6.2,-7.23 V 524.4 h -5.18 v 17.37 c 0,7.23 4.37,11.71 9.98,11.71 m -32.28,3.56 c 0,2.91 -3.24,4.96 -8.85,4.96 -5.23,0 -8.15,-1.29 -8.15,-3.99 0,-2.59 2.59,-4.1 5.83,-4.1 h 7.55 c 2.27,0 3.62,1.25 3.62,3.13 m -8.68,-28.81 c 3.67,0 6.53,2.27 6.53,6.26 0,4.21 -2.86,6.31 -6.53,6.31 -3.72,0 -6.53,-2.1 -6.53,-6.31 0,-3.99 2.8,-6.26 6.53,-6.26 m 0,38.2 c 7.88,0 13.87,-3.18 13.87,-9.77 0,-4.64 -3.02,-7.39 -8.63,-7.39 h -7.55 c -1.83,0 -3.02,-0.81 -3.02,-2.1 0,-0.92 0.65,-1.73 1.78,-2.37 1.13,0.27 2.32,0.43 3.56,0.43 6.47,0 11.71,-3.94 11.71,-10.74 0,-3.4 -1.35,-6.1 -3.45,-7.93 l 4.32,-7.12 h -5.93 l -2.1,5.07 c -1.4,-0.49 -2.91,-0.7 -4.53,-0.7 -6.47,0 -11.71,3.88 -11.71,10.68 0,4.32 2.1,7.5 5.29,9.23 -2.16,0.97 -3.56,2.81 -3.56,4.91 0,1.51 0.76,2.91 2.1,3.88 -3.13,1.24 -4.75,3.51 -4.75,6.58 -0.03,4.81 4.4,7.34 12.6,7.34 M 793,524.4 v 28.49 h 5.18 v -19.32 c 0.92,-2.7 3.56,-4.8 6.91,-4.8 4.1,0 6.26,3.08 6.26,7.45 v 16.67 h 5.23 v -17.05 c 0,-7.55 -4.32,-11.87 -10.14,-11.87 -3.99,0 -6.91,2 -8.25,4.91 v -4.48 z m -21.79,29.08 c 3.62,0 6.8,-2.05 8.31,-5.07 v 4.48 h 5.18 V 524.4 h -5.18 v 19.64 c -1.46,2.75 -3.88,4.64 -6.91,4.64 -3.78,0 -6.2,-3.08 -6.2,-7.23 V 524.4 h -5.18 v 17.37 c 0,7.23 4.37,11.71 9.98,11.71 M 741.69,524.4 v 28.49 h 5.18 v -17.48 c 1.24,-3.88 3.56,-6.37 7.55,-6.37 h 2.05 v -4.64 c -0.59,-0.11 -1.4,-0.22 -2.16,-0.22 -4.05,0 -6.26,2.43 -7.45,5.67 v -5.45 z m -11.43,11.22 H 715.9 c 0.59,-4.59 3.29,-7.18 7.45,-7.18 3.94,0.01 6.37,2.6 6.91,7.18 m 5.28,2.22 c 0,-8.31 -4.91,-14.03 -12.19,-14.03 -7.88,0 -12.73,5.72 -12.73,14.46 0,9.12 4.86,15.21 13.22,15.21 6.37,0 11.11,-3.18 12.14,-8.9 l -5.02,-1.02 c -0.7,3.24 -3.34,5.29 -7.12,5.29 -4.91,0 -7.72,-3.45 -7.98,-9.12 h 19.53 c 0.05,-0.33 0.15,-1.14 0.15,-1.89 m -30.53,-24.45 h -5.61 v 6.04 h 5.61 z m -5.4,39.5 h 5.18 V 524.4 h -5.18 z m -14.57,-10.9 c 1.89,0.65 2.86,1.78 2.86,3.29 0,2.05 -1.78,3.72 -4.59,3.72 -3.08,0 -4.8,-2.21 -5.29,-5.4 l -4.8,0.97 c 0.86,5.56 4.42,8.9 10.09,8.9 5.56,0 9.77,-3.34 9.77,-8.2 0,-3.4 -2.1,-5.83 -6.96,-7.5 l -4.53,-1.56 c -3.08,-1.08 -4.32,-2.27 -4.32,-4.05 0,-2.32 2.16,-3.94 5.56,-3.94 3.78,0 6.2,2.27 6.91,6.58 l 5.02,-0.92 c -1.03,-6.53 -5.34,-10.09 -11.92,-10.09 -6.31,0 -10.74,3.35 -10.74,8.36 0,3.83 2.54,6.2 8.36,8.2 z m -18.34,-28.6 h -5.61 v 6.04 h 5.61 z m -5.4,39.5 h 5.18 V 524.4 h -5.18 z m -13.49,0 h 5.18 V 513.4 h -5.18 z m -19.26,-12.95 5.93,-1.03 v 6.69 c -1.62,2.21 -3.83,3.62 -6.37,3.62 -2.75,0 -4.91,-1.62 -4.91,-4.32 0.01,-2.53 1.85,-4.31 5.35,-4.96 m -12.68,-6.04 5.02,0.92 c 0.7,-3.99 3.4,-6.42 7.55,-6.42 3.78,0 6.04,2.05 6.04,5.23 0,1.13 -0.43,1.51 -1.46,1.73 l -5.18,0.92 c -6.91,1.29 -9.82,4.26 -9.82,8.74 0,5.02 3.45,8.47 8.63,8.47 3.51,0 6.42,-1.56 8.04,-3.88 v 3.29 h 5.02 v -18.18 c 0,-6.91 -4.53,-10.95 -11.38,-10.95 -6.74,-0.02 -11.38,3.92 -12.46,10.13 m -3.88,14.19 h -2.27 c -3.18,0 -4.91,-1.62 -4.91,-5.02 v -14.03 h 9.12 v -4.64 h -9.12 v -6.69 h -3.88 l -0.43,3.62 c -0.27,2.1 -1.51,3.08 -3.99,3.08 h -2.16 v 4.64 h 5.29 v 14.03 c 0,6.37 3.72,10.04 9.77,10.04 1.03,0 1.89,-0.11 2.59,-0.22 v -4.81 z m -22.28,-34.7 h -5.61 v 6.04 h 5.61 z m -5.4,39.5 h 5.18 V 524.4 h -5.18 z m -12.68,4.15 c 0,2.91 -3.24,4.96 -8.85,4.96 -5.23,0 -8.15,-1.29 -8.15,-3.99 0,-2.59 2.59,-4.1 5.83,-4.1 h 7.55 c 2.27,0 3.62,1.25 3.62,3.13 m -8.68,-28.81 c 3.67,0 6.53,2.27 6.53,6.26 0,4.21 -2.86,6.31 -6.53,6.31 -3.72,0 -6.53,-2.1 -6.53,-6.31 0,-3.99 2.8,-6.26 6.53,-6.26 m 0,38.2 c 7.88,0 13.87,-3.18 13.87,-9.77 0,-4.64 -3.02,-7.39 -8.63,-7.39 h -7.55 c -1.83,0 -3.02,-0.81 -3.02,-2.1 0,-0.92 0.65,-1.73 1.78,-2.37 1.13,0.27 2.32,0.43 3.56,0.43 6.47,0 11.71,-3.94 11.71,-10.74 0,-3.4 -1.35,-6.1 -3.45,-7.93 l 4.32,-7.12 h -5.93 l -2.1,5.07 c -1.4,-0.49 -2.91,-0.7 -4.53,-0.7 -6.47,0 -11.71,3.88 -11.71,10.68 0,4.32 2.1,7.5 5.29,9.23 -2.16,0.97 -3.56,2.81 -3.56,4.91 0,1.51 0.76,2.91 2.1,3.88 -3.13,1.24 -4.75,3.51 -4.75,6.58 -0.03,4.81 4.4,7.34 12.6,7.34 m -17.81,-53.04 h -5.61 v 6.04 h 5.61 z m -5.39,39.5 h 5.18 V 524.4 h -5.18 z m -24.28,-32.97 c 7.88,0 13.06,5.45 13.06,13.97 0,8.69 -5.18,14.19 -13.06,14.19 h -7.82 v -28.16 z m -13.01,-4.8 v 37.77 h 12.84 c 11.01,0 18.4,-7.39 18.4,-18.99 0,-11.6 -7.18,-18.78 -18.4,-18.78 z"
           clip-path="url(#SVGID_2_)"
           id="path1420"
           transform="translate(30.391775,-4.5598901)"
           style="fill:#1d1d1b" />
        <path
           class="st0"
           d="m 901.5,462.74 v 28.49 h 5.18 v -17.48 c 1.24,-3.88 3.56,-6.37 7.55,-6.37 h 2.05 v -4.64 c -0.59,-0.11 -1.4,-0.22 -2.16,-0.22 -4.05,0 -6.26,2.43 -7.45,5.67 v -5.45 z m -27.78,-3.83 h 5.29 v -6.04 h -5.29 z m 15.05,-6.04 h -5.29 v 6.04 h 5.29 z m -19.04,27.24 c 0,7.23 4.37,11.71 9.98,11.71 3.62,0 6.8,-2.05 8.31,-5.07 v 4.48 h 5.18 v -28.49 h -5.18 v 19.64 c -1.46,2.75 -3.88,4.64 -6.91,4.64 -3.78,0 -6.2,-3.08 -6.2,-7.23 v -17.05 h -5.18 z m -12.74,-17.37 v -1.03 c 0,-3.99 1.62,-5.72 6.1,-5.72 h 2.86 v -4.26 c -1.29,-0.22 -2.54,-0.32 -3.72,-0.32 -7.61,0 -10.41,4.1 -10.41,10.47 v 0.86 h -5.23 v 4.64 h 5.23 v 23.85 H 857 v -23.85 h 7.82 v -4.64 z m -47.26,24.06 v 4.42 h 21.04 v -4.8 h -14.62 l 15.05,-19.26 v -4.42 h -21.47 v 4.8 h 15.05 z m -29.08,-24.06 v 28.49 h 5.18 v -19.32 c 0.92,-2.7 3.56,-4.8 6.91,-4.8 4.1,0 6.26,3.08 6.26,7.45 v 16.67 h 5.23 v -17.05 c 0,-7.55 -4.32,-11.87 -10.14,-11.87 -3.99,0 -6.91,2 -8.25,4.91 v -4.48 z m -11.44,11.22 h -14.35 c 0.59,-4.59 3.29,-7.18 7.45,-7.18 3.93,0.01 6.36,2.6 6.9,7.18 m 5.29,2.21 c 0,-8.31 -4.91,-14.03 -12.19,-14.03 -7.88,0 -12.73,5.72 -12.73,14.46 0,9.12 4.86,15.21 13.22,15.21 6.37,0 11.11,-3.18 12.14,-8.9 l -5.02,-1.02 c -0.7,3.24 -3.35,5.29 -7.12,5.29 -4.91,0 -7.72,-3.45 -7.99,-9.12 h 19.53 c 0.05,-0.32 0.16,-1.13 0.16,-1.89 m -41.76,-13.43 v 28.49 h 5.18 v -17.48 c 1.24,-3.88 3.56,-6.37 7.55,-6.37 h 2.05 v -4.64 c -0.59,-0.11 -1.4,-0.22 -2.16,-0.22 -4.05,0 -6.26,2.43 -7.45,5.67 v -5.45 z m -11.44,11.22 h -14.35 c 0.59,-4.59 3.29,-7.18 7.45,-7.18 3.93,0.01 6.36,2.6 6.9,7.18 m 5.29,2.21 c 0,-8.31 -4.91,-14.03 -12.19,-14.03 -7.88,0 -12.73,5.72 -12.73,14.46 0,9.12 4.86,15.21 13.22,15.21 6.37,0 11.11,-3.18 12.14,-8.9 l -5.02,-1.02 c -0.7,3.24 -3.35,5.29 -7.12,5.29 -4.91,0 -7.72,-3.45 -7.99,-9.12 h 19.53 c 0.05,-0.32 0.16,-1.13 0.16,-1.89 m -34.75,-13.43 v -1.03 c 0,-3.99 1.62,-5.72 6.1,-5.72 h 2.86 v -4.26 c -1.29,-0.22 -2.54,-0.32 -3.72,-0.32 -7.61,0 -10.41,4.1 -10.41,10.47 v 0.86 h -5.23 v 4.64 h 5.23 v 23.85 h 5.18 v -23.85 h 7.82 v -4.64 z m -38.63,0 v 28.49 h 5.18 v -19.32 c 0.92,-2.7 3.56,-4.8 6.91,-4.8 4.1,0 6.26,3.08 6.26,7.45 v 16.67 h 5.23 v -17.05 c 0,-7.55 -4.32,-11.87 -10.14,-11.87 -3.99,0 -6.91,2 -8.26,4.91 v -4.48 z m -11.01,14.03 c 0,6.26 -3.67,10.25 -8.47,10.25 -4.86,0 -8.69,-3.99 -8.69,-10.25 0,-5.83 3.83,-9.82 8.69,-9.82 4.81,0 8.47,3.99 8.47,9.82 m 5.18,0 c 0,-8.79 -5.88,-14.62 -13.65,-14.62 -7.82,0 -13.87,5.83 -13.87,14.62 0,9.17 6.04,15.05 13.87,15.05 7.77,0 13.65,-5.88 13.65,-15.05 m -52.06,-23.31 v 37.77 h 5.18 v -16.94 l 12.19,16.94 h 6.04 l -13,-17.8 15.92,-19.96 h -6.15 l -15,19.05 v -19.05 h -5.18 z m -24.93,20.5 h -14.35 c 0.59,-4.59 3.29,-7.18 7.45,-7.18 3.94,0.01 6.36,2.6 6.9,7.18 m 5.29,2.21 c 0,-8.31 -4.91,-14.03 -12.19,-14.03 -7.88,0 -12.73,5.72 -12.73,14.46 0,9.12 4.86,15.21 13.22,15.21 6.37,0 11.11,-3.18 12.14,-8.9 l -5.02,-1.02 c -0.7,3.24 -3.35,5.29 -7.12,5.29 -4.91,0 -7.72,-3.45 -7.99,-9.12 h 19.53 c 0.05,-0.32 0.16,-1.13 0.16,-1.89 m -30.54,-24.44 h -5.61 v 6.04 h 5.61 z m -5.39,39.5 h 5.18 v -28.49 h -5.18 z m -24.28,-32.97 c 7.88,0 13.06,5.45 13.06,13.97 0,8.69 -5.18,14.19 -13.06,14.19 h -7.82 v -28.16 z m -13.01,-4.8 v 37.77 h 12.84 c 11.01,0 18.4,-7.39 18.4,-18.99 0,-11.6 -7.18,-18.78 -18.4,-18.78 z"
           clip-path="url(#SVGID_2_)"
           id="path1422"
           style="fill:#1d1d1b"
           transform="translate(30.391775,-0.57172964)" />
        <text
           xml:space="preserve"
           style="font-style:normal;font-variant:normal;font-weight:normal;font-stretch:normal;font-size:50.1493px;line-height:1.25;font-family:sans-serif;-inkscape-font-specification:'sans-serif, Normal';font-variant-ligatures:normal;font-variant-caps:normal;font-variant-numeric:normal;font-variant-east-asian:normal;display:inline;fill:#000000;fill-opacity:1;stroke:none;stroke-width:1.25373"
           x="532.23962"
           y="644.73596"
           id="text983"><tspan
             sodipodi:role="line"
             id="tspan981"
             x="532.23962"
             y="644.73596"
             style="font-style:normal;font-variant:normal;font-weight:normal;font-stretch:normal;font-size:50.1493px;font-family:sans-serif;-inkscape-font-specification:'sans-serif, Normal';font-variant-ligatures:normal;font-variant-caps:normal;font-variant-numeric:normal;font-variant-east-asian:normal;stroke-width:1.25373">30.9. - 2.10.2022</tspan><tspan
             sodipodi:role="line"
             x="532.23962"
             y="707.42261"
             style="font-style:normal;font-variant:normal;font-weight:normal;font-stretch:normal;font-size:50.1493px;font-family:sans-serif;-inkscape-font-specification:'sans-serif, Normal';font-variant-ligatures:normal;font-variant-caps:normal;font-variant-numeric:normal;font-variant-east-asian:normal;stroke-width:1.25373"
             id="tspan1279">Technische Universität Berlin</tspan></text>
      </g>
      <g
         id="g1446">
        <defs
           id="defs1441">
          <rect
             id="rect1479"
             x="69"
             y="65.699997"
             width="893.91998"
             height="653.29999" />
        </defs>
        <clipPath
           id="SVGID_6_">
          <use
             xlink:href="#SVGID_5_"
             style="overflow:visible"
             id="use1443"
             x="0"
             y="0"
             width="100%"
             height="100%" />
        </clipPath>
      </g>
      <g
         id="g1095"
         transform="translate(97.15591,69.445249)">
        <rect
           x="227.69"
           y="605.58002"
           class="st1"
           width="5.73"
           height="94.309998"
           id="rect1426" />
        <g
           id="g1436"
           transform="translate(0,-0.01)">
          <defs
             id="defs1429">
            <rect
               id="rect1172"
               x="69"
               y="65.699997"
               width="893.91998"
               height="653.29999" />
          </defs>
          <clipPath
             id="clipPath1146">
            <use
               xlink:href="#SVGID_3_"
               style="overflow:visible"
               id="use1144"
               x="0"
               y="0"
               width="100%"
               height="100%" />
          </clipPath>
          <path
             class="st2"
             d="M 227.69,614.58 C 137.11,609.02 69,527.24 69,422.47 69,292.38 149.39,200.49 227.69,120.59 Z"
             clip-path="url(#SVGID_4_)"
             id="path1434" />
        </g>
        <path
           class="st1"
           d="m 282.58,395.03 h 54.89 v 54.89 H 282.58 Z M 227.69,175.47 v 439.1 h 54.89 v -54.89 h 54.89 V 504.8 h 54.89 v -54.89 h 54.89 v -54.89 h -54.89 v -54.89 h -54.89 v -54.89 h -54.89 v -54.89 h 54.89 v 54.89 h 54.89 V 230.35 H 337.47 V 175.46 H 227.69 Z m 109.77,0 h 54.89 V 120.58 H 337.46 Z M 227.69,120.59 h 54.89 V 65.7 h -54.89 z m 164.66,0 h 54.89 V 65.7 h -54.89 z"
           id="path1438" />
      </g>
    </g>
  </g>
  <g
     inkscape:groupmode="layer"
     id="layer2"
     inkscape:label="Text">
    <text
       xml:space="preserve"
       style="font-style:normal;font-variant:normal;font-weight:normal;font-stretch:normal;font-size:9.525px;line-height:1.25;font-family:sans-serif;-inkscape-font-specification:'sans-serif, Normal';font-variant-ligatures:normal;font-variant-caps:normal;font-variant-numeric:normal;font-variant-east-asian:normal;display:inline;fill:#a1c854;fill-opacity:1;stroke:none;stroke-width:0.264583"
       x="116.88977"
       y="153.63557"
       id="text987"><tspan
         sodipodi:role="line"
         id="tspan985"
         x="116.88977"
         y="153.63557"
         style="font-style:normal;font-variant:normal;font-weight:normal;font-stretch:normal;font-size:9.525px;font-family:sans-serif;-inkscape-font-specification:'sans-serif, Normal';font-variant-ligatures:normal;font-variant-caps:normal;font-variant-numeric:normal;font-variant-east-asian:normal;fill:#a1c854;fill-opacity:1;stroke-width:0.264583"><tspan
   style="font-style:normal;font-variant:normal;font-weight:normal;font-stretch:normal;font-size:9.525px;font-family:sans-serif;-inkscape-font-specification:'sans-serif, Normal';font-variant-ligatures:normal;font-variant-caps:normal;font-variant-numeric:normal;font-variant-east-asian:normal;fill:#000000"
   id="tspan1191">Mehr unter: </tspan>bits-und-baeume.org</tspan></text>
  </g>
  <style
     type="text/css"
     id="style1406">
	.st0{clip-path:url(#SVGID_2_);fill:#1D1D1B;}
	.st1{fill:#A1C854;}
	.st2{clip-path:url(#SVGID_4_);fill:#C1D98D;}
</style>
</svg>
