<svg width="184" height="55" viewBox="0 0 184 55" fill="none" xmlns="http://www.w3.org/2000/svg">
<path d="M82.25 32.98C82.99 32.98 83.6367 33.1267 84.19 33.42C84.7433 33.7133 85.17 34.1267 85.47 34.66C85.7767 35.1867 85.93 35.7967 85.93 36.49C85.93 37.1767 85.7767 37.7867 85.47 38.32C85.17 38.8533 84.74 39.2667 84.18 39.56C83.6267 39.8533 82.9833 40 82.25 40H79.62V32.98H82.25ZM82.14 38.52C82.7867 38.52 83.29 38.3433 83.65 37.99C84.01 37.6367 84.19 37.1367 84.19 36.49C84.19 35.8433 84.01 35.34 83.65 34.98C83.29 34.62 82.7867 34.44 82.14 34.44H81.33V38.52H82.14ZM92.1456 37.12C92.1456 37.28 92.1356 37.4467 92.1156 37.62H88.2456C88.2723 37.9667 88.3823 38.2333 88.5756 38.42C88.7756 38.6 89.019 38.69 89.3056 38.69C89.7323 38.69 90.029 38.51 90.1956 38.15H92.0156C91.9223 38.5167 91.7523 38.8467 91.5056 39.14C91.2656 39.4333 90.9623 39.6633 90.5956 39.83C90.229 39.9967 89.819 40.08 89.3656 40.08C88.819 40.08 88.3323 39.9633 87.9056 39.73C87.479 39.4967 87.1456 39.1633 86.9056 38.73C86.6656 38.2967 86.5456 37.79 86.5456 37.21C86.5456 36.63 86.6623 36.1233 86.8956 35.69C87.1356 35.2567 87.469 34.9233 87.8956 34.69C88.3223 34.4567 88.8123 34.34 89.3656 34.34C89.9056 34.34 90.3856 34.4533 90.8056 34.68C91.2256 34.9067 91.5523 35.23 91.7856 35.65C92.0256 36.07 92.1456 36.56 92.1456 37.12ZM90.3956 36.67C90.3956 36.3767 90.2956 36.1433 90.0956 35.97C89.8956 35.7967 89.6456 35.71 89.3456 35.71C89.059 35.71 88.8156 35.7933 88.6156 35.96C88.4223 36.1267 88.3023 36.3633 88.2556 36.67H90.3956ZM98.5577 34.42V40H96.8477V39.24C96.6744 39.4867 96.4377 39.6867 96.1377 39.84C95.8444 39.9867 95.5177 40.06 95.1577 40.06C94.7311 40.06 94.3544 39.9667 94.0277 39.78C93.7011 39.5867 93.4477 39.31 93.2677 38.95C93.0877 38.59 92.9977 38.1667 92.9977 37.68V34.42H94.6977V37.45C94.6977 37.8233 94.7944 38.1133 94.9877 38.32C95.1811 38.5267 95.4411 38.63 95.7677 38.63C96.1011 38.63 96.3644 38.5267 96.5577 38.32C96.7511 38.1133 96.8477 37.8233 96.8477 37.45V34.42H98.5577ZM102.896 38.55V40H102.026C101.406 40 100.923 39.85 100.576 39.55C100.229 39.2433 100.056 38.7467 100.056 38.06V35.84H99.376V34.42H100.056V33.06H101.766V34.42H102.886V35.84H101.766V38.08C101.766 38.2467 101.806 38.3667 101.886 38.44C101.966 38.5133 102.099 38.55 102.286 38.55H102.896ZM106.119 40.08C105.632 40.08 105.199 39.9967 104.819 39.83C104.439 39.6633 104.139 39.4367 103.919 39.15C103.699 38.8567 103.575 38.53 103.549 38.17H105.239C105.259 38.3633 105.349 38.52 105.509 38.64C105.669 38.76 105.865 38.82 106.099 38.82C106.312 38.82 106.475 38.78 106.589 38.7C106.709 38.6133 106.769 38.5033 106.769 38.37C106.769 38.21 106.685 38.0933 106.519 38.02C106.352 37.94 106.082 37.8533 105.709 37.76C105.309 37.6667 104.975 37.57 104.709 37.47C104.442 37.3633 104.212 37.2 104.019 36.98C103.825 36.7533 103.729 36.45 103.729 36.07C103.729 35.75 103.815 35.46 103.989 35.2C104.169 34.9333 104.429 34.7233 104.769 34.57C105.115 34.4167 105.525 34.34 105.999 34.34C106.699 34.34 107.249 34.5133 107.649 34.86C108.055 35.2067 108.289 35.6667 108.349 36.24H106.769C106.742 36.0467 106.655 35.8933 106.509 35.78C106.369 35.6667 106.182 35.61 105.949 35.61C105.749 35.61 105.595 35.65 105.489 35.73C105.382 35.8033 105.329 35.9067 105.329 36.04C105.329 36.2 105.412 36.32 105.579 36.4C105.752 36.48 106.019 36.56 106.379 36.64C106.792 36.7467 107.129 36.8533 107.389 36.96C107.649 37.06 107.875 37.2267 108.069 37.46C108.269 37.6867 108.372 37.9933 108.379 38.38C108.379 38.7067 108.285 39 108.099 39.26C107.919 39.5133 107.655 39.7133 107.309 39.86C106.969 40.0067 106.572 40.08 106.119 40.08ZM109.085 37.21C109.085 36.63 109.201 36.1233 109.435 35.69C109.675 35.2567 110.005 34.9233 110.425 34.69C110.851 34.4567 111.338 34.34 111.885 34.34C112.585 34.34 113.168 34.5233 113.635 34.89C114.108 35.2567 114.418 35.7733 114.565 36.44H112.745C112.591 36.0133 112.295 35.8 111.855 35.8C111.541 35.8 111.291 35.9233 111.105 36.17C110.918 36.41 110.825 36.7567 110.825 37.21C110.825 37.6633 110.918 38.0133 111.105 38.26C111.291 38.5 111.541 38.62 111.855 38.62C112.295 38.62 112.591 38.4067 112.745 37.98H114.565C114.418 38.6333 114.108 39.1467 113.635 39.52C113.161 39.8933 112.578 40.08 111.885 40.08C111.338 40.08 110.851 39.9633 110.425 39.73C110.005 39.4967 109.675 39.1633 109.435 38.73C109.201 38.2967 109.085 37.79 109.085 37.21ZM118.909 34.36C119.549 34.36 120.063 34.5733 120.449 35C120.836 35.42 121.029 36 121.029 36.74V40H119.329V36.97C119.329 36.5967 119.233 36.3067 119.039 36.1C118.846 35.8933 118.586 35.79 118.259 35.79C117.933 35.79 117.673 35.8933 117.479 36.1C117.286 36.3067 117.189 36.5967 117.189 36.97V40H115.479V32.6H117.189V35.17C117.363 34.9233 117.599 34.7267 117.899 34.58C118.199 34.4333 118.536 34.36 118.909 34.36ZM127.478 37.12C127.478 37.28 127.468 37.4467 127.448 37.62H123.578C123.604 37.9667 123.714 38.2333 123.908 38.42C124.108 38.6 124.351 38.69 124.638 38.69C125.064 38.69 125.361 38.51 125.528 38.15H127.348C127.254 38.5167 127.084 38.8467 126.838 39.14C126.598 39.4333 126.294 39.6633 125.928 39.83C125.561 39.9967 125.151 40.08 124.698 40.08C124.151 40.08 123.664 39.9633 123.238 39.73C122.811 39.4967 122.478 39.1633 122.238 38.73C121.998 38.2967 121.878 37.79 121.878 37.21C121.878 36.63 121.994 36.1233 122.228 35.69C122.468 35.2567 122.801 34.9233 123.228 34.69C123.654 34.4567 124.144 34.34 124.698 34.34C125.238 34.34 125.718 34.4533 126.138 34.68C126.558 34.9067 126.884 35.23 127.118 35.65C127.358 36.07 127.478 36.56 127.478 37.12ZM125.728 36.67C125.728 36.3767 125.628 36.1433 125.428 35.97C125.228 35.7967 124.978 35.71 124.678 35.71C124.391 35.71 124.148 35.7933 123.948 35.96C123.754 36.1267 123.634 36.3633 123.588 36.67H125.728ZM130.09 35.35C130.29 35.0433 130.54 34.8033 130.84 34.63C131.14 34.45 131.473 34.36 131.84 34.36V36.17H131.37C130.943 36.17 130.623 36.2633 130.41 36.45C130.196 36.63 130.09 36.95 130.09 37.41V40H128.38V34.42H130.09V35.35ZM84.28 46.2C84.1533 45.9667 83.97 45.79 83.73 45.67C83.4967 45.5433 83.22 45.48 82.9 45.48C82.3467 45.48 81.9033 45.6633 81.57 46.03C81.2367 46.39 81.07 46.8733 81.07 47.48C81.07 48.1267 81.2433 48.6333 81.59 49C81.9433 49.36 82.4267 49.54 83.04 49.54C83.46 49.54 83.8133 49.4333 84.1 49.22C84.3933 49.0067 84.6067 48.7 84.74 48.3H82.57V47.04H86.29V48.63C86.1633 49.0567 85.9467 49.4533 85.64 49.82C85.34 50.1867 84.9567 50.4833 84.49 50.71C84.0233 50.9367 83.4967 51.05 82.91 51.05C82.2167 51.05 81.5967 50.9 81.05 50.6C80.51 50.2933 80.0867 49.87 79.78 49.33C79.48 48.79 79.33 48.1733 79.33 47.48C79.33 46.7867 79.48 46.17 79.78 45.63C80.0867 45.0833 80.51 44.66 81.05 44.36C81.59 44.0533 82.2067 43.9 82.9 43.9C83.74 43.9 84.4467 44.1033 85.02 44.51C85.6 44.9167 85.9833 45.48 86.17 46.2H84.28ZM92.4972 48.12C92.4972 48.28 92.4872 48.4467 92.4672 48.62H88.5972C88.6239 48.9667 88.7339 49.2333 88.9272 49.42C89.1272 49.6 89.3705 49.69 89.6572 49.69C90.0839 49.69 90.3805 49.51 90.5472 49.15H92.3672C92.2739 49.5167 92.1039 49.8467 91.8572 50.14C91.6172 50.4333 91.3139 50.6633 90.9472 50.83C90.5805 50.9967 90.1705 51.08 89.7172 51.08C89.1705 51.08 88.6839 50.9633 88.2572 50.73C87.8305 50.4967 87.4972 50.1633 87.2572 49.73C87.0172 49.2967 86.8972 48.79 86.8972 48.21C86.8972 47.63 87.0139 47.1233 87.2472 46.69C87.4872 46.2567 87.8205 45.9233 88.2472 45.69C88.6739 45.4567 89.1639 45.34 89.7172 45.34C90.2572 45.34 90.7372 45.4533 91.1572 45.68C91.5772 45.9067 91.9039 46.23 92.1372 46.65C92.3772 47.07 92.4972 47.56 92.4972 48.12ZM90.7472 47.67C90.7472 47.3767 90.6472 47.1433 90.4472 46.97C90.2472 46.7967 89.9972 46.71 89.6972 46.71C89.4105 46.71 89.1672 46.7933 88.9672 46.96C88.7739 47.1267 88.6539 47.3633 88.6072 47.67H90.7472ZM101.409 45.42L99.8993 51H98.0093L97.1293 47.38L96.2193 51H94.3393L92.8193 45.42H94.5293L95.3193 49.41L96.2593 45.42H98.0693L99.0193 49.39L99.7993 45.42H101.409ZM107.321 48.12C107.321 48.28 107.311 48.4467 107.291 48.62H103.421C103.448 48.9667 103.558 49.2333 103.751 49.42C103.951 49.6 104.195 49.69 104.481 49.69C104.908 49.69 105.205 49.51 105.371 49.15H107.191C107.098 49.5167 106.928 49.8467 106.681 50.14C106.441 50.4333 106.138 50.6633 105.771 50.83C105.405 50.9967 104.995 51.08 104.541 51.08C103.995 51.08 103.508 50.9633 103.081 50.73C102.655 50.4967 102.321 50.1633 102.081 49.73C101.841 49.2967 101.721 48.79 101.721 48.21C101.721 47.63 101.838 47.1233 102.071 46.69C102.311 46.2567 102.645 45.9233 103.071 45.69C103.498 45.4567 103.988 45.34 104.541 45.34C105.081 45.34 105.561 45.4533 105.981 45.68C106.401 45.9067 106.728 46.23 106.961 46.65C107.201 47.07 107.321 47.56 107.321 48.12ZM105.571 47.67C105.571 47.3767 105.471 47.1433 105.271 46.97C105.071 46.7967 104.821 46.71 104.521 46.71C104.235 46.71 103.991 46.7933 103.791 46.96C103.598 47.1267 103.478 47.3633 103.431 47.67H105.571ZM109.934 46.35C110.134 46.0433 110.384 45.8033 110.684 45.63C110.984 45.45 111.317 45.36 111.684 45.36V47.17H111.214C110.787 47.17 110.467 47.2633 110.254 47.45C110.04 47.63 109.934 47.95 109.934 48.41V51H108.224V45.42H109.934V46.35ZM115.911 51L114.211 48.66V51H112.501V43.6H114.211V47.69L115.901 45.42H118.011L115.691 48.22L118.031 51H115.911ZM120.953 51.08C120.466 51.08 120.033 50.9967 119.653 50.83C119.273 50.6633 118.973 50.4367 118.753 50.15C118.533 49.8567 118.409 49.53 118.383 49.17H120.073C120.093 49.3633 120.183 49.52 120.343 49.64C120.503 49.76 120.699 49.82 120.933 49.82C121.146 49.82 121.309 49.78 121.423 49.7C121.543 49.6133 121.603 49.5033 121.603 49.37C121.603 49.21 121.519 49.0933 121.353 49.02C121.186 48.94 120.916 48.8533 120.543 48.76C120.143 48.6667 119.809 48.57 119.543 48.47C119.276 48.3633 119.046 48.2 118.853 47.98C118.659 47.7533 118.563 47.45 118.563 47.07C118.563 46.75 118.649 46.46 118.823 46.2C119.003 45.9333 119.263 45.7233 119.603 45.57C119.949 45.4167 120.359 45.34 120.833 45.34C121.533 45.34 122.083 45.5133 122.483 45.86C122.889 46.2067 123.123 46.6667 123.183 47.24H121.603C121.576 47.0467 121.489 46.8933 121.343 46.78C121.203 46.6667 121.016 46.61 120.783 46.61C120.583 46.61 120.429 46.65 120.323 46.73C120.216 46.8033 120.163 46.9067 120.163 47.04C120.163 47.2 120.246 47.32 120.413 47.4C120.586 47.48 120.853 47.56 121.213 47.64C121.626 47.7467 121.963 47.8533 122.223 47.96C122.483 48.06 122.709 48.2267 122.903 48.46C123.103 48.6867 123.206 48.9933 123.213 49.38C123.213 49.7067 123.119 50 122.933 50.26C122.753 50.5133 122.489 50.7133 122.143 50.86C121.803 51.0067 121.406 51.08 120.953 51.08ZM123.919 48.21C123.919 47.63 124.035 47.1233 124.269 46.69C124.509 46.2567 124.839 45.9233 125.259 45.69C125.685 45.4567 126.172 45.34 126.719 45.34C127.419 45.34 128.002 45.5233 128.469 45.89C128.942 46.2567 129.252 46.7733 129.399 47.44H127.579C127.425 47.0133 127.129 46.8 126.689 46.8C126.375 46.8 126.125 46.9233 125.939 47.17C125.752 47.41 125.659 47.7567 125.659 48.21C125.659 48.6633 125.752 49.0133 125.939 49.26C126.125 49.5 126.375 49.62 126.689 49.62C127.129 49.62 127.425 49.4067 127.579 48.98H129.399C129.252 49.6333 128.942 50.1467 128.469 50.52C127.995 50.8933 127.412 51.08 126.719 51.08C126.172 51.08 125.685 50.9633 125.259 50.73C124.839 50.4967 124.509 50.1633 124.269 49.73C124.035 49.2967 123.919 48.79 123.919 48.21ZM133.743 45.36C134.383 45.36 134.897 45.5733 135.283 46C135.67 46.42 135.863 47 135.863 47.74V51H134.163V47.97C134.163 47.5967 134.067 47.3067 133.873 47.1C133.68 46.8933 133.42 46.79 133.093 46.79C132.767 46.79 132.507 46.8933 132.313 47.1C132.12 47.3067 132.023 47.5967 132.023 47.97V51H130.313V43.6H132.023V46.17C132.197 45.9233 132.433 45.7267 132.733 45.58C133.033 45.4333 133.37 45.36 133.743 45.36ZM136.712 48.2C136.712 47.6267 136.818 47.1233 137.032 46.69C137.252 46.2567 137.548 45.9233 137.922 45.69C138.295 45.4567 138.712 45.34 139.172 45.34C139.565 45.34 139.908 45.42 140.202 45.58C140.502 45.74 140.732 45.95 140.892 46.21V45.42H142.602V51H140.892V50.21C140.725 50.47 140.492 50.68 140.192 50.84C139.898 51 139.555 51.08 139.162 51.08C138.708 51.08 138.295 50.9633 137.922 50.73C137.548 50.49 137.252 50.1533 137.032 49.72C136.818 49.28 136.712 48.7733 136.712 48.2ZM140.892 48.21C140.892 47.7833 140.772 47.4467 140.532 47.2C140.298 46.9533 140.012 46.83 139.672 46.83C139.332 46.83 139.042 46.9533 138.802 47.2C138.568 47.44 138.452 47.7733 138.452 48.2C138.452 48.6267 138.568 48.9667 138.802 49.22C139.042 49.4667 139.332 49.59 139.672 49.59C140.012 49.59 140.298 49.4667 140.532 49.22C140.772 48.9733 140.892 48.6367 140.892 48.21ZM146.639 46.84H145.719V51H144.009V46.84H143.389V45.42H144.009V45.26C144.009 44.5733 144.205 44.0533 144.599 43.7C144.992 43.34 145.569 43.16 146.329 43.16C146.455 43.16 146.549 43.1633 146.609 43.17V44.62C146.282 44.6 146.052 44.6467 145.919 44.76C145.785 44.8733 145.719 45.0767 145.719 45.37V45.42H146.639V46.84ZM150.552 49.55V51H149.682C149.062 51 148.579 50.85 148.232 50.55C147.886 50.2433 147.712 49.7467 147.712 49.06V46.84H147.032V45.42H147.712V44.06H149.422V45.42H150.542V46.84H149.422V49.08C149.422 49.2467 149.462 49.3667 149.542 49.44C149.622 49.5133 149.756 49.55 149.942 49.55H150.552ZM153.775 51.08C153.288 51.08 152.855 50.9967 152.475 50.83C152.095 50.6633 151.795 50.4367 151.575 50.15C151.355 49.8567 151.231 49.53 151.205 49.17H152.895C152.915 49.3633 153.005 49.52 153.165 49.64C153.325 49.76 153.521 49.82 153.755 49.82C153.968 49.82 154.131 49.78 154.245 49.7C154.365 49.6133 154.425 49.5033 154.425 49.37C154.425 49.21 154.341 49.0933 154.175 49.02C154.008 48.94 153.738 48.8533 153.365 48.76C152.965 48.6667 152.631 48.57 152.365 48.47C152.098 48.3633 151.868 48.2 151.675 47.98C151.481 47.7533 151.385 47.45 151.385 47.07C151.385 46.75 151.471 46.46 151.645 46.2C151.825 45.9333 152.085 45.7233 152.425 45.57C152.771 45.4167 153.181 45.34 153.655 45.34C154.355 45.34 154.905 45.5133 155.305 45.86C155.711 46.2067 155.945 46.6667 156.005 47.24H154.425C154.398 47.0467 154.311 46.8933 154.165 46.78C154.025 46.6667 153.838 46.61 153.605 46.61C153.405 46.61 153.251 46.65 153.145 46.73C153.038 46.8033 152.985 46.9067 152.985 47.04C152.985 47.2 153.068 47.32 153.235 47.4C153.408 47.48 153.675 47.56 154.035 47.64C154.448 47.7467 154.785 47.8533 155.045 47.96C155.305 48.06 155.531 48.2267 155.725 48.46C155.925 48.6867 156.028 48.9933 156.035 49.38C156.035 49.7067 155.941 50 155.755 50.26C155.575 50.5133 155.311 50.7133 154.965 50.86C154.625 51.0067 154.228 51.08 153.775 51.08ZM158.791 46.21C158.951 45.95 159.181 45.74 159.481 45.58C159.781 45.42 160.124 45.34 160.511 45.34C160.971 45.34 161.388 45.4567 161.761 45.69C162.134 45.9233 162.428 46.2567 162.641 46.69C162.861 47.1233 162.971 47.6267 162.971 48.2C162.971 48.7733 162.861 49.28 162.641 49.72C162.428 50.1533 162.134 50.49 161.761 50.73C161.388 50.9633 160.971 51.08 160.511 51.08C160.118 51.08 159.774 51.0033 159.481 50.85C159.188 50.69 158.958 50.48 158.791 50.22V51H157.081V43.6H158.791V46.21ZM161.231 48.2C161.231 47.7733 161.111 47.44 160.871 47.2C160.638 46.9533 160.348 46.83 160.001 46.83C159.661 46.83 159.371 46.9533 159.131 47.2C158.898 47.4467 158.781 47.7833 158.781 48.21C158.781 48.6367 158.898 48.9733 159.131 49.22C159.371 49.4667 159.661 49.59 160.001 49.59C160.341 49.59 160.631 49.4667 160.871 49.22C161.111 48.9667 161.231 48.6267 161.231 48.2ZM169.378 45.42V51H167.668V50.24C167.495 50.4867 167.258 50.6867 166.958 50.84C166.665 50.9867 166.338 51.06 165.978 51.06C165.551 51.06 165.175 50.9667 164.848 50.78C164.521 50.5867 164.268 50.31 164.088 49.95C163.908 49.59 163.818 49.1667 163.818 48.68V45.42H165.518V48.45C165.518 48.8233 165.615 49.1133 165.808 49.32C166.001 49.5267 166.261 49.63 166.588 49.63C166.921 49.63 167.185 49.5267 167.378 49.32C167.571 49.1133 167.668 48.8233 167.668 48.45V45.42H169.378ZM174.006 45.36C174.66 45.36 175.18 45.5733 175.566 46C175.96 46.42 176.156 47 176.156 47.74V51H174.456V47.97C174.456 47.5967 174.36 47.3067 174.166 47.1C173.973 46.8933 173.713 46.79 173.386 46.79C173.06 46.79 172.8 46.8933 172.606 47.1C172.413 47.3067 172.316 47.5967 172.316 47.97V51H170.606V45.42H172.316V46.16C172.49 45.9133 172.723 45.72 173.016 45.58C173.31 45.4333 173.64 45.36 174.006 45.36ZM177.005 48.2C177.005 47.6267 177.111 47.1233 177.325 46.69C177.545 46.2567 177.841 45.9233 178.215 45.69C178.588 45.4567 179.005 45.34 179.465 45.34C179.831 45.34 180.165 45.4167 180.465 45.57C180.771 45.7233 181.011 45.93 181.185 46.19V43.6H182.895V51H181.185V50.2C181.025 50.4667 180.795 50.68 180.495 50.84C180.201 51 179.858 51.08 179.465 51.08C179.005 51.08 178.588 50.9633 178.215 50.73C177.841 50.49 177.545 50.1533 177.325 49.72C177.111 49.28 177.005 48.7733 177.005 48.2ZM181.185 48.21C181.185 47.7833 181.065 47.4467 180.825 47.2C180.591 46.9533 180.305 46.83 179.965 46.83C179.625 46.83 179.335 46.9533 179.095 47.2C178.861 47.44 178.745 47.7733 178.745 48.2C178.745 48.6267 178.861 48.9667 179.095 49.22C179.335 49.4667 179.625 49.59 179.965 49.59C180.305 49.59 180.591 49.4667 180.825 49.22C181.065 48.9733 181.185 48.6367 181.185 48.21Z" fill="#3A2D7B"/>
<path d="M27.5127 0L0 55H61.4865L89 0H27.5127Z" fill="#ED1B29"/>
<path d="M20.7747 46.7853H17.5624V37.1459H20.7747C22.3897 37.1459 23.6167 37.6403 24.4221 38.6157C25.2616 39.6318 25.4379 40.9296 25.4379 41.839C25.4379 43.3262 24.9833 46.7853 20.7747 46.7853ZM20.7747 34H14V50H20.7747C23.4463 50 25.6195 49.1402 27.0592 47.5135C28.3108 46.099 29 44.1002 29 41.8851C29 38.0732 26.8392 34 20.7747 34Z" fill="white"/>
<path d="M41.9945 46.1195L41.9754 46.134C40.6604 47.1361 39.5389 47.2742 38.5225 47.2742C36.8096 47.2742 35.4307 46.6694 34.5355 45.5253C33.5644 44.2842 33.4193 42.8055 33.4193 42.0345C33.4193 38.6461 35.2793 36.7027 38.5225 36.7027C39.9199 36.7027 41.3584 37.2426 42.29 38.114L44.4521 35.9431C42.7962 34.254 40.9654 33.5 38.5225 33.5C35.7913 33.5 33.5561 34.389 32.0587 36.0708C30.7311 37.5619 30 39.6801 30 42.0345C30 46.127 32.2329 50.5 38.4996 50.5C41.4393 50.5 43.6261 49.5021 45 47.5336V40.5602H38.1571V43.4628H41.9945V46.1195Z" fill="white"/>
<path d="M54.935 46.9692H50.4435V43.1474H54.8888C56.4407 43.1474 57.3671 43.8704 57.3671 45.0814C57.3671 46.2987 56.5033 46.9692 54.935 46.9692ZM50.4435 37.008H54.935C56.2352 37.008 57.0431 37.6521 57.0431 38.6889C57.0431 39.6985 56.2781 40.2547 54.8888 40.2547H50.4435V37.008ZM58.3899 41.6543L58.2785 41.6146L58.386 41.5653C60.1414 40.7582 60.5098 39.3556 60.5098 38.3207C60.5098 35.1351 57.6301 34 54.935 34H47V50H55.0739C58.4465 50 60.4704 48.7097 60.9271 46.2683C61.2391 44.5941 60.5781 42.4363 58.3899 41.6543Z" fill="white"/>
</svg>