<?xml version="1.0" encoding="UTF-8"?>
<svg id="Ebene_1" data-name="Ebene 1" xmlns="http://www.w3.org/2000/svg" viewBox="0 0 824.3 194.5">
  <defs>
    <style>
      .cls-1 {
        letter-spacing: 0em;
      }

      .cls-2 {
        letter-spacing: 0em;
      }

      .cls-3 {
        letter-spacing: 0em;
      }

      .cls-4 {
        letter-spacing: 0em;
      }

      .cls-5 {
        fill: #010100;
        font-family: AtkinsonHyperlegible-Regular, 'Atkinson Hyperlegible';
        font-size: 44px;
      }

      .cls-6 {
        letter-spacing: 0em;
      }

      .cls-7 {
        letter-spacing: 0em;
      }

      .cls-8 {
        letter-spacing: 0em;
      }

      .cls-9, .cls-10, .cls-11, .cls-12 {
        stroke-width: 0px;
      }

      .cls-10 {
        fill: #24a47a;
      }

      .cls-11 {
        fill: #0c5940;
      }

      .cls-12 {
        fill: #b58fff;
      }

      .cls-13 {
        letter-spacing: 0em;
      }
    </style>
  </defs>
  <path class="cls-10" d="M104.2,187.4c-20.8,0-39.5-3.9-55.5-11.7-16.6-8-29.7-19.4-39-34l28.5-18.3c6,9.3,14.3,16.5,25.3,21.8,11.4,5.5,25.1,8.3,40.8,8.3s29.4-2.8,40.8-8.3c11-5.3,19.3-12.4,25.3-21.8,5.9-9.2,8.8-20,8.8-32.8s-2.9-23.5-8.8-32.8c-6-9.4-14.3-16.5-25.3-21.8l14.7-30.5c16.6,8,29.7,19.4,39,34,9.4,14.6,14.2,31.8,14.2,51.1s-4.8,36.4-14.2,51.1c-9.3,14.5-22.5,26-39,34-16,7.7-34.7,11.7-55.5,11.7Z"/>
  <path class="cls-11" d="M104.3,163.9c-15.4,0-29.3-2.9-41.3-8.7-12.5-6-22.5-14.7-29.6-25.8-7.2-11.2-10.8-24.2-10.8-38.7s3.6-27.6,10.8-38.7c7.1-11.1,17-19.7,29.6-25.8,12-5.8,25.9-8.7,41.3-8.7v33.8c-10.3,0-19.2,1.8-26.6,5.4-6.9,3.3-12.1,7.8-15.8,13.6-3.7,5.7-5.4,12.4-5.4,20.4s1.8,14.8,5.4,20.4c3.7,5.8,8.9,10.2,15.8,13.6,7.4,3.6,16.3,5.4,26.6,5.4v33.8Z"/>
  <path class="cls-12" d="M57.4,116.8c-4.9-7.6-7.4-16.4-7.4-26.2s2.5-18.6,7.4-26.2c4.8-7.5,11.5-13.4,20-17.4,7.9-3.8,16.9-5.7,26.9-5.7s19,1.9,26.9,5.7c8.4,4.1,15.1,9.9,20,17.4l-28.5,18.3c-1.4-2.2-3.4-3.9-6.2-5.2-3.3-1.6-7.4-2.4-12.2-2.4s-8.9.8-12.2,2.4c-2.8,1.3-4.8,3-6.2,5.2-1.3,2.1-2,4.7-2,7.9s.7,5.8,2,7.9l-28.5,18.3Z"/>
  <g>
    <path class="cls-9" d="M226.4,93.5V19.2h22.9v56.1l-5.9-4.9,39.5-51.3h24.2l-59.7,74.2h-20.9ZM261.9,58.7l16.9-13.7,29.2,48.4h-26.1l-20-34.7Z"/>
    <path class="cls-9" d="M350.2,95.1c-8.9,0-16.7-1.6-23.4-4.9-6.7-3.2-11.9-7.8-15.6-13.6-3.7-5.8-5.6-12.6-5.6-20.4s1.9-14.6,5.6-20.4c3.7-5.8,8.9-10.3,15.6-13.6,6.7-3.2,14.5-4.9,23.4-4.9s16.7,1.6,23.4,4.9c6.7,3.2,11.9,7.8,15.6,13.6,3.7,5.8,5.6,12.6,5.6,20.4s-1.9,14.6-5.6,20.4c-3.7,5.8-8.9,10.3-15.6,13.6-6.7,3.2-14.5,4.9-23.4,4.9ZM350.2,74.6c4.4,0,8.2-.7,11.4-2.2,3.2-1.5,5.7-3.6,7.4-6.3,1.7-2.7,2.6-6,2.6-9.8s-.9-7-2.6-9.8c-1.7-2.7-4.2-4.9-7.4-6.3-3.2-1.5-7-2.2-11.4-2.2s-8.2.7-11.4,2.2-5.7,3.6-7.4,6.3c-1.7,2.7-2.6,6-2.6,9.8s.9,7,2.6,9.8c1.7,2.7,4.2,4.9,7.4,6.3s7,2.2,11.4,2.2Z"/>
    <path class="cls-9" d="M473.5,77l-6.6,1.4V19.2h22.4v74.2h-28.9l-39.9-59.2,6.5-1.4v60.6h-22.3V19.2h29.8l39,57.8Z"/>
    <path class="cls-9" d="M499.7,93.5v-16.5l46.5-44.4,17.1,4.5h-63.3v-17.9h72v16.5l-46.4,44.5-14.6-4.5h61.3v17.8h-72.7Z"/>
    <path class="cls-9" d="M608.5,56.3l-4.7,28.7-9-10h56.5v18.4h-70.4l5.5-37.1-5.5-37.1h69.9v18.4h-56l9-10,4.7,28.7ZM647.9,48.2v16.2h-55.1v-16.2h55.1Z"/>
    <path class="cls-9" d="M705,19.2c6.5,0,12,1.1,16.7,3.3,4.7,2.2,8.2,5.2,10.6,9.2,2.4,3.9,3.7,8.6,3.7,13.9s-1.2,9.9-3.7,13.9c-2.4,4-6,7-10.6,9.2-4.7,2.2-10.2,3.3-16.7,3.3h-31.8v-18.2h30.3c2.9,0,5.2-.7,6.8-2.2,1.6-1.5,2.4-3.4,2.4-5.9s-.8-4.7-2.4-6c-1.6-1.4-3.9-2.1-6.8-2.1h-28.3l10.4-10.5v66.5h-23.1V19.2h42.5Z"/>
    <path class="cls-9" d="M739.5,19.2h78.1v20.5h-78.1v-20.5ZM767,29.2h23.1v64.3h-23.1V29.2Z"/>
    <path class="cls-9" d="M351.7,168.5h-9.9c0,0-2-64.3-2-64.3h24.4l.2,74.2h-29.6l-42.4-61.9h9.2l1.6,61.9h-29.6l-43.8-74.2h24.5l39,64.3h-7.8c0,0-1.6-64.3-1.6-64.3h28.3l39.6,64.3Z"/>
    <path class="cls-9" d="M401.9,141.3l-4.7,28.7-9-10h56.5v18.4h-70.4l5.5-37.1-5.5-37.1h69.9v18.4h-56l9-10,4.7,28.7ZM441.3,133.2v16.2h-55.1v-16.2h55.1Z"/>
    <path class="cls-9" d="M471.9,136.3h25.9c2.9,0,5.2-.7,6.8-2,1.6-1.3,2.4-3.2,2.4-5.7s-.8-4.4-2.4-5.7c-1.6-1.3-3.9-2-6.8-2h-29.2l10.4-10.7v68.3h-23.1v-74.2h45.3c5.7,0,10.8,1,15.1,3.1,4.4,2,7.8,4.9,10.2,8.5,2.4,3.6,3.7,7.9,3.7,12.8s-1.2,9-3.7,12.6c-2.4,3.7-5.8,6.5-10.2,8.5-4.4,2-9.4,3-15.1,3h-29.4v-16.4ZM481.8,143.7h25.6l25.5,34.7h-26.4l-24.8-34.7Z"/>
    <path class="cls-9" d="M540.4,178.5v-74.2h22.9v56.1l-5.9-4.9,39.5-51.3h24.2l-59.7,74.2h-20.9ZM576,143.7l16.9-13.7,29.2,48.4h-26.1l-20-34.7Z"/>
  </g>
  <text class="cls-5" transform="translate(628.5 137)"><tspan class="cls-7" x="0" y="0">n</tspan><tspan class="cls-13" x="23.4" y="0">e</tspan><tspan class="cls-6" x="46.5" y="0">u</tspan><tspan class="cls-3" x="69.5" y="0">e</tspan><tspan class="cls-8" x="0" y="42">รถ</tspan><tspan class="cls-2" x="23.7" y="42">k</tspan><tspan class="cls-8" x="43.5" y="42">o</tspan><tspan class="cls-7" x="67.2" y="42">n</tspan><tspan class="cls-8" x="90.6" y="42">o</tspan><tspan class="cls-4" x="114.3" y="42">m</tspan><tspan class="cls-1" x="149.8" y="42">i</tspan><tspan class="cls-3" x="161.2" y="42">e</tspan></text>
</svg>