<?xml version="1.0" encoding="UTF-8" standalone="no"?>
<!-- Created with Inkscape (http://www.inkscape.org/) -->

<svg
   version="1.1"
   id="svg2"
   width="481.15799"
   height="141.27101"
   viewBox="0 0 481.15798 141.27101"
   sodipodi:docname="konzeptwerk.svg"
   inkscape:version="1.2.2 (b0a8486541, 2022-12-01)"
   xmlns:inkscape="http://www.inkscape.org/namespaces/inkscape"
   xmlns:sodipodi="http://sodipodi.sourceforge.net/DTD/sodipodi-0.dtd"
   xmlns="http://www.w3.org/2000/svg"
   xmlns:svg="http://www.w3.org/2000/svg">
  <defs
     id="defs6" />
  <sodipodi:namedview
     id="namedview4"
     pagecolor="#505050"
     bordercolor="#ffffff"
     borderopacity="1"
     inkscape:showpageshadow="0"
     inkscape:pageopacity="0"
     inkscape:pagecheckerboard="1"
     inkscape:deskcolor="#505050"
     showgrid="false"
     inkscape:zoom="1.1587572"
     inkscape:cx="136.78447"
     inkscape:cy="161.37979"
     inkscape:window-width="1920"
     inkscape:window-height="979"
     inkscape:window-x="0"
     inkscape:window-y="32"
     inkscape:window-maximized="1"
     inkscape:current-layer="g12">
    <inkscape:page
       x="0"
       y="0"
       id="page8"
       width="481.15799"
       height="141.27101" />
  </sodipodi:namedview>
  <g
     id="g10"
     inkscape:groupmode="layer"
     inkscape:label="Page 1"
     transform="matrix(1.3333333,0,0,-1.3333333,-42.996806,183.85502)">
    <g
       id="g12"
       transform="scale(0.1)">
      <g
         inkscape:groupmode="layer"
         id="layer1"
         inkscape:label="Page 2"
         transform="matrix(7.5000002,0,0,-7.5000002,0,1700.8)" />
      <g
         id="g845">
        <path
           d="m 1623.63,753.941 c -16.34,-0.421 -30.22,-4.195 -41.64,-11.312 -11.42,-7.125 -19.85,-17.391 -25.29,-30.797 v 41.793 h -13.2 V 589.91 h 13.2 v 88.61 c 1.46,19.058 7.8,34.097 19.01,45.097 11.2,10.996 26.13,16.703 44.78,17.125 16.76,0 29.85,-4.715 39.28,-14.14 9.42,-9.426 14.14,-22.52 14.14,-39.282 v -97.41 h 13.2 v 99.93 c 0,19.898 -5.61,35.555 -16.82,46.976 -11.21,11.414 -26.76,17.125 -46.66,17.125 z m 188.23,0 c -15.3,0 -28.97,-3.511 -41.01,-10.527 -12.05,-7.019 -21.53,-16.812 -28.44,-29.383 -6.91,-12.566 -10.37,-26.711 -10.37,-42.422 0,-15.711 3.4,-29.8 10.21,-42.257 6.81,-12.473 16.29,-22.211 28.44,-29.231 12.15,-7.019 25.87,-10.519 41.17,-10.519 12.77,0 24.61,2.238 35.5,6.75 10.89,4.5 20.22,10.949 27.97,19.328 l -7.54,8.48 c -6.71,-7.332 -14.82,-12.941 -24.35,-16.808 -9.54,-3.883 -19.85,-5.813 -30.96,-5.813 -12.57,0 -23.88,2.77 -33.93,8.32 -10.06,5.551 -18.02,13.36 -23.89,23.411 -5.86,10.058 -9.11,21.691 -9.74,34.878 h 142.98 c 0.21,16.762 -2.67,31.633 -8.64,44.629 -5.97,12.985 -14.77,23.094 -26.4,30.325 -11.62,7.226 -25.29,10.839 -41,10.839 z m -66.62,-74.16 c 1.67,18.641 8.59,33.672 20.74,45.094 12.14,11.414 27.44,17.125 45.88,17.125 18.43,0 33.41,-5.656 44.93,-16.969 11.52,-11.312 17.91,-26.39 19.17,-45.25 z m 314.86,73.844 V 673.5 c 0,-21.578 -5.55,-38.648 -16.66,-51.219 -11.1,-12.57 -26.5,-19.07 -46.19,-19.492 -16.55,0 -29.43,4.723 -38.65,14.141 -9.22,9.429 -13.83,22.519 -13.83,39.281 v 97.414 h -12.88 v -99.926 c 0,-20.109 5.5,-35.82 16.5,-47.14 11,-11.309 26.34,-16.957 46.03,-16.957 16.13,0.207 29.8,4.027 41.01,11.468 11.21,7.43 19.43,18.27 24.67,32.52 v -43.68 h 12.88 v 163.715 z m 143.29,0.316 c -15.3,0 -28.97,-3.511 -41.01,-10.527 -12.05,-7.019 -21.53,-16.812 -28.44,-29.383 -6.91,-12.566 -10.37,-26.711 -10.37,-42.422 0,-15.711 3.4,-29.8 10.21,-42.257 6.81,-12.473 16.29,-22.211 28.44,-29.231 12.15,-7.019 25.87,-10.519 41.17,-10.519 12.77,0 24.61,2.238 35.51,6.75 10.89,4.5 20.21,10.949 27.96,19.328 l -7.54,8.48 c -6.71,-7.332 -14.82,-12.941 -24.35,-16.808 -9.54,-3.883 -19.85,-5.813 -30.95,-5.813 -12.57,0 -23.89,2.77 -33.94,8.32 -10.06,5.551 -18.02,13.36 -23.88,23.411 -5.87,10.058 -9.12,21.691 -9.75,34.878 h 142.98 c 0.21,16.762 -2.67,31.633 -8.64,44.629 -5.97,12.985 -14.77,23.094 -26.4,30.325 -11.62,7.226 -25.29,10.839 -41,10.839 z m -66.62,-74.16 c 1.67,18.641 8.59,33.672 20.74,45.094 12.15,11.414 27.44,17.125 45.88,17.125 18.43,0 33.41,-5.656 44.93,-16.969 11.52,-11.312 17.91,-26.39 19.17,-45.25 z m 347.85,74.16 c -15.29,0 -29.07,-3.511 -41.32,-10.527 -12.26,-7.019 -21.9,-16.762 -28.91,-29.223 -7.02,-12.468 -10.53,-26.55 -10.53,-42.261 0,-15.93 3.51,-30.121 10.53,-42.578 7.01,-12.473 16.65,-22.211 28.91,-29.231 12.25,-7.019 26.03,-10.519 41.32,-10.519 15.5,0 29.38,3.5 41.64,10.519 12.25,7.02 21.84,16.758 28.75,29.231 6.91,12.457 10.37,26.648 10.37,42.578 0,15.711 -3.46,29.793 -10.37,42.261 -6.91,12.461 -16.5,22.204 -28.75,29.223 -12.26,7.016 -26.14,10.527 -41.64,10.527 z m 0,-12.57 c 12.99,0 24.67,-2.937 35.04,-8.797 10.37,-5.867 18.43,-14.094 24.19,-24.668 5.76,-10.586 8.65,-22.578 8.65,-35.976 0,-13.621 -2.89,-25.77 -8.65,-36.461 -5.76,-10.68 -13.82,-18.957 -24.19,-24.821 -10.37,-5.867 -22.05,-8.796 -35.04,-8.796 -12.99,0 -24.62,2.929 -34.88,8.796 -10.27,5.864 -18.33,14.141 -24.2,24.821 -5.86,10.691 -8.79,22.84 -8.79,36.461 0,13.398 2.93,25.39 8.79,35.976 5.87,10.574 13.93,18.801 24.2,24.668 10.26,5.86 21.89,8.797 34.88,8.797 z m -24.51,70.074 c -2.94,0 -5.4,-1.05 -7.38,-3.14 -2,-2.098 -2.99,-4.715 -2.99,-7.856 0,-2.937 1.05,-5.5 3.14,-7.699 2.09,-2.199 4.5,-3.301 7.23,-3.301 2.93,0 5.44,1.102 7.54,3.301 2.09,2.199 3.14,4.762 3.14,7.699 0,3.141 -1.05,5.758 -3.14,7.856 -2.1,2.09 -4.61,3.14 -7.54,3.14 z m 49.33,0 c -2.93,0 -5.45,-1.05 -7.54,-3.14 -2.09,-2.098 -3.14,-4.715 -3.14,-7.856 0,-2.937 1.05,-5.5 3.14,-7.699 2.09,-2.199 4.61,-3.301 7.54,-3.301 2.73,0 5.14,1.102 7.23,3.301 2.09,2.199 3.14,4.762 3.14,7.699 0,3.141 -0.99,5.758 -2.98,7.856 -1.99,2.09 -4.45,3.14 -7.39,3.14 z m 241.96,-221.535 -70.07,100.238 61.9,63.477 h -16.02 l -96.79,-96.785 v 166.234 h -13.2 V 589.91 h 13.2 v 48.078 l 41.48,42.731 64.42,-90.809 z m 96.47,164.031 c -15.29,0 -29.07,-3.511 -41.32,-10.527 -12.26,-7.019 -21.89,-16.762 -28.91,-29.223 -7.02,-12.468 -10.53,-26.55 -10.53,-42.261 0,-15.93 3.51,-30.121 10.53,-42.578 7.02,-12.473 16.65,-22.211 28.91,-29.231 12.25,-7.019 26.03,-10.519 41.32,-10.519 15.5,0 29.38,3.5 41.64,10.519 12.25,7.02 21.84,16.758 28.75,29.231 6.91,12.457 10.37,26.648 10.37,42.578 0,15.711 -3.46,29.793 -10.37,42.261 -6.91,12.461 -16.5,22.204 -28.75,29.223 -12.26,7.016 -26.14,10.527 -41.64,10.527 z m 0,-12.57 c 12.99,0 24.67,-2.937 35.04,-8.797 10.37,-5.867 18.43,-14.094 24.19,-24.668 5.76,-10.586 8.65,-22.578 8.65,-35.976 0,-13.621 -2.89,-25.77 -8.65,-36.461 -5.76,-10.68 -13.82,-18.957 -24.19,-24.821 -10.37,-5.867 -22.05,-8.796 -35.04,-8.796 -12.99,0 -24.62,2.929 -34.88,8.796 -10.27,5.864 -18.33,14.141 -24.19,24.821 -5.87,10.691 -8.8,22.84 -8.8,36.461 0,13.398 2.93,25.39 8.8,35.976 5.86,10.574 13.92,18.801 24.19,24.668 10.26,5.86 21.89,8.797 34.88,8.797 z m 211.16,12.57 c -16.34,-0.421 -30.22,-4.195 -41.63,-11.312 -11.42,-7.125 -19.85,-17.391 -25.3,-30.797 v 41.793 h -13.2 V 589.91 h 13.2 v 88.61 c 1.46,19.058 7.8,34.097 19.01,45.097 11.21,10.996 26.13,16.703 44.78,17.125 16.76,0 29.85,-4.715 39.28,-14.14 9.43,-9.426 14.14,-22.52 14.14,-39.282 v -97.41 h 13.2 v 99.93 c 0,19.898 -5.61,35.555 -16.81,46.976 -11.21,11.414 -26.77,17.125 -46.67,17.125 z m 189.17,0 c -15.29,0 -29.07,-3.511 -41.32,-10.527 -12.26,-7.019 -21.89,-16.762 -28.91,-29.223 -7.02,-12.468 -10.53,-26.55 -10.53,-42.261 0,-15.93 3.51,-30.121 10.53,-42.578 7.02,-12.473 16.65,-22.211 28.91,-29.231 12.25,-7.019 26.03,-10.519 41.32,-10.519 15.5,0 29.38,3.5 41.64,10.519 12.25,7.02 21.84,16.758 28.75,29.231 6.91,12.457 10.37,26.648 10.37,42.578 0,15.711 -3.46,29.793 -10.37,42.261 -6.91,12.461 -16.5,22.204 -28.75,29.223 -12.26,7.016 -26.14,10.527 -41.64,10.527 z m 0,-12.57 c 12.99,0 24.67,-2.937 35.04,-8.797 10.37,-5.867 18.43,-14.094 24.19,-24.668 5.76,-10.586 8.65,-22.578 8.65,-35.976 0,-13.621 -2.89,-25.77 -8.65,-36.461 -5.76,-10.68 -13.82,-18.957 -24.19,-24.821 -10.37,-5.867 -22.05,-8.796 -35.04,-8.796 -12.99,0 -24.62,2.929 -34.88,8.796 -10.27,5.864 -18.33,14.141 -24.19,24.821 -5.87,10.691 -8.8,22.84 -8.8,36.461 0,13.398 2.93,25.39 8.8,35.976 5.86,10.574 13.92,18.801 24.19,24.668 10.26,5.86 21.89,8.797 34.88,8.797 z m 337.17,12.57 c -16.76,-0.421 -30.85,-4.613 -42.26,-12.57 -11.42,-7.965 -19.64,-19.59 -24.67,-34.879 -2.94,15.082 -9.64,26.758 -20.11,35.035 -10.48,8.274 -23.88,12.414 -40.22,12.414 -16.34,-0.421 -30.12,-4.242 -41.33,-11.468 -11.21,-7.231 -19.43,-17.864 -24.66,-31.899 v 43.051 h -12.89 V 589.91 h 12.89 v 80.129 c 0,21.371 5.54,38.387 16.65,51.063 11.1,12.675 26.4,19.218 45.88,19.64 16.34,0 29.17,-4.715 38.49,-14.14 9.32,-9.426 13.99,-22.52 13.99,-39.282 v -97.41 h 12.88 v 80.129 c 0,21.57 5.5,38.652 16.5,51.223 11,12.566 26.24,19.058 45.72,19.48 16.55,0 29.43,-4.715 38.65,-14.14 9.22,-9.426 13.83,-22.52 13.83,-39.282 v -97.41 h 12.88 v 99.93 c 0,20.109 -5.5,35.82 -16.5,47.133 -11,11.312 -26.24,16.968 -45.72,16.968 z M 3710.12,589.91 h 12.89 v 163.715 h -12.89 z m 6.6,222.164 c -2.93,0 -5.5,-1.097 -7.7,-3.301 -2.2,-2.199 -3.3,-4.871 -3.3,-8.011 0,-3.352 1.1,-6.129 3.3,-8.328 2.2,-2.2 4.77,-3.297 7.7,-3.297 2.93,0 5.5,1.097 7.7,3.297 2.2,2.199 3.3,4.976 3.3,8.328 0,3.14 -1.1,5.812 -3.3,8.011 -2.2,2.204 -4.77,3.301 -7.7,3.301 z m 136.69,-58.133 c -15.29,0 -28.96,-3.511 -41,-10.527 -12.05,-7.019 -21.53,-16.812 -28.44,-29.383 -6.92,-12.566 -10.37,-26.711 -10.37,-42.422 0,-15.711 3.4,-29.8 10.21,-42.257 6.81,-12.473 16.29,-22.211 28.44,-29.231 12.15,-7.019 25.87,-10.519 41.16,-10.519 12.78,0 24.62,2.238 35.51,6.75 10.89,4.5 20.22,10.949 27.97,19.328 l -7.54,8.48 c -6.71,-7.332 -14.83,-12.941 -24.36,-16.808 -9.53,-3.883 -19.85,-5.813 -30.95,-5.813 -12.57,0 -23.88,2.77 -33.94,8.32 -10.05,5.551 -18.01,13.36 -23.88,23.411 -5.86,10.058 -9.11,21.691 -9.74,34.878 h 142.98 c 0.21,16.762 -2.67,31.633 -8.64,44.629 -5.97,12.985 -14.77,23.094 -26.4,30.325 -11.63,7.226 -25.29,10.839 -41.01,10.839 z m -66.61,-74.16 c 1.67,18.641 8.58,33.672 20.74,45.094 12.14,11.414 27.44,17.125 45.87,17.125 18.44,0 33.42,-5.656 44.94,-16.969 11.52,-11.312 17.91,-26.39 19.17,-45.25 H 3786.8"
           style="fill:#4a4a49;fill-opacity:1;fill-rule:nonzero;stroke:none"
           id="path14" />
        <path
           d="m 1723.72,950.215 -80.25,120.385 73.2,76.17 h -40.51 l -95.12,-96.61 v 175.75 h -34.55 V 950.215 h 34.55 v 55.735 l 38.28,39.75 62.79,-95.485 z m 113.7,197.665 c -19.82,0 -37.34,-4.21 -52.57,-12.63 -15.24,-8.42 -27.13,-20.13 -35.67,-35.11 -8.55,-14.99 -12.82,-32.14 -12.82,-51.46 0,-19.57 4.27,-36.85 12.82,-51.836 8.54,-14.989 20.43,-26.696 35.67,-35.114 15.23,-8.421 32.75,-12.632 52.57,-12.632 19.57,0 36.97,4.211 52.21,12.632 15.23,8.418 27.12,20.188 35.67,35.301 8.54,15.109 12.82,32.329 12.82,51.649 0,19.32 -4.28,36.47 -12.82,51.46 -8.55,14.98 -20.44,26.69 -35.67,35.11 -15.24,8.42 -32.64,12.63 -52.21,12.63 z m 0,-30.09 c 12.64,0 23.97,-2.97 34,-8.92 10.03,-5.94 17.84,-14.18 23.41,-24.71 5.57,-10.53 8.36,-22.48 8.36,-35.86 0,-13.62 -2.79,-25.76 -8.36,-36.41 -5.57,-10.65 -13.38,-18.89 -23.41,-24.706 -10.03,-5.825 -21.36,-8.731 -34,-8.731 -12.88,0 -24.33,2.906 -34.37,8.731 -10.03,5.816 -17.83,14.056 -23.41,24.706 -5.57,10.65 -8.36,22.79 -8.36,36.41 0,13.38 2.79,25.33 8.36,35.86 5.58,10.53 13.38,18.77 23.41,24.71 10.04,5.95 21.49,8.92 34.37,8.92 z m 261.95,30.09 c -36.66,-0.49 -61.56,-14.74 -74.68,-42.73 v 41.62 h -34.56 V 950.215 h 34.56 v 105.145 c 1.48,17.59 7.73,31.89 18.76,42.92 11.02,11.02 25.32,16.66 42.91,16.91 16.35,0 29.17,-4.65 38.46,-13.94 9.29,-9.29 13.93,-22.23 13.93,-38.82 V 950.215 h 34.56 v 121.495 c 0,23.78 -6.57,42.42 -19.69,55.92 -13.14,13.5 -31.21,20.25 -54.25,20.25 z m 122.62,-29.72 115.18,-0.37 -118.53,-143.056 v -24.519 l 164.23,-0.375 v 28.613 l -121.87,0.371 118.9,143.056 v 24.52 l -157.91,0.37 z m 289.44,29.72 c -19.07,0 -36.04,-4.27 -50.9,-12.81 -14.86,-8.55 -26.45,-20.32 -34.74,-35.3 -8.3,-14.99 -12.45,-32.14 -12.45,-51.47 0,-19.32 4.15,-36.53 12.45,-51.644 8.29,-15.109 19.94,-26.812 34.93,-35.109 14.98,-8.305 32.14,-12.449 51.46,-12.449 16.59,0 31.7,2.843 45.33,8.547 13.62,5.695 25.26,13.746 34.92,24.152 l -18.95,19.693 c -7.43,-7.681 -16.16,-13.627 -26.19,-17.838 -10.03,-4.214 -20.87,-6.316 -32.51,-6.316 -17.59,0 -32.39,5.203 -44.4,15.605 -12.02,10.409 -19.39,24.399 -22.11,41.989 h 155.31 c 0.25,2.47 0.37,6.19 0.37,11.14 0,31.96 -7.8,56.91 -23.41,74.88 -15.6,17.95 -38.64,26.93 -69.11,26.93 z m -63.53,-86.2 c 2.23,17.59 9.1,31.59 20.62,41.99 11.52,10.4 25.94,15.6 43.29,15.6 17.83,0 32.19,-5.14 43.1,-15.41 10.89,-10.29 16.84,-24.34 17.83,-42.18 z m 316.19,86.2 c -16.34,0 -30.78,-3.47 -43.28,-10.4 -12.51,-6.94 -22.36,-16.85 -29.54,-29.73 v 39.02 h -34.56 V 878.129 h 34.56 v 111.098 c 7.18,-12.883 17.09,-22.793 29.72,-29.723 12.64,-6.941 27.25,-10.406 43.85,-10.406 18.33,0 34.61,4.144 48.86,12.449 14.24,8.297 25.26,19.933 33.07,34.926 7.8,14.987 11.7,32.137 11.7,51.457 0,19.57 -3.96,36.91 -11.89,52.02 -7.93,15.11 -19.08,26.88 -33.44,35.3 -14.37,8.42 -30.72,12.63 -49.05,12.63 z m -6.68,-168.685 c -12.64,0 -23.97,2.973 -34,8.918 -10.03,5.946 -17.9,14.177 -23.6,24.707 -5.7,10.53 -8.54,22.6 -8.54,36.23 0,13.13 2.84,25.02 8.54,35.67 5.7,10.65 13.57,18.95 23.6,24.89 10.03,5.95 21.36,8.92 34,8.92 12.63,0 23.9,-2.97 33.81,-8.92 9.9,-5.94 17.71,-14.24 23.41,-24.89 5.69,-10.65 8.54,-22.54 8.54,-35.67 0,-13.38 -2.78,-25.4 -8.36,-36.04 -5.57,-10.66 -13.37,-18.951 -23.41,-24.897 -10.03,-5.945 -21.36,-8.918 -33.99,-8.918 z m 249.31,10.774 c -10.9,-6.196 -21.05,-9.289 -30.47,-9.289 -7.93,0 -13.87,2.351 -17.83,7.062 -3.97,4.699 -5.95,12.508 -5.95,23.408 v 102.55 h 60.2 v 26.38 h -60.2 v 52.76 h -34.92 v -52.76 h -27.87 v -26.38 h 27.87 v -108.87 c 0,-18.826 4.83,-32.881 14.49,-42.17 9.66,-9.289 22.29,-13.933 37.9,-13.933 15.6,0 30.96,4.832 46.07,14.492 z m 95.12,-39.754 h 36.04 l 54.25,154.565 54.25,-154.565 h 36.04 l 72.45,196.555 h -35.67 l -54.25,-162.372 -54.62,162.372 h -36.04 l -54.25,-162.372 -54.99,162.372 h -36.04 z M 3463,1147.88 c -19.08,0 -36.04,-4.27 -50.91,-12.81 -14.86,-8.55 -26.44,-20.32 -34.74,-35.3 -8.3,-14.99 -12.44,-32.14 -12.44,-51.47 0,-19.32 4.14,-36.53 12.44,-51.644 8.3,-15.109 19.94,-26.812 34.93,-35.109 14.98,-8.305 32.14,-12.449 51.46,-12.449 16.59,0 31.71,2.843 45.33,8.547 13.62,5.695 25.27,13.746 34.93,24.152 l -18.95,19.693 c -7.43,-7.681 -16.16,-13.627 -26.2,-17.838 -10.03,-4.214 -20.87,-6.316 -32.51,-6.316 -17.59,0 -32.39,5.203 -44.4,15.605 -12.02,10.409 -19.39,24.399 -22.11,41.989 h 155.31 c 0.25,2.47 0.38,6.19 0.38,11.14 0,31.96 -7.81,56.91 -23.41,74.88 -15.61,17.95 -38.64,26.93 -69.11,26.93 z m -63.54,-86.2 c 2.23,17.59 9.1,31.59 20.62,41.99 11.52,10.4 25.95,15.6 43.29,15.6 17.83,0 32.2,-5.14 43.1,-15.41 10.9,-10.29 16.84,-24.34 17.84,-42.18 z m 241.51,42.73 v 42.36 h -34.55 V 950.215 h 34.55 v 103.665 c 1.73,18.82 8.79,33.81 21.18,44.96 12.39,11.14 28.61,16.35 48.68,15.6 v 33.44 c -16.35,-0.25 -30.47,-4.02 -42.36,-11.33 -11.89,-7.31 -21.06,-18.02 -27.5,-32.14 z m 290.19,-154.195 -80.26,120.385 73.2,76.17 h -40.5 l -95.12,-96.61 v 175.75 h -34.55 V 950.215 h 34.55 v 55.735 l 38.27,39.75 62.8,-95.485 h 41.61"
           style="fill:#4a4a49;fill-opacity:1;fill-rule:nonzero;stroke:none"
           id="path16" />
        <path
           d="m 580.18,1291.26 c 6.011,4.53 14.914,11.68 29.679,20.1 14.52,8.86 34.817,19.18 63.028,30.38 28.371,10.98 -1.5,4.52 -2.387,6.73 86.836,31.35 184.172,38.76 277.547,20.96 11.41,-2.2 22.766,-4.81 34.047,-7.76 -0.016,0.05 -0.18,0.15 -0.168,0.21 89.504,-22.63 174.314,-70.97 241.734,-137.98 67.23,-67.12 117.29,-153.35 140.12,-246.736 23.28,-93.195 20.42,-192.434 -7.37,-283.113 -27.81,-90.711 -80.5,-172.25 -148.3,-233.442 -28.13,-25.648 -59.57,-49.218 -94.05,-69.089 -13.54,-7.79 -27.63,-14.872 -41.99,-21.532 -3.29,-1.558 -6.5,-3.269 -9.83,-4.758 -38.17,-17.351 -78.564,-29.66 -119.513,-37.21 -40.95,-7.649 -82.563,-10.219 -123.321,-7.711 -20.73,1.222 -41.226,3.679 -61.355,7.25 -0.602,0.101 -1.211,0.152 -1.813,0.261 -41.347,6.981 -81.711,19.391 -119.871,36.051 -38.211,16.578 -74.137,37.738 -106.508,62.641 -64.851,49.59 -116.363,112.769 -149.425,180.328 -20.422,40.609 -42.426,97.82 -51.286,154.246 -9.812,56.199 -7.562,110.039 -1.203,139.644 -3.066,-30.015 -3.578,-60.324 -1.511,-90.425 -1.602,45.269 1.64,90.488 9.527,134.976 8.594,44.282 21.801,88.059 42.363,128.399 1.071,-0.52 1.875,-0.9 4.207,2.13 2.407,3 5.918,9.63 13.899,22.31 -14.649,-26.01 -30.453,-60.04 -41.758,-95.68 -11.512,-35.569 -18.469,-72.53 -20.805,-102.323 l 3.547,-0.371 c 3.504,29.457 10.09,66.043 21.086,101.484 10.785,35.48 25.973,69.59 41.043,95.15 1.043,-0.58 3.121,-1.74 4.16,-2.32 1.074,-0.61 14.985,25.29 32.449,48.86 -8.468,-11.93 -20.925,-30.11 -31.418,-49.45 -10.961,-19.08 -19.859,-39.24 -25.589,-52.71 1.101,-0.45 3.3,-1.36 4.398,-1.82 0.551,-0.22 3.715,6.31 8.18,16.21 4.847,9.71 10.914,22.9 18.218,35.44 2.114,-1.1 18.122,22.73 5.196,-2.91 -9.856,-17.66 -18.211,-36.05 -25.848,-54.75 -3.211,-7.46 -6.371,-15.18 -9.371,-23.45 2.785,7.95 6.187,15.65 9.371,23.45 7.238,16.79 14.832,31.68 22.098,44.59 10.898,18.45 21.058,33.11 29.941,44.21 4.492,5.53 8.461,10.31 11.945,14.32 3.688,3.87 6.829,7.03 9.407,9.48 5.168,4.91 8.117,7.02 8.808,6.46 -18.136,-21.47 -15.359,-23.51 -31.66,-46.11 2.293,3.37 4.688,6.65 7.078,9.91 8.746,13.1 17.715,25.73 26.989,37.35 15.242,18.56 30.625,35.31 45.687,49.97 10.438,9.33 4.379,5.67 -1.801,1.99 -6.086,-3.75 -12.492,-7.39 -3.039,3.27 5.18,4.87 12.043,10.52 19.387,16.97 7.715,5.99 15.867,12.89 24.621,18.99 4.344,3.09 8.688,6.18 12.945,9.21 4.383,2.83 8.676,5.6 12.782,8.26 8.128,5.44 15.964,9.66 22.105,13.25 23.117,17.37 -28.488,-8.12 -5.262,9.33 11.645,8.8 43.93,26.14 78.403,38.16 34.297,12.52 70.129,19.81 84.351,23.32 21.602,3.89 28.879,5.14 26.09,5.29 -1.387,0.04 -5.273,-0.28 -11.098,-0.88 -5.832,-0.56 -13.597,-1.43 -22.636,-3.12 -18.207,-2.67 -41.477,-8.43 -65.215,-15.72 -23.75,-7.36 -47.5,-17.52 -67.41,-27.06 12.734,7.49 -0.614,1.24 -16.946,-7.37 -8.144,-4.33 -16.828,-9.59 -23.734,-13.31 -6.707,-4.05 -11.512,-6.83 -11.84,-6.32 -1.25,1.97 -2.668,4.06 8.895,13.89 z M 963.996,387.809 c 1.703,0.429 3.363,1 5.063,1.453 57.131,15.109 111.501,40.918 159.261,75.949 48.9,35.801 90.9,81.051 122.78,132.617 31.97,51.531 53.67,109.336 63.97,169.238 10.41,59.864 9.24,121.649 -3.69,181.004 -12.86,59.36 -37.37,116.21 -71.59,166.46 -34.19,50.28 -78.07,93.94 -128.57,127.74 -50.44,33.89 -107.52,57.72 -167.079,70 -59.536,12.43 -121.293,13.51 -181.024,2.8 -59.734,-10.62 -117.34,-32.91 -168.746,-65.07 -29.269,-18.27 -56.215,-40.03 -80.855,-64.13 0.328,-0.12 -0.012,-0.91 -1.797,-3.03 -3.856,-5.25 -14.645,-16.34 -31.922,-37.61 -37.649,-46.64 -66.285,-100.49 -83.906,-157.882 -17.668,-57.371 -24.317,-118.211 -19.477,-178.2 4.754,-59.582 20.922,-118.257 47.469,-171.886 0.242,-0.492 0.449,-1 0.695,-1.481 6.074,-12.211 12.82,-24.062 19.945,-35.691 0.883,-1.442 1.672,-2.93 2.575,-4.371 7.078,-11.27 14.734,-22.18 22.742,-32.828 1.051,-1.391 2.012,-2.86 3.074,-4.243 8.035,-10.437 16.609,-20.468 25.481,-30.218 1.32,-1.45 2.543,-2.981 3.878,-4.41 8.223,-8.829 16.954,-17.18 25.825,-25.372 2.504,-2.296 4.879,-4.738 7.433,-6.976 7.403,-6.582 15.227,-12.633 23.032,-18.711 4.562,-3.531 8.992,-7.231 13.679,-10.59 6.469,-4.66 13.238,-8.871 19.934,-13.191 6.234,-4.008 12.383,-8.149 18.804,-11.86 5.743,-3.34 11.704,-6.25 17.583,-9.34 7.718,-4.039 15.394,-8.16 23.328,-11.761 4.832,-2.207 9.812,-4.047 14.718,-6.09 9.336,-3.859 18.672,-7.719 28.243,-10.981 3.718,-1.277 7.531,-2.257 11.285,-3.437 10.758,-3.371 21.562,-6.609 32.539,-9.223 3.605,-0.859 7.265,-1.437 10.89,-2.207 10.918,-2.34 21.875,-4.511 32.934,-6.082 5.18,-0.73 10.398,-1.078 15.598,-1.64 9.461,-1.039 18.925,-2.059 28.429,-2.508 6.637,-0.313 13.286,-0.153 19.93,-0.18 8.516,-0.043 17.027,-0.18 25.527,0.238 5.871,0.289 11.707,1.012 17.563,1.52 9.555,0.84 19.113,1.621 28.598,3.039 4.007,0.594 7.96,1.504 11.953,2.203 11.363,2 22.711,4.109 33.898,6.938"
           style="fill:#a2bd2a;fill-opacity:1;fill-rule:nonzero;stroke:none"
           id="path18" />
        <path
           d="m 1137.75,597.25 c 0.78,-1.059 7.1,4.012 -0.76,-5.559 -24.91,-30.293 -52.5,-46.652 -84.08,-68.55 l -1.32,-3.192 c -6.59,-3.629 -13.25,-7.301 -19.97,-11.008 -6.87,-3.382 -14.16,-6.089 -21.27,-9.23 -14.049,-6.75 -29.44,-10.68 -44.526,-15.633 -6.781,-2.84 -14.113,-3.848 -21.144,-5.84 -7.11,-1.707 -14.157,-3.726 -21.305,-5.226 l -21.684,-3.262 c -7.214,-1.172 -14.429,-2.359 -21.75,-2.461 l -21.867,-1.25 -5.465,-0.328 -5.464,0.211 -10.934,0.43 c -7.277,0.359 -14.59,0.367 -21.852,0.937 l -21.664,2.902 c 1.379,-0.961 2,-1.75 -3.816,-1.203 -3.027,0.383 -6.195,0.774 -9.488,1.192 -3.231,0.781 -6.586,1.59 -10.051,2.429 -6.922,1.719 -14.289,3.551 -21.981,5.461 -7.679,1.942 -15.261,5.328 -23.257,8.032 -7.934,2.886 -16.204,5.488 -23.942,9.589 -4.73,2.059 -9.457,4.118 -14.101,6.149 -3.801,1.262 -5.059,1.039 -5.844,0.91 -7.356,3.02 -13.453,7.488 -19.629,11.039 -6.09,3.711 -11.883,7.242 -17.453,10.641 -36.336,22.992 -69.192,52.109 -97.028,86.031 l -10.089,13.027 c -3.289,4.41 -7.036,8.532 -9.723,13.364 -5.867,9.367 -11.746,18.757 -17.641,28.168 -4.937,9.98 -9.89,19.968 -14.851,30 -4.809,10.121 -8.141,20.894 -12.356,31.378 -29.648,85.149 -30.136,184.418 6.348,275.652 3.941,9.61 7.883,19.24 11.812,28.83 4.911,9.17 9.809,18.32 14.68,27.42 l 3.68,6.84 c 1.336,2.21 2.867,4.29 4.293,6.43 2.91,4.25 5.812,8.5 8.703,12.73 2.914,4.23 5.816,8.44 8.707,12.63 2.922,4.18 6.516,7.8 9.734,11.69 4.977,5.6 10.118,11.4 15.387,17.33 2.535,3.07 5.488,5.8 8.539,8.48 3.012,2.71 6.051,5.46 9.117,8.23 6.219,5.41 12.164,11.37 18.836,16.51 6.828,4.94 13.699,9.92 20.559,14.89 3.453,2.46 6.816,5.03 10.32,7.37 3.653,2.11 7.301,4.22 10.926,6.32 7.242,4.19 14.422,8.34 21.469,12.43 7.285,3.62 14.672,6.73 21.718,10.01 7.165,3.02 13.762,6.85 20.79,8.88 -2.782,0.97 3.441,4.83 14.066,10.12 5.351,2.49 11.613,5.98 18.719,8.45 7.175,2.44 14.781,5.02 22.246,7.56 3.761,1.27 7.488,2.54 11.105,3.77 3.664,1.02 7.266,1.78 10.653,2.66 6.781,1.69 12.804,3.28 17.414,4.7 9.211,2.83 12.785,4.97 5.257,5.76 5.004,0.91 10.403,1.01 15.957,1.26 5.551,0.25 11.27,0.51 17,0.78 11.461,0.97 22.969,0.16 33.317,-0.26 20.758,-0.14 36.609,-2.89 38.332,-1.92 2.562,1.19 6.508,2.25 12.746,2.97 3.113,0.32 6.828,0.71 11.18,0.7 4.308,-0.23 9.293,-0.64 15.07,-1.26 11.543,-1.31 26.43,-2.85 44.547,-8.45 18.508,-4.4 40.058,-12.89 65.608,-24.83 9.62,-5.4 20.4,-11.77 31.35,-18.4 10.52,-7.28 20.78,-15.45 30.52,-22.76 2.4,-1.87 4.84,-3.6 7.06,-5.49 2.14,-1.98 4.22,-3.91 6.23,-5.78 4.04,-3.72 7.81,-7.2 11.19,-10.31 6.79,-6.22 12.11,-10.96 15.21,-13.35 4.41,-3.71 4.44,-3 2.28,-0.08 -2.18,2.93 -7.3,8.16 -12.2,13.38 -9.89,10.44 -19.97,20.96 -10.11,13.43 -3.92,3.4 -7.47,7.23 -11.7,10.24 l -12.46,9.31 c -8.43,6.01 -16.36,12.76 -25.24,18.08 l -26.63,15.92 -6.67,3.94 -7,3.31 -14.02,6.59 c -18.38,9.52 -38.215,15.38 -57.559,22.37 -9.894,2.77 -19.933,5.04 -29.894,7.54 -5.004,1.15 -9.953,2.58 -15,3.48 l -15.227,2.24 c -81.086,13.14 -165.156,1.89 -240.547,-29.6 l -27.8,-12.99 c -4.711,-2.02 -9.161,-4.53 -13.516,-7.22 l -13.199,-7.83 c -18.055,-9.76 -33.93,-22.81 -50.477,-34.84 -8.016,-6.35 -15.297,-13.58 -22.961,-20.35 l -11.34,-10.36 c -3.816,-3.41 -6.976,-7.48 -10.492,-11.2 l -20.535,-22.89 c -6.406,-8 -12.254,-16.47 -18.383,-24.71 l -9.074,-12.47 -7.898,-13.26 c -5.161,-8.91 -10.59,-17.69 -15.473,-26.76 -8.496,-18.78 -18.137,-37.15 -24.164,-57.006 l -5.09,-14.676 c -0.824,-2.453 -1.75,-4.879 -2.477,-7.359 l -1.855,-7.551 -7.344,-30.258 c -2.078,-10.168 -3.168,-20.539 -4.765,-30.824 -0.696,-5.156 -1.555,-10.305 -2.106,-15.484 l -0.777,-15.625 c -0.032,-7.114 -0.649,-16.766 -0.489,-28.645 0.817,-11.875 1.356,-26.023 2.782,-42.019 1.222,-7.95 2.515,-16.375 3.879,-25.25 0.687,-4.43 1.394,-8.973 2.117,-13.622 1.012,-4.593 2.277,-9.246 3.445,-14.019 2.469,-9.52 4.762,-19.516 7.695,-29.707 3.567,-10 7.258,-20.356 11.067,-31.024 16.715,-42.043 41.898,-86.761 76.894,-127.441 34.766,-40.691 79.2,-77.371 130.098,-103.828 50.746,-26.652 107.367,-43.043 163.242,-48.141 55.906,-5.371 110.856,0.699 159.203,14.348 48.5,13.562 90.16,34.5 123.76,55.691 8.04,5.828 15.75,11.418 23.11,16.758 7.35,5.363 14.45,10.32 20.32,16.024 6.09,5.449 11.82,10.57 17.16,15.359 5.37,4.758 10.39,9.148 14.35,13.82 3.97,4.418 7.91,8.821 11.85,13.219 35.83,39.398 67.26,90.801 85.75,144.762 18.98,53.851 24.96,109.242 23.06,153.972 -0.94,10.227 -1.89,20.504 -2.83,30.813 -1.04,10.266 -3.62,20.379 -5.4,30.551 l -2.98,15.207 -4.38,14.898 c -3.11,9.86 -5.48,19.906 -9.23,29.496 2.52,-9.219 3.54,-18.465 5.19,-26.996 1.25,-8.633 3.34,-16.586 3.49,-24.289 -7.43,40.828 -21.41,80.236 -29.55,93.996 -4.99,9.84 -9.08,17.69 -12.39,23.83 -3.11,6.26 -6.66,10.17 -8.67,13.12 -4.38,5.74 -5.64,6.08 -5.04,3.18 0.54,-2.94 3.15,-9.02 5.98,-16.45 2.34,-7.63 5.06,-16.48 7.55,-24.57 3.99,-11.2 1.82,-9.81 0.37,-9.98 -1.58,-0.22 -1.63,-1.65 3.12,-19.325 -2.27,6.152 -3.73,11.758 -6.05,16.565 -2.23,4.85 -4.29,9.33 -6.35,13.82 -4.31,8.86 -7.65,18.27 -14.76,29.42 -0.83,0.39 1.38,-3.73 4.98,-9.92 3.05,-6.48 7.15,-15.21 11.05,-23.5 1.93,-4.15 3.82,-8.2 5.5,-11.807 1.51,-3.672 2.46,-7.047 3.27,-9.547 1.54,-5.043 1.72,-6.902 -0.58,-2.906 -3.21,12.254 -9.88,23.96 -15.49,36.19 l -4.4,9.1 c -1.49,3.02 -3.45,5.79 -5.14,8.69 -3.45,5.75 -6.87,11.47 -10.23,17.07 0.79,-4.81 13.31,-23.67 21.02,-43.18 9.32,-18.765 14.36,-37.46 12.62,-35.937 -3.11,13.618 -26.07,68.327 -32.58,70.427 -0.55,0.24 2.45,-5.22 6.4,-12.13 0.99,-1.72 2.04,-3.54 3.1,-5.39 0.89,-1.93 1.8,-3.9 2.68,-5.82 1.76,-3.85 3.44,-7.52 4.78,-10.47 -4.26,9 -8.22,17.52 -13.14,24.7 -4.62,7.32 -8.85,14.04 -12.63,20.03 -3.54,6.12 -8.03,10.56 -11.16,14.65 -3.31,3.97 -6.02,7.09 -8.05,9.24 -4.04,4.31 -5.34,4.72 -3.18,0.33 1.08,-2.19 3.03,-5.58 5.92,-10.28 1.48,-2.34 3.16,-5.01 5.07,-8.04 0.98,-1.5 2.01,-3.1 3.1,-4.78 0.92,-1.79 1.9,-3.67 2.93,-5.65 -2.86,5.51 -7.14,10.84 -11.2,16.74 -4.12,5.87 -8.44,12.03 -12.78,18.22 -9.39,11.84 -19.89,23.08 -28.71,32.76 0.03,-0.05 0.07,-0.13 0.1,-0.19 4.28,-4.94 10.13,-11.67 15.89,-18.31 5.76,-6.63 11.55,-13.05 14.82,-18.15 -4.09,6.21 -9.36,11.49 -14.27,17.06 l -14.87,16.62 c 1.28,-2.08 2.69,-4.38 4.17,-6.78 6.92,-8.64 14.66,-16.63 21.6,-25.8 -5.79,7.88 -12.9,14.74 -19.3,22.21 4.09,-6.23 8.95,-13.16 14.31,-20.65 19.54,-28.91 33.84,-58.56 41.42,-75.36 32.32,-67.183 44.49,-144.015 34.07,-217.687 -4.33,-36.996 -15.62,-72.882 -30.81,-106.593 l -5.9,-12.59 c -1.99,-4.18 -3.74,-8.488 -6.31,-12.36 l -14.22,-23.871 c -2.17,-4.097 -5.13,-7.687 -7.86,-11.418 l -8.26,-11.16 -8.22,-11.191 c -2.91,-3.578 -6.19,-6.879 -9.26,-10.34"
           style="fill:#0f6b70;fill-opacity:1;fill-rule:nonzero;stroke:none"
           id="path20" />
        <path
           d="m 1172.04,989.82 c 1.88,-3.601 3.38,-7.355 4.69,-11.183 l 4.17,-11.379 c 2.74,-7.598 5.8,-15.086 7.52,-23.028 -1.71,8.45 -4.98,16.442 -7.76,24.602 -2.94,8.109 -5.48,16.414 -9.47,24.121 -3.69,7.827 -7.29,15.737 -11.15,23.517 l -13.34,22.44 c -18.99,29.18 -41.8,56.24 -68.64,79.02 -27.02,22.52 -57.21,41.22 -89.501,55.49 -32.629,13.52 -67.086,22.11 -102,26.24 -35.02,3.11 -70.207,1.55 -104.559,-4.68 -34.125,-7.21 -67.113,-18.64 -97.719,-34.44 -30.187,-16.51 -58.023,-36.56 -82.515,-59.83 -23.805,-23.9 -44.871,-50.08 -61.481,-78.63 -4.555,-6.89 -9.949,-18.06 -15.922,-28.975 -3.152,-5.398 -5.179,-11.289 -7.461,-16.523 -2.179,-5.285 -4.168,-10.094 -5.754,-13.941 -22.355,-62.508 -27.152,-140.571 -6.097,-212.875 10.543,-35.981 26.293,-70.465 46.672,-100.696 20.691,-29.992 44.961,-55.992 70.504,-77.218 26.253,-20.422 52.039,-34.274 71.492,-41.133 9.711,-3.508 17.359,-6.391 22.828,-7.809 5.433,-1.191 8.551,-1.879 8.551,-1.879 15.824,-4.351 31.625,-7.16 17.019,-0.39 -7.383,3.078 -17.89,6.398 -28.73,11.461 -5.36,2.66 -10.942,5.429 -16.524,8.199 -2.785,1.398 -5.566,2.789 -8.32,4.168 -2.723,1.441 -5.23,3.203 -7.781,4.75 -9.985,6.57 -19.586,11.89 -25.567,17.203 -6.14,5.066 -9.793,8.449 -9.379,8.988 0.211,0.27 3.465,-1.949 8.25,-5.422 2.434,-1.668 5.082,-3.898 8.227,-5.84 3.16,-1.918 6.535,-3.968 9.91,-6.019 0.363,0.582 3.34,-0.231 7.774,-1.867 4.503,-1.524 10.144,-4.434 16.8,-6.383 13.075,-4.348 27.321,-10.109 34.762,-12.231 3.824,-1.117 12.09,-3.539 22.629,-6.628 5.422,-1.09 11.418,-2.301 17.703,-3.571 6.301,-1.129 12.742,-2.969 19.461,-3.34 26.539,-3.789 53.137,-2.461 60.645,-2.379 23.011,1.122 -0.52,3.45 -34.993,9.211 -8.597,2.028 -17.898,4.231 -27.445,6.489 -9.422,2.879 -18.973,6.308 -28.383,9.3 -9.281,3.442 -18.043,7.75 -26.375,11.149 -4.218,1.59 -7.996,3.793 -11.617,5.762 -3.644,1.949 -7.074,3.781 -10.25,5.468 -12.777,6.719 -12.016,8.02 -8.574,6.871 3.687,-0.718 10.57,-2.878 11.019,-1.96 -25.683,12.21 -36.195,22.269 -58.953,38.941 0.055,0.059 -0.867,1.019 -2.586,2.711 -1.742,1.668 -4.254,4.066 -7.359,7.039 -3.125,2.949 -6.852,6.469 -11,10.379 -3.781,4.269 -7.949,8.969 -12.336,13.91 -2.199,2.469 -4.453,4.988 -6.742,7.559 -2.031,2.769 -4.09,5.589 -6.164,8.421 -4.063,5.719 -8.582,11.219 -12.321,17.051 -6.925,12 -14.464,22.903 -18.507,32.703 0,0 -1.629,3.153 -5.664,10.95 -0.957,1.98 -2.235,4.183 -3.356,6.843 -1.016,2.707 -2.156,5.743 -3.433,9.141 -1.274,3.406 -2.68,7.168 -4.231,11.316 -0.773,2.079 -1.586,4.25 -2.434,6.524 -0.601,2.351 -1.23,4.805 -1.89,7.363 -3.492,13.664 -4.184,13.508 -4.844,13.352 0.664,0.156 0.664,0.156 1.332,0.312 -2.875,6.594 -4.144,17.172 -5.691,27.66 -2.016,10.446 -1.848,21.106 -2.625,28.157 0.683,0.031 0.683,0.031 1.371,0.062 -2.086,14.031 -0.485,28.16 0.094,42.242 0.476,7.035 2.097,13.938 3.015,20.918 1.012,6.977 1.93,13.965 3.828,20.766 0.664,-0.156 0.664,-0.156 1.332,-0.313 1.778,6.801 3.547,13.578 4.875,18.672 1.453,5.047 3.153,8.172 3.375,8.094 0.653,-0.219 0.653,-0.219 1.301,-0.438 2.883,6.383 5.859,16.434 9.34,24.418 3.734,7.875 6.75,14.165 7.363,13.856 -0.613,0.309 -0.613,0.309 -1.23,0.613 1.511,3.153 2.996,6.254 4.461,9.313 1.769,2.89 3.511,5.742 5.23,8.545 3.434,5.61 6.77,11.07 10.02,16.38 3.765,4.95 7.437,9.78 11.023,14.5 3.59,4.71 6.934,9.44 11.008,13.43 7.871,8.17 14.773,16.68 23.16,23.37 4,3.53 7.961,7.02 11.899,10.5 3.902,3.52 8.421,6.24 12.57,9.4 2.832,2.02 5.683,4.05 8.558,6.11 2.813,2.13 5.758,4.12 8.93,5.8 6.18,3.61 12.438,7.27 18.766,10.96 6.453,3.47 13.34,6.29 20.066,9.56 3.426,1.5 6.695,3.42 10.289,4.62 3.563,1.26 7.145,2.53 10.739,3.8 14.156,5.78 29.414,8.91 44.613,12.79 7.765,1.17 15.582,2.35 23.429,3.54 3.907,0.78 7.879,1.04 11.875,1.15 l 11.985,0.62 c 31.93,1.06 64.816,-1.44 95.762,-10.83 31.019,-8.89 60.406,-22.56 86.598,-39.75 11.08,-8.35 23.19,-15.62 12.79,-6.17 11.68,-7.88 21.42,-18.18 32.01,-27.38 9.41,-10.42 12.17,-12.66 14.93,-14.93 2.75,-2.27 5.82,-4.31 14.08,-15.81 35.38,-44.307 56.34,-99.455 62.16,-155.885 0.55,-14.203 2.19,-28.41 0.81,-42.621 -0.55,-7.082 -0.26,-14.258 -1.44,-21.27 l -3.22,-21.082 c -5.75,-27.734 -13.74,-55.332 -27.15,-80.464 l -4.62,-9.602 -5.56,-9.086 c -3.79,-6.012 -7.2,-12.27 -11.27,-18.09 -8.61,-11.301 -16.67,-23.051 -26.72,-33.16 -9.12,-10.961 -20.24,-19.91 -30.61,-29.609 -5.57,-4.403 -11.37,-8.52 -17.02,-12.821 -2.88,-2.082 -5.61,-4.379 -8.59,-6.289 l -9.12,-5.519 C 965.602,556.66 908.883,541.551 851.977,540.238 c 28.429,0.793 53.578,2.422 77.73,9.063 24.441,5.371 47.762,15.187 72.843,28.758 0.33,-0.598 0.98,-1.778 13.3,5.703 37.07,22.238 71.34,55.566 94.49,89.937 23.7,34.223 35.76,68.641 43.15,88.957 2.03,6.946 4.8,13.731 7.72,24.27 1.04,5.426 2.25,11.687 3.71,19.242 0.57,3.832 1.69,7.953 1.91,12.578 0.25,4.625 0.53,9.645 0.84,15.121 -0.57,-7.297 -0.3,-14.668 -1.52,-21.883 l -3.31,-21.679 c 0.67,-0.125 2.02,-0.375 2.02,-0.375 1.2,7.265 2.43,14.754 3.69,22.414 1.19,7.676 1.14,15.66 1.8,23.691 0.25,4.028 0.5,8.086 0.76,12.16 -0.16,4.082 -0.32,8.184 -0.48,12.301 -0.53,8.211 -0.23,16.578 -1.42,24.797 -3.12,33.164 -12.93,65.273 -24.12,92.609 0,0 1.25,0.551 1.88,0.828 -4.46,8.864 -8.3,18.063 -13.24,26.66 -1.42,3.48 -1.34,4.34 -0.03,3.04 1.27,-1.33 4.06,-4.67 6.86,-10.231 2.98,-5.465 6.75,-12.715 11.09,-21.242 3.79,-8.762 7.47,-19.09 11.72,-30.086 3.16,-11.324 6.72,-23.473 9.36,-36.062 1.01,-6.368 2.02,-12.797 3.04,-19.227 l 1.52,-9.633 0.53,-9.679 c 0.69,-12.844 1.75,-25.403 0.69,-37.11 -0.26,-5.855 -0.52,-11.5 -0.76,-16.855 -0.1,-5.375 -1.32,-10.352 -1.84,-15.043 0.67,-0.094 2.03,-0.282 2.71,-0.375 0.62,5.043 1.87,10.019 1.97,15.117 l 0.77,15.238 1.37,-0.062 c -2.15,-45.879 -13.11,-87.379 -30.91,-125.461 -17.95,-38.02 -42.87,-72.969 -76.76,-104 2.83,2.582 6.38,5.812 10.28,9.351 3.74,3.711 7.46,8.102 11.37,12.309 3.86,4.262 7.72,8.519 11.25,12.422 3.16,4.219 6.02,8.051 8.32,11.121 0.54,-0.41 1.09,-0.832 10.29,11.476 -17.49,-25.339 -41.19,-50.918 -68.14,-72.57 -26.71,-22.117 -57.78,-38.156 -86.024,-50.187 -7.101,-2.961 -6.89,-3.621 0.621,-1.59 7.664,1.621 22.016,7.64 42.883,18.07 9.89,6.199 19.34,11.32 27.65,17.238 8.15,6.153 16.04,11.86 23.69,17.86 7.19,6.551 14.39,13.09 21.95,19.961 7.07,7.359 14.14,15.422 22.03,24.031 l 1.06,-0.871 c -5.28,-5.77 -11.22,-12.25 -17.48,-19.102 -6.19,-6.918 -13.97,-12.929 -21.06,-19.617 -6.99,-6.851 -15.23,-12.18 -22.53,-17.891 -3.71,-2.781 -7.33,-5.48 -10.8,-8.082 -3.66,-2.308 -7.17,-4.519 -10.48,-6.609 -6.5,-4.348 0.44,-0.738 7.44,2.922 7.13,3.43 13.35,8.328 7.36,3.16 -6.48,-4.512 -13.4,-8.32 -20.05,-12.582 l -10.02,-6.301 c -3.48,-1.828 -6.97,-3.66 -10.49,-5.508 10.93,4.692 21.57,11.961 33,18.809 5.83,3.262 11.07,7.602 16.57,11.672 5.43,4.16 11.05,8.187 16.41,12.527 20.68,18.25 40.28,37.864 54.32,56.981 4.88,6.191 10.27,12.07 13.64,16.953 3.45,4.84 5.95,7.957 6.53,7.598 20.66,33.937 34.39,67.425 42.32,98.312 1.1,3.836 2.18,7.617 3.26,11.344 1.07,3.722 1.52,7.515 2.3,11.176 1.44,7.347 2.83,14.472 4.18,21.386 2.09,13.86 3.03,26.907 4.61,38.977 0.15,4.015 -0.02,12.086 -0.43,22.683 -0.4,5.282 -0.05,11.274 -1.23,17.567 -0.95,6.312 -1.96,13.062 -3.01,20.062 -0.56,3.496 -1.13,7.055 -1.7,10.653 -0.91,3.527 -1.82,7.093 -2.74,10.675 -1.87,7.161 -3.75,14.379 -5.61,21.473 -2.33,6.945 -4.96,13.664 -7.3,20.141 -2.48,6.422 -4.38,12.742 -7.26,18.101"
           style="fill:#e62648;fill-opacity:1;fill-rule:nonzero;stroke:none"
           id="path22" />
      </g>
    </g>
  </g>
</svg>
