<svg xmlns="http://www.w3.org/2000/svg" xmlns:xlink="http://www.w3.org/1999/xlink" width="162" height="70.054" viewBox="0 0 162 70.054">
  <defs>
    <clipPath id="clip-path">
      <rect id="Rectangle_693" data-name="Rectangle 693" width="162" height="70.054" transform="translate(1026 9832)" fill="#fff" stroke="#707070" stroke-width="1"/>
    </clipPath>
    <clipPath id="clip-path-2">
      <path id="path118-1" d="M977.5-121.878h137.118v-70.054H977.5Z" transform="translate(-977.498 191.932)"/>
    </clipPath>
  </defs>
  <g id="Brot_für_die_Welt" data-name="Brot für die Welt" transform="translate(-1026 -9832)" clip-path="url(#clip-path)">
    <g id="g10" transform="translate(1038.441 9832)">
      <g id="g112" transform="translate(0 0)">
        <g id="g114" transform="translate(0)" clip-path="url(#clip-path-2)">
          <g id="g120" transform="translate(70.403 9.974)">
            <path id="path122" d="M-11.8-6.468C-8.147-6.468-5.659-4.56-5.659.8c0,3.161-.365,8.286-6.084,8.286-2.176,0-6.785,0-6.785-7.808,0-5.722,2.433-7.749,6.731-7.749M7.294.7c0-13.46-5.034-17.966-18.733-17.966-14.47,0-20.06,4.172-20.06,18.965,0,15.351,9.174,18.745,19.8,18.745,10.936,0,19-3.061,19-19.744" transform="translate(31.499 17.27)" fill="#ec6502"/>
          </g>
          <g id="g124" transform="translate(0 51.494)">
            <path id="path126" d="M-.946-10.885H3.381V-21.3h2.6v-2.8H3.157v-.584c0-1.2.837-1.325,1.828-1.325a7.207,7.207,0,0,1,1.006.1l.343-2.948a13.7,13.7,0,0,0-2.264-.2c-3.691,0-5.015,1.171-5.015,4.964h-1.58v2.8h1.58Z" transform="translate(2.526 29.063)"/>
          </g>
          <g id="g128" transform="translate(10.044 56.457)">
            <path id="path130" d="M-7.882-7.913V-21.127H-12.21v7.079c0,2.343-1.426,2.952-2.366,2.952-1.375,0-2.141-.609-2.141-2.366v-7.665h-4.328v7.945c0,3.464,1.1,5.652,4.889,5.652a4.871,4.871,0,0,0,4.024-2.188h.05v1.806Z" transform="translate(21.045 21.127)"/>
          </g>
          <path id="path132" d="M1009.294-109.6h-3.82v3.182h3.82Z" transform="translate(-987.976 161.099)"/>
          <path id="path134" d="M1000.193-109.6h-3.82v3.182h3.82Z" transform="translate(-984.567 161.099)"/>
          <g id="g136" transform="translate(25.837 56.011)">
            <path id="path138" d="M0-.267V12.948H4.33V6.405A3.135,3.135,0,0,1,7.279,3.386a6.382,6.382,0,0,1,1.339.122L9.112-.668A6.96,6.96,0,0,0,7.853-.7a3.982,3.982,0,0,0-3.6,2.754H4.2V-.267Z" transform="translate(0 0.713)"/>
          </g>
          <g id="g140" transform="translate(40.765 51.495)">
            <path id="path142" d="M-4.122-4.726c1.886,0,2.574,1.757,2.574,3.665,0,1.681-.46,3.691-2.574,3.691-1.984,0-2.871-2.011-2.871-3.816,0-1.682.886-3.54,2.871-3.54M-5.1,5.941A4.225,4.225,0,0,0-1.459,4.033h.05V5.559H2.717V-12.618h-4.33v6.39H-1.66A4.434,4.434,0,0,0-5.431-8.035c-3.741,0-5.575,3.259-5.575,6.7,0,3.714,1.756,7.279,5.908,7.279" transform="translate(11.006 12.618)"/>
          </g>
          <g id="g144" transform="translate(57.112 56.457)">
            <path id="path146" d="M-2.59,0H-6.916V13.215H-2.59Z" transform="translate(6.916)"/>
          </g>
          <g id="g148" transform="translate(57.111 51.494)">
            <path id="path150" d="M-2.59,0H-6.916V3.311H-2.59Z" transform="translate(6.916)"/>
          </g>
          <g id="g152" transform="translate(63.375 56.077)">
            <path id="path154" d="M-4.269-1.753A2.673,2.673,0,0,1-1.7.944H-7.071a2.853,2.853,0,0,1,2.8-2.7M-11.4,2.27c0,4.428,2.927,7.024,7.23,7.024,2.952,0,5.779-1.321,6.57-4.376H-1.646a2.586,2.586,0,0,1-2.471,1.45,2.82,2.82,0,0,1-2.953-3h9.7c.2-4.482-2.164-8.046-6.9-8.046A6.936,6.936,0,0,0-11.4,2.27" transform="translate(11.398 4.682)"/>
          </g>
          <g id="g156" transform="translate(82.423 51.495)">
            <path id="path158" d="M-5.824-10.884l2.5-12.528h.049l2.5,12.528H3.954L8.97-29.061H4.236L1.662-15.772H1.61l-2.671-13.29H-5.519l-2.672,13.29H-8.24l-2.574-13.29h-4.737l4.914,18.177Z" transform="translate(15.551 29.061)"/>
          </g>
          <g id="g160" transform="translate(106.104 56.077)">
            <path id="path162" d="M-4.27-1.753A2.678,2.678,0,0,1-1.7.944H-7.071a2.852,2.852,0,0,1,2.8-2.7m.1,11.048c2.953,0,5.782-1.321,6.571-4.376H-1.647a2.588,2.588,0,0,1-2.471,1.45,2.818,2.818,0,0,1-2.952-3h9.7c.2-4.482-2.164-8.046-6.9-8.046A6.936,6.936,0,0,0-11.4,2.27c0,4.428,2.928,7.024,7.23,7.024" transform="translate(11.4 4.682)"/>
          </g>
          <g id="g164" transform="translate(122.169 51.494)">
            <path id="path166" d="M0-10.884H4.327V-29.061H0v18.177Z" transform="translate(0 29.061)"/>
          </g>
          <g id="g168" transform="translate(127.928 52.461)">
            <path id="path170" d="M-5.5-4.071v-2.8H-8.175v-4h-2.477a5.528,5.528,0,0,1-4.041,4v2.8H-12.5V1.811c0,3.592.942,4.657,4.634,4.657.789,0,1.578-.1,2.368-.125V3.16c-.38,0-.762.053-1.12.053-.94,0-1.552-.23-1.552-1.275V-4.071Z" transform="translate(14.692 10.869)"/>
          </g>
          <g id="g172" transform="translate(1.328 0)">
            <path id="path174" d="M-13.215-21.661h-7.711v-9.351h7.384c3.393,0,5.026,1.617,5.026,4.571,0,3.867-1.7,4.78-4.7,4.78m-7.711-25.971h6.76c2.936,0,4.083.956,4.083,3.6,0,3.384-1.894,4.339-4.9,4.339h-5.947ZM5.378-25.4c0-6.852-2.947-10.692-7.63-11.618,4.21-1.2,5.743-4.437,5.743-9.136,0-6.465-2.066-11.684-13.315-11.684h-25.46v46.6H-7.352c8.223,0,12.73-4.83,12.73-14.163" transform="translate(35.284 57.837)"/>
          </g>
          <g id="g176" transform="translate(45.59 11.743)">
            <path id="path178" d="M-7.737-14.839c0-9.594,1.694-11.131,8.873-11.131L2.729-39.483c-3.891-.515-9.657.172-12.014,6.436l-.079-5.418H-20.659V-4.593H-7.737Z" transform="translate(20.659 39.62)"/>
          </g>
          <g id="g180" transform="translate(111.263 2.417)">
            <path id="path182" d="M-2.884-18.311c0,12.537,6.573,14.33,12.057,14.33,2.738,0,6.9-.164,8.982-.335v-9.972L14.521-14.3c-3.262,0-3.979-1.592-3.979-6.768v-7.25h7.613V-38.58H10.542V-48.891H1.379C.891-44.015-.839-38.58-7.7-38.58v10.259h4.817Z" transform="translate(7.701 48.891)"/>
          </g>
        </g>
      </g>
    </g>
  </g>
</svg>
