<?xml version="1.0" encoding="UTF-8"?>
<svg width="422px" height="80px" viewBox="0 0 422 80" version="1.1" xmlns="http://www.w3.org/2000/svg" xmlns:xlink="http://www.w3.org/1999/xlink">
    <title>Group 68 Copy</title>
    <defs>
        <polygon id="path-1" points="0.000399221086 0.104433298 88.6220676 0.104433298 88.6220676 66.846837 0.000399221086 66.846837"></polygon>
        <polygon id="path-3" points="0.46031857 0.612390011 6.85439574 0.612390011 6.85439574 9.6159099 0.46031857 9.6159099"></polygon>
        <polygon id="path-5" points="0 78.7529787 421.506886 78.7529787 421.506886 0.104433298 0 0.104433298"></polygon>
    </defs>
    <g id="Symbols" stroke="none" stroke-width="1" fill="none" fill-rule="evenodd">
        <g id="Header" transform="translate(-689.000000, -69.000000)">
            <g id="Group-68-Copy" transform="translate(689.000000, 69.658102)">
                <path d="M410.364725,25.7104507 L408.655659,37.3641796 C408.587839,37.6124226 408.514932,38.1705416 408.133444,38.845078 C407.490849,40.137654 405.995416,41.0416013 404.457596,41.0090729 C401.687145,40.9542882 401.736315,38.530066 401.961817,36.4208558 L403.659014,25.4502235 C403.865866,24.3356976 404.162578,21.7300013 407.548496,21.7984821 C410.257908,21.791634 410.595313,23.4146302 410.364725,25.7104507 M418.001266,41.1597307 C417.199293,41.2059553 416.283722,40.7522697 415.927667,40.0606131 C415.393584,39.1172893 415.610608,37.5062773 415.75303,36.513305 L421.17355,2.3653286 L413.713341,2.89776721 L411.002233,21.4954543 C410.658047,20.2456788 410.364725,19.4923894 410.068012,18.9890552 C409.294863,17.605742 407.66379,16.0186983 403.970987,15.9433693 C400.03064,15.8629043 398.026557,17.5646535 396.90583,21.3345243 C396.576902,22.3839934 396.444653,22.8171348 396.159809,24.7380226 L394.167594,38.2527186 C394.091296,38.9957358 394.013303,39.8020979 393.998044,40.6101719 C393.926833,44.1540559 395.257802,45.3610309 396.659982,46.0749438 C398.062162,46.7871447 399.169325,46.8094009 399.723754,46.8196731 C404.647492,46.9206823 407.055105,43.4880797 408.065624,42.2023517 C407.704482,44.9313136 408.301299,45.8746373 409.767908,46.4019399 C410.195175,46.5971103 411.114137,46.8025529 412.284033,46.8265211 C414.315244,46.8676097 416.295591,46.4105 418.398013,45.9551023 L420.48009,40.2780398 C419.734069,40.697485 418.923619,41.178563 418.001266,41.1597307" id="Fill-1" fill="#000000"></path>
                <path d="M375.815819,15.4172652 L368.353915,16.0113366 L364.2508,45.8347472 L371.711009,45.3023086 L374.428899,26.2697681 C374.505196,25.5866716 374.649314,24.4704337 374.90703,23.9157388 C375.488588,22.56153 376.79582,21.9024018 377.167134,21.7243516 C378.101356,21.2466976 378.716823,21.2586818 379.208519,21.2689539 C380.132568,21.2877862 381.049834,21.5548615 381.590699,22.2499421 C382.37063,23.2600347 382.153606,24.8727587 382.009488,25.9256518 L379.695128,40.1165962 C379.625612,40.5514496 379.488277,41.2944668 379.466235,42.3507839 C379.445889,43.4071011 379.679868,43.9720681 379.918934,44.3487128 C380.278381,44.853759 380.76499,45.175619 381.314332,45.4341342 C382.655474,46.1463351 383.886409,46.1703034 384.439143,46.1822875 C385.915925,46.2113919 387.028174,46.0470379 389.754541,45.2321157 L392.448694,39.7536476 C391.516168,40.1696688 390.273365,40.7671642 389.166202,40.744908 C387.072257,40.7021074 387.353711,38.9661179 387.569039,37.4167386 L389.946133,23.1641615 C390.091946,22.0479236 390.161462,21.676415 390.175026,20.9933185 C390.220804,18.6940739 389.662984,15.7596695 384.245855,15.6501001 C381.477101,15.5936034 379.06101,16.2903961 377.182394,17.9322245 C376.24139,18.783099 375.291909,20.068827 375.040975,20.3136461 L375.815819,15.4172652 Z" id="Fill-3" fill="#000000"></path>
                <path d="M350.313774,25.2208126 C350.52232,24.042942 350.676611,22.4918507 351.617615,21.5793434 C352.121179,21.0297846 352.738342,20.9185032 353.540314,20.9339114 C355.323982,20.9698638 355.803809,21.6632324 355.766508,23.5276236 C355.735989,25.0205061 355.212079,26.6263821 355.081525,26.9961787 C354.030314,30.3329082 352.350072,31.1683746 349.186265,32.40959 L350.313774,25.2208126 Z M349.30495,38.7543408 C348.942113,38.4359049 348.648791,37.7459603 348.672528,36.5030329 C348.689483,35.6949588 348.758998,35.2618174 348.828514,34.8903088 C349.87803,34.7242427 355.003532,34.020602 358.752287,31.2368554 C360.252806,30.0846651 362.95035,27.6535949 363.050385,22.5569075 C363.13516,18.331639 361.502391,16.8678608 359.978135,16.0906032 C357.78246,15.0514063 354.8272,15.0531183 354.087961,15.0394221 C353.163913,15.0205899 348.428375,14.7997391 345.596887,17.7889283 C343.711489,19.7406325 343.160451,22.6510687 342.670451,25.6248497 L341.259793,34.6129614 C340.980035,36.3472389 340.89526,37.4651888 340.880001,38.2732629 C340.844395,40.0743092 341.130935,41.0758417 341.48699,41.7657863 C341.785399,42.2708325 342.261835,43.0258339 343.353738,43.8561642 C345.657925,45.6435144 348.736957,45.6435144 349.537234,45.6606347 C353.107961,45.7325396 357.49592,44.8885131 358.175816,44.7789437 L361.025955,37.6860396 C359.593256,38.528354 357.40945,39.975012 353.347027,39.892835 C352.300902,39.8722907 350.088272,39.6411679 349.30495,38.7543408 L349.30495,38.7543408 Z" id="Fill-5" fill="#000000"></path>
                <path d="M330.808549,25.198214 L329.565746,35.0577445 C329.494535,35.5542307 329.201213,37.911684 327.33277,38.9303366 C327.020798,39.1100989 326.524015,39.3497818 325.6627,39.3309496 C325.108271,39.3206775 324.679309,39.2487726 324.253738,38.9919694 C323.032977,38.4081701 322.992285,37.350141 323.165226,34.9293429 L324.54706,24.2617383 C324.899725,21.9693418 325.488064,20.2402003 328.134742,20.294985 C331.274812,20.3583298 331.035746,23.025659 330.808549,25.198214 L330.808549,25.198214 Z M331.868238,15.2719146 L331.593566,19.8053469 C331.242598,18.8654473 330.952667,17.9272596 330.293116,17.0421446 C328.970625,15.3986042 326.344292,14.3508471 324.313081,14.3097586 C323.021108,14.2840783 322.154707,14.5152012 321.657925,14.6915394 C321.161143,14.9295103 320.169274,15.2821867 319.282526,16.507994 C317.892215,18.28336 317.47173,20.8856324 317.059723,22.9914185 C315.737232,30.6116252 315.365917,33.8387853 315.287924,37.752466 C315.250623,39.6168571 315.338789,41.4230396 316.413737,43.061444 C317.431038,44.5731587 319.080762,45.2288629 320.925468,45.3281601 C322.40225,45.3589765 325.367683,44.8590663 327.826161,41.9862946 C328.205953,41.4966565 328.585746,41.0070184 328.9045,40.4540356 C328.394154,44.3608681 327.853289,46.8364509 326.837683,48.3704219 C325.825469,49.7177827 324.148617,50.4299835 322.363254,50.3940311 C320.823738,50.4248475 319.358824,49.7725674 318.394083,48.7590508 C318.031246,48.378982 317.614152,47.7489582 317.376782,47.3072567 L312.948131,53.2496826 C313.612768,53.8848425 314.095986,54.329968 314.88609,54.8435744 C316.954602,56.1293024 319.772526,56.8072628 322.112319,56.8551994 C325.620313,56.9253923 328.105919,55.7954582 329.289379,55.134618 C332.963532,53.0339679 334.499657,50.0807312 335.381318,46.0574812 C335.588169,44.9429553 335.733982,43.8250054 335.939138,42.7738244 L339.638723,14.6829793 L331.868238,15.2719146 Z" id="Fill-7" fill="#000000"></path>
                <path d="M297.188101,14.0084429 L289.731283,14.3542712 L286.518306,36.547203 C286.375884,37.4768306 286.235158,38.4064581 286.216507,39.3395097 C286.199552,40.2092165 286.299587,41.3305904 286.714985,42.1472246 C286.893012,42.4622365 287.252459,42.9655708 287.616992,43.222374 C288.82758,44.2410266 290.485781,44.5235101 292.08464,44.5560385 C295.224709,44.6210953 297.517028,43.9208786 299.536371,41.4127675 C300.168793,40.6166776 300.741873,39.6339774 300.870731,39.3874463 C300.735091,39.9455652 300.602842,40.4386274 300.590973,40.9984583 C300.574018,41.8681651 300.865644,42.74472 301.408205,43.3165351 C302.130489,44.1383053 303.227479,44.6587598 305.506233,44.7049844 C308.152912,44.758057 310.195992,44.1776818 311.125127,43.8866382 L313.631079,38.6529892 C312.888449,38.8241913 311.403189,39.1665956 310.602913,39.1511874 C308.203777,39.1015387 308.424192,37.3022044 308.644608,35.504582 L311.898276,14.3063346 L304.561839,14.7788525 L301.396337,34.6109069 C300.857167,36.9632242 300.204399,38.8156312 297.311872,38.7557104 C296.14028,38.7950869 294.917823,38.3345532 294.443083,37.4545743 C294.02938,36.5763074 294.244709,35.0885609 294.322702,34.2188541 L297.188101,14.0084429 Z" id="Fill-9" fill="#000000"></path>
                <path d="M278.311738,8.21616131 C279.51724,9.48476907 280.931288,9.63713897 281.546755,9.64912312 C284.069662,9.70048376 286.202604,7.75391556 286.255165,5.14479514 C286.304334,2.59559546 284.313815,0.503505457 281.790908,0.452144819 C279.268001,0.400784181 277.135059,2.34735237 277.084194,4.95818482 C277.072326,5.51801578 277.165578,7.01089833 278.311738,8.21616131" id="Fill-11" fill="#000000"></path>
                <polygon id="Fill-13" fill="#000000" points="284.298555 13.6846997 276.770526 14.5270141 270.563293 55.6172368 277.967551 54.8348431"></polygon>
                <path d="M195.453741,14.0084429 L192.924052,30.1391074 C192.298412,34.1195568 191.335367,38.4680909 186.265816,38.4680909 C181.194569,38.4680909 181.594708,34.1195568 182.220348,30.1391074 L184.750037,14.0084429 L176.864257,14.0084429 L174.161627,31.234801 C173.542769,35.175874 173.091765,39.0758584 175.645191,42.0427913 C177.784915,44.5611746 181.626923,45.4548497 185.168826,45.4548497 C188.709034,45.4548497 192.832495,44.5611746 195.764018,42.0427913 C199.246579,39.0758584 200.018033,35.175874 200.636891,31.234801 L203.341217,14.0084429 L195.453741,14.0084429 Z" id="Fill-15" fill="#000000"></path>
                <polygon id="Fill-17" fill="#000000" points="202.698282 44.6426668 210.585758 44.6426668 213.529149 25.8720655 225.111123 44.6426668 232.996903 44.6426668 237.803651 14.0077581 229.917872 14.0077581 226.979567 32.7372709 215.392506 14.0077581 207.506726 14.0077581"></polygon>
                <path d="M162.703933,35.2969139 C162.174937,38.6695958 158.251545,38.5480423 155.916839,38.5480423 L154.911406,38.5480423 L155.943967,31.9653205 L156.74933,31.9653205 C159.323102,31.9653205 163.283795,31.6006599 162.703933,35.2969139 L162.703933,35.2969139 Z M157.805628,20.102725 L158.368535,20.102725 C160.501476,20.102725 162.929435,20.2653671 162.4903,23.0679459 C162.081684,25.6685062 159.852099,26.0348788 157.759849,26.0348788 L156.874797,26.0348788 L157.805628,20.102725 Z M165.571027,28.308443 C168.236356,26.9679304 169.470682,24.7337426 169.90473,21.9705402 C170.821997,16.1205635 167.532723,14.0079293 162.141027,14.0079293 L150.874416,14.0079293 L146.067668,44.642838 L158.21933,44.642838 C163.7721,44.642838 169.536806,42.5302038 170.543935,36.110124 C171.211962,31.8437669 169.828433,28.8785461 165.571027,28.308443 L165.571027,28.308443 Z" id="Fill-19" fill="#000000"></path>
                <path d="M258.115596,29.3253836 C257.179679,35.2969139 252.745941,37.8974742 248.039228,37.8974742 L246.269123,37.8974742 L248.959885,20.7515811 L250.809678,20.7515811 C255.880924,20.7515811 258.976911,23.8400675 258.115596,29.3253836 M253.317325,14.0079293 L242.130403,14.0079293 L237.323655,44.642838 L248.510577,44.642838 C256.918572,44.642838 264.973902,37.9385627 266.323521,29.3253836 C267.674836,20.7122046 261.766012,14.0079293 253.317325,14.0079293" id="Fill-21" fill="#000000"></path>
                <path d="M44.7093707,68.4091174 C46.1437653,68.4091174 48.4140425,69.6160924 50.0264649,70.2786446 C51.6388874,70.9429089 55.7962583,72.9476858 55.7962583,72.9476858 C55.7962583,72.9476858 45.4859106,66.7193524 44.9484364,66.4180366 C44.4109623,66.1167209 42.4390935,65.0912201 42.3797509,63.5829294 C42.3204083,62.0746386 43.6937649,61.8931644 45.426568,62.0147179 C47.1593711,62.1362714 52.6544931,64.4269559 53.6107562,64.9696666 C54.5670193,65.5140894 56.5388882,66.6594316 56.5388882,66.6594316 C56.5388882,66.6594316 57.5544939,66.8409059 58.2699957,66.9008266 C58.9888886,66.9607474 62.1916919,67.3904647 62.1916919,67.3904647 C62.1916919,67.3904647 58.9278505,66.1167209 58.510757,65.8753259 C58.091968,65.6339309 54.5670193,62.9203772 53.9702026,62.6173494 C53.3716904,62.3160336 48.7124509,59.1796107 47.8155303,58.5153464 C47.2899247,58.1267176 46.3455301,56.8461257 46.4099592,55.829185 C46.4269142,55.5758059 47.0135579,54.1770845 48.4818626,54.3345905 C51.1692333,54.62221 54.6467079,56.7040279 55.4588534,56.9385748 C56.7135249,57.2998113 60.7403421,59.61104 61.0387505,59.6709608 C61.3388543,59.7308815 67.2544609,61.4634471 68.3531462,61.4634471 C69.453527,61.4634471 71.7933197,60.6433889 72.5817282,60.011653 C73.3718321,59.3816292 74.0347734,59.3251325 74.6332856,57.515526 C75.2301023,55.7059195 73.5651193,52.4239747 72.4308285,50.4928147 C71.2948421,48.5616547 71.5932505,43.1328352 72.6088562,41.746098 C73.6244619,40.3576488 75.1181992,42.2888088 75.3572649,42.8914402 C75.5963307,43.4957838 77.5681996,45.848101 78.1056737,46.7520482 C78.6431478,47.6577075 79.6587535,49.5272347 80.2555702,50.191499 C80.8540825,50.8540512 82.4071623,52.7252905 83.4821106,54.2335812 C84.5570588,55.7401599 85.8575089,59.7240334 87.4750178,59.9808366 C89.0925267,60.2393518 94.8962301,53.7610633 97.1054692,51.7528624 C98.4127013,50.1863629 99.9861271,47.2297022 101.562944,44.4647878 C102.15637,32.1005701 96.3509708,20.7036445 86.8900696,13.8572714 C86.3186854,14.2390522 85.5964016,14.2407642 85.5964016,14.2407642 C85.5964016,14.2407642 87.5343604,15.3210496 88.043011,15.9425133 C88.5516616,16.5639771 88.6889972,17.2504976 88.5940491,17.9027777 C88.4974055,18.5550578 87.5886164,19.0241516 87.5886164,19.0241516 C87.5886164,19.0241516 89.0552257,20.4554014 87.8480282,21.7274332 C86.6408308,22.999465 85.7846023,23.1124584 85.7846023,23.1124584 L82.4478543,22.5492034 C82.4478543,22.5492034 82.8259513,24.0592062 81.6865739,24.8570081 C80.5505876,25.65481 75.9557772,26.295106 74.111071,26.1992328 C72.2663648,26.1016476 70.0096516,25.9458536 68.0462603,25.8311482 C66.0845645,25.7164428 63.6616921,25.4733358 63.6616921,25.4733358 C63.6616921,25.4733358 53.3089568,29.3647601 50.9335585,29.6112912 C48.5581602,29.8595343 46.3268796,28.3118671 45.0891631,28.9744193 C43.8514466,29.6352595 39.6143871,36.3857594 37.6526913,39.1181454 C36.6065666,40.5733634 34.3244209,44.8243123 31.7116523,48.984524 C33.0883999,56.8529738 37.0626566,63.9338938 42.8019309,69.1743909 C43.1698548,68.7241293 43.8904432,68.4091174 44.7093707,68.4091174" id="Fill-23" fill="#96BE00"></path>
                <g id="Group-27">
                    <mask id="mask-2" fill="white">
                        <use xlink:href="#path-1"></use>
                    </mask>
                    <g id="Clip-26"></g>
                    <path d="M45.0891631,28.9739057 C46.3268796,28.3113534 48.5581602,29.8590207 50.9335585,29.6107776 C53.3089568,29.3642465 63.6616921,25.4728222 63.6616921,25.4728222 C63.6616921,25.4728222 66.0845645,25.7159292 68.0462603,25.8306346 C70.0096516,25.94534 72.2663648,26.102846 74.111071,26.1987192 C75.9557772,26.2945924 80.5505876,25.6542964 81.6882694,24.8564945 C82.8259513,24.0604046 82.4478543,22.5504019 82.4478543,22.5504019 L85.7846023,23.1119448 C85.7846023,23.1119448 86.6408308,22.9989514 87.8480282,21.7269196 C89.0552257,20.4548878 87.5886164,19.023638 87.5886164,19.023638 C87.5886164,19.023638 88.4974055,18.5545442 88.5940491,17.9022641 C88.6889972,17.251696 88.5516616,16.5634634 88.043011,15.9419997 C87.5343604,15.320536 85.5964016,14.2419626 85.5964016,14.2419626 C85.5964016,14.2419626 86.3186854,14.2402506 86.8900696,13.8567578 C87.1749139,13.6667234 87.4224572,13.3842399 87.5241874,12.9562346 C87.8344642,11.6705066 86.0304501,10.490924 85.3878548,9.97046951 C84.7435641,9.44830302 82.0392384,8.67789345 80.9795496,7.73114568 C79.9198609,6.78439791 77.4172999,5.86161845 76.8153967,5.46785355 C76.2134935,5.07580068 75.2657078,4.99362366 73.6838045,4.33107143 C72.1019011,3.66851919 70.8082331,3.18915323 70.8082331,3.18915323 C70.8387521,3.18230515 67.5223502,1.67572643 65.258855,0.615985255 C63.8566748,-0.0414309149 60.0774009,-0.272553787 59.0194076,1.20320855 C57.9614143,2.67897089 54.0854968,4.22492611 52.7714827,4.99533568 C51.4574686,5.76574526 48.7311014,8.38342579 46.5964644,10.2443929 C44.4635229,12.101936 40.1908578,13.8208054 38.9616188,14.4234369 C37.7340754,15.0243563 33.1324829,18.1470831 30.9317213,20.0559869 C28.7292642,21.9666026 22.0371178,28.2873851 19.5430343,30.1517763 C17.0472554,32.0161675 10.3127214,37.0803264 7.54057563,38.7820756 C4.77012535,40.4855367 2.65922535,44.6817009 1.94711451,46.6008767 C1.31299676,48.5286127 1.06036696,49.2990223 0.784000129,51.5520423 C0.870470731,53.8067743 0.412685189,56.0991708 0.048152257,58.1638684 C-0.318076177,60.2285661 1.49271997,61.7745213 3.06784133,63.7073933 C4.6412672,65.6402654 7.80507394,66.9636578 9.38189081,66.8386803 C10.9604032,66.7137027 13.9767013,64.563404 16.1706809,62.712709 C18.3629649,60.863726 19.9770829,61.1410734 24.6719279,57.7906478 C26.8659075,56.2241483 29.4159425,52.6391758 31.7116523,48.9857224 C34.3244209,44.8237987 36.6065666,40.5728498 37.6526913,39.1176317 C39.6143871,36.3852458 43.8514466,29.6347459 45.0891631,28.9739057" id="Fill-25" fill="#000000" mask="url(#mask-2)"></path>
                </g>
                <path d="M128.741672,43.4769515 C128.260149,41.2872763 125.876273,41.0715616 124.567346,39.9929882 C122.810806,38.5429062 119.97084,35.9115295 117.127483,35.4629799 C112.168139,34.6805862 107.597066,36.433696 105.082637,39.1438257 C103.989038,40.3234083 102.775058,42.3367454 101.562774,44.4647878 C99.9876531,47.2297022 98.4125317,50.1863629 97.1069952,51.7528624 C94.8960605,53.7610633 89.0923572,60.2393518 87.4748482,59.9808366 C85.8573393,59.7240334 84.5585848,55.7401599 83.481941,54.2335812 C82.4069927,52.7252905 80.8539129,50.8540512 80.2554007,50.191499 C79.658584,49.5272347 78.6429783,47.6577075 78.1055042,46.7520482 C77.56803,45.848101 75.5961612,43.4957838 75.3570954,42.8914402 C75.1180296,42.2888088 73.6242923,40.3576488 72.6086866,41.746098 C71.5930809,43.1328352 71.2946726,48.5616547 72.4306589,50.4928147 C73.5649498,52.4239747 75.2299327,55.7059195 74.633116,57.515526 C74.0346038,59.3251325 73.3716625,59.3816292 72.5815586,60.011653 C71.7931502,60.6433889 69.4533574,61.4634471 68.3529766,61.4634471 C67.2542913,61.4634471 61.3386848,59.7308815 61.0402764,59.6709608 C60.7401726,59.61104 56.7133553,57.2998113 55.4586838,56.9385748 C54.6465384,56.7040279 51.1690638,54.62221 48.4816931,54.3345905 C47.0133883,54.1770845 46.4267446,55.5758059 46.4097896,55.829185 C46.3453605,56.8461257 47.2897552,58.1267176 47.8153608,58.5153464 C48.7122813,59.1796107 53.3732164,62.3160336 53.9700331,62.6173494 C54.5668498,62.9203772 58.0917984,65.6339309 58.5105874,65.8753259 C58.9276809,66.1167209 62.1915223,67.3904647 62.1915223,67.3904647 C62.1915223,67.3904647 58.988719,66.9607474 58.2715217,66.9008266 C57.5543243,66.8409059 56.5387186,66.6594316 56.5387186,66.6594316 C56.5387186,66.6594316 54.5668498,65.5140894 53.6105866,64.9696666 C52.656019,64.4269559 47.1592015,62.1345594 45.4263984,62.0147179 C43.6935954,61.8931644 42.3202388,62.0746386 42.3795813,63.5829294 C42.4389239,65.0912201 44.4107927,66.1167209 44.9482669,66.4180366 C45.485741,66.7193524 55.7960887,72.9476858 55.7960887,72.9476858 C55.7960887,72.9476858 51.6404133,70.9429089 50.0262954,70.2786446 C48.413873,69.6160924 46.1435958,68.4091174 44.7092011,68.4091174 C43.8902736,68.4091174 43.1713808,68.7241293 42.8034568,69.1743909 C42.52709,69.5116591 42.4474014,69.9259682 42.6779897,70.3385654 C43.2154638,71.3041454 46.6810699,73.1753846 47.8153608,73.8379368 C48.9513471,74.5022011 54.6872304,78.0614933 55.7621787,78.3028883 C56.837127,78.5442833 63.8276817,78.6641248 65.1416958,78.7240456 C66.4557099,78.7839663 74.0430813,78.7839663 76.4320437,78.3628091 C78.8227015,77.9399398 81.810176,77.2157548 81.810176,77.2157548 C81.810176,77.2157548 84.4687232,76.6251075 84.6637059,76.5771709 C85.8607303,76.2809912 90.5742259,75.4438128 91.9001085,74.9336305 C93.2259911,74.4251601 106.027031,69.5441875 108.429558,67.8612706 C110.830388,66.1766416 118.355026,60.4756108 119.626653,59.0974336 C120.898279,57.7209685 125.769457,53.0368783 126.77828,48.9708278 C127.20046,47.2656546 129.221499,45.6666267 128.741672,43.4769515" id="Fill-28" fill="#000000"></path>
                <g id="Group-32" transform="translate(414.652490, 63.344787)">
                    <mask id="mask-4" fill="white">
                        <use xlink:href="#path-3"></use>
                    </mask>
                    <g id="Clip-31"></g>
                    <polygon id="Fill-30" fill="#000000" mask="url(#mask-4)" points="5.79775889 9.6159099 6.85575214 9.6159099 6.85575214 0.612390011 5.79775889 0.612390011 5.79775889 4.53463076 1.51831182 4.53463076 1.51831182 0.612390011 0.46031857 0.612390011 0.46031857 9.6159099 1.51831182 9.6159099 1.51831182 5.48651459 5.79775889 5.48651459"></polygon>
                </g>
                <polygon id="Fill-33" fill="#000000" points="409.610396 63.9571772 402.999634 63.9571772 402.999634 64.9090611 405.776866 64.9090611 405.776866 72.9606971 406.833164 72.9606971 406.833164 64.9090611 409.610396 64.9090611"></polygon>
                <path d="M394.382584,68.1761113 L393.38902,68.1761113 L393.38902,64.858214 C393.448362,64.8410938 393.526355,64.8273977 393.624694,64.8188376 C393.721338,64.8102774 393.826459,64.8017173 393.936667,64.7931572 C394.046874,64.7845971 394.160473,64.7811731 394.280854,64.7811731 L394.62504,64.7811731 C395.184556,64.7811731 395.621996,64.9301189 395.935664,65.2297227 C396.251027,65.5310384 396.407013,65.9128191 396.407013,66.3750649 C396.407013,66.9931046 396.217117,67.4467902 395.833933,67.7395459 C395.452445,68.0305895 394.967532,68.1761113 394.382584,68.1761113 L394.382584,68.1761113 Z M396.115387,69.3984945 L395.503311,68.9225526 C396.089954,68.7770307 396.573172,68.4842751 396.95466,68.0477097 C397.337844,67.6094322 397.52774,67.0393291 397.52774,66.3374004 C397.52774,65.8820028 397.448051,65.496798 397.286979,65.178362 C397.125906,64.8616381 396.910577,64.6048349 396.642688,64.4079524 C396.376494,64.209358 396.066217,64.0689722 395.713553,63.9833712 C395.360888,63.8977701 394.989573,63.8549696 394.599608,63.8549696 C394.250335,63.8549696 393.865456,63.8720898 393.446667,63.9063302 C393.026182,63.9405706 392.654867,63.9867952 392.331026,64.046716 L392.331026,72.9612107 L393.38902,72.9612107 L393.38902,68.8831761 L394.636909,69.0766345 L397.095387,72.9612107 L398.331408,72.9612107 L396.115387,69.3984945 Z" id="Fill-35" fill="#000000"></path>
                <path d="M381.929969,69.5392226 L382.904883,66.8256689 L383.221942,65.4355076 L383.235506,65.4355076 L383.552565,66.7999886 L384.541042,69.5392226 L381.929969,69.5392226 Z M383.503395,63.8159355 L383.018481,63.8159355 L379.642737,72.9615531 L380.70073,72.9615531 L381.587478,70.4654261 L384.858101,70.4654261 L385.770281,72.9615531 L386.891008,72.9615531 L383.503395,63.8159355 Z" id="Fill-37" fill="#000000"></path>
                <polygon id="Fill-39" fill="#000000" points="369.402922 72.9606971 374.319878 72.9606971 374.319878 72.0088133 370.460915 72.0088133 370.460915 68.8056215 373.93839 68.8056215 373.93839 67.8537377 370.460915 67.8537377 370.460915 64.9090611 374.255449 64.9090611 374.255449 63.9571772 369.402922 63.9571772"></polygon>
                <polygon id="Fill-41" fill="#000000" points="351.786487 72.9606971 356.703443 72.9606971 356.703443 72.0088133 352.84448 72.0088133 352.84448 68.8056215 356.320259 68.8056215 356.320259 67.8537377 352.84448 67.8537377 352.84448 64.9090611 356.639013 64.9090611 356.639013 63.9571772 351.786487 63.9571772"></polygon>
                <polygon id="Fill-43" fill="#000000" points="344.466157 72.9606971 345.52415 72.9606971 345.52415 63.9571772 344.466157 63.9571772 344.466157 67.879418 340.18671 67.879418 340.18671 63.9571772 339.128716 63.9571772 339.128716 72.9606971 340.18671 72.9606971 340.18671 68.8313018 344.466157 68.8313018"></polygon>
                <polygon id="Fill-45" fill="#000000" points="333.626134 63.9571772 327.015372 63.9571772 327.015372 64.9090611 329.790909 64.9090611 329.790909 72.9606971 330.848902 72.9606971 330.848902 64.9090611 333.626134 64.9090611"></polygon>
                <polygon id="Fill-47" fill="#000000" points="310.493553 72.9606971 311.551546 72.9606971 311.551546 68.9340231 315.091754 68.9340231 315.091754 67.9838513 311.551546 67.9838513 311.551546 64.9090611 315.346079 64.9090611 315.346079 63.9571772 310.493553 63.9571772"></polygon>
                <path d="M302.780884,71.2567224 C302.32988,71.8610659 301.711022,72.1640936 300.920918,72.1640936 C300.488565,72.1640936 300.112163,72.0630844 299.793409,71.8610659 C299.47635,71.6590474 299.213547,71.388548 299.010087,71.0512798 C298.806627,70.7122996 298.655727,70.3202467 298.557388,69.8734092 C298.460744,69.4282836 298.411575,68.9557658 298.411575,68.4592796 C298.411575,67.1992319 298.633686,66.2661803 299.081298,65.6618368 C299.527215,65.0574933 300.139291,64.7544656 300.920918,64.7544656 C301.361748,64.7544656 301.743236,64.8554748 302.060295,65.0574933 C302.37905,65.2577998 302.641852,65.5282992 302.850399,65.8672794 C303.058946,66.2062596 303.211541,66.6000245 303.30988,67.0502861 C303.406524,67.5005477 303.455693,67.9696415 303.455693,68.4592796 C303.455693,69.7193273 303.231887,70.6523789 302.780884,71.2567224 M304.361091,66.5486639 C304.215278,65.9785608 303.993167,65.4906347 303.691368,65.0831736 C303.391264,64.6757126 303.009776,64.3607007 302.551991,64.1364259 C302.09251,63.9138631 301.549949,63.8025817 300.920918,63.8025817 C299.757803,63.8025817 298.862578,64.2031947 298.233547,65.0061327 C297.604516,65.8073586 297.290848,66.9578369 297.290848,68.4592796 C297.290848,69.1629203 297.363755,69.7997923 297.507872,70.3681833 C297.65199,70.9399984 297.874101,71.4279245 298.1759,71.8353856 C298.477699,72.2428466 298.855796,72.5578585 299.310191,72.7804213 C299.764585,73.0029841 300.30206,73.1159775 300.920918,73.1159775 C302.09251,73.1159775 302.996212,72.7136525 303.628635,71.9124265 C304.261057,71.1112006 304.57642,69.9590102 304.57642,68.4592796 C304.57642,67.7556389 304.505209,67.1187669 304.361091,66.5486639" id="Fill-49" fill="#000000"></path>
                <path d="M283.973358,71.340269 C283.866541,71.5285913 283.724119,71.6860973 283.546091,71.8093628 C283.368064,71.9343404 283.156126,72.0233655 282.910278,72.0798622 C282.662735,72.1363589 282.399932,72.1637512 282.120174,72.1637512 C281.643738,72.1637512 281.214776,72.1106786 280.833288,72.0062453 C280.4518,71.901812 280.161869,71.7956667 279.966887,71.6878093 L279.610831,72.6396931 C279.839724,72.7595346 280.161869,72.869104 280.578963,72.9666892 C280.994361,73.0659864 281.521662,73.1156351 282.157475,73.1156351 C282.633911,73.1156351 283.057787,73.0557143 283.432493,72.9358728 C283.805503,72.8160313 284.124258,72.6431172 284.38706,72.4205544 C284.649863,72.1979917 284.849933,71.9309163 284.985573,71.6227525 C285.121213,71.3145887 285.189033,70.9670484 285.189033,70.5818436 C285.189033,70.1093257 285.083912,69.7155608 284.871974,69.3971249 C284.658341,69.0804009 284.393842,68.8081895 284.075088,68.5804907 C283.756334,68.3545039 283.410451,68.1541974 283.037441,67.9829953 C282.662735,67.8117931 282.316853,67.638879 281.998098,67.4625408 C281.681039,67.2862026 281.414845,67.0876081 281.202908,66.8633334 C280.99097,66.6407706 280.884153,66.3634231 280.884153,66.027867 C280.884153,65.6854627 281.02488,65.387571 281.304638,65.1341919 C281.584396,64.8808127 282.00488,64.7541231 282.566091,64.7541231 C283.040832,64.7541231 283.468098,64.7986357 283.846195,64.8876608 C284.224292,64.9766859 284.510832,65.0691351 284.705815,65.1667203 L285.024569,64.2148364 C284.787199,64.094995 284.454881,63.9956977 284.031005,63.9186568 C283.605434,63.8416158 283.134084,63.8022393 282.616956,63.8022393 C281.725122,63.8022393 281.036748,64.0093939 280.55353,64.420279 C280.068617,64.8311641 279.82616,65.389283 279.82616,66.0929238 C279.82616,66.58941 279.932977,66.998583 280.144914,67.320443 C280.356852,67.642303 280.623046,67.9128024 280.9418,68.1319411 C281.260555,68.3493678 281.606437,68.5359781 281.979448,68.6900601 C282.352458,68.844142 282.700036,69.010208 283.017095,69.1865462 C283.335849,69.3611724 283.602043,69.5631909 283.813981,69.7908897 C284.025919,70.0168766 284.132735,70.3113442 284.132735,70.6708687 C284.132735,70.9276719 284.080175,71.1519467 283.973358,71.340269" id="Fill-51" fill="#000000"></path>
                <path d="M273.049408,69.7902049 C272.947678,70.2404665 272.774737,70.6393675 272.533975,70.9869078 C272.291519,71.3344481 271.969373,71.6100836 271.565844,71.8155261 C271.162314,72.0226807 270.662141,72.125402 270.068716,72.125402 C270.026328,72.125402 269.944944,72.1219779 269.826259,72.1185539 C269.707574,72.1134178 269.585497,72.1099938 269.456639,72.1048577 C269.329477,72.1014337 269.207401,72.0980096 269.08702,72.0928736 C268.968335,72.0877375 268.888646,72.0826014 268.846259,72.0740413 L268.846259,64.8698558 C268.905601,64.8612957 268.986985,64.8527356 269.093802,64.8441755 C269.200619,64.8356154 269.317608,64.8270553 269.444771,64.8184951 C269.571933,64.809935 269.700792,64.806511 269.833041,64.806511 L270.195878,64.806511 C270.782522,64.806511 271.267435,64.9160804 271.65401,65.1335071 C272.040584,65.3526458 272.349166,65.6334173 272.578059,65.9775336 C272.806951,66.3199378 272.968024,66.7034306 273.061277,67.1280119 C273.156225,67.5525931 273.202003,67.9754624 273.202003,68.3949076 C273.202003,68.8742736 273.151138,69.3399433 273.049408,69.7902049 M274.075187,66.5561967 C273.909028,65.9980778 273.656398,65.5204239 273.317297,65.1215229 C272.976501,64.722622 272.545844,64.4110341 272.023629,64.1884713 C271.501415,63.9659086 270.884252,63.8546272 270.170446,63.8546272 C269.992418,63.8546272 269.799131,63.8563392 269.590584,63.8614753 C269.382037,63.8648993 269.170099,63.8700354 268.954771,63.8734594 C268.737746,63.8785955 268.5292,63.8871556 268.32913,63.8991397 C268.129061,63.9128359 267.949338,63.9316681 267.788265,63.9573484 L267.788265,72.9745645 C267.87304,72.9916847 268.013767,73.0036689 268.20875,73.012229 C268.403733,73.0207891 268.61567,73.0310612 268.846259,73.0447574 C269.075151,73.0567415 269.297262,73.0653016 269.514286,73.0704377 C269.731311,73.0738617 269.907643,73.0772858 270.043283,73.0772858 C270.816432,73.0772858 271.474287,72.9454601 272.016847,72.6852329 C272.561104,72.4232937 273.001934,72.0757533 273.34273,71.642612 C273.68183,71.2094706 273.929374,70.7129844 274.087055,70.1497294 C274.244737,69.5881864 274.32273,69.0043872 274.32273,68.3949076 C274.32273,67.7255073 274.23965,67.1126037 274.075187,66.5561967" id="Fill-53" fill="#000000"></path>
                <polygon id="Fill-55" fill="#000000" points="260.964718 73.1022813 261.525929 73.1022813 261.525929 63.9566636 260.532365 63.9566636 260.532365 69.8220485 260.671396 71.0581279 260.608662 71.0581279 259.945721 69.8220485 255.678142 63.8162779 255.118627 63.8162779 255.118627 72.9601835 256.112191 72.9601835 256.112191 67.0691183 255.983333 65.7714062 256.035893 65.7714062 256.722571 67.0691183"></polygon>
                <polygon id="Fill-57" fill="#000000" points="244.400172 72.9606971 249.317127 72.9606971 249.317127 72.0088133 245.458165 72.0088133 245.458165 68.8056215 248.935639 68.8056215 248.935639 67.8537377 245.458165 67.8537377 245.458165 64.9090611 249.252698 64.9090611 249.252698 63.9571772 244.400172 63.9571772"></polygon>
                <mask id="mask-6" fill="white">
                    <use xlink:href="#path-5"></use>
                </mask>
                <g id="Clip-60"></g>
                <polygon id="Fill-59" fill="#000000" mask="url(#mask-6)" points="236.961665 72.9612107 238.019658 72.9612107 238.019658 63.9576909 236.961665 63.9576909"></polygon>
                <path d="M227.255425,68.1761113 L226.261861,68.1761113 L226.261861,64.858214 C226.321203,64.8410938 226.399196,64.8273977 226.497535,64.8188376 C226.594179,64.8102774 226.6993,64.8017173 226.809508,64.7931572 C226.919715,64.7845971 227.03501,64.7811731 227.153695,64.7811731 L227.497882,64.7811731 C228.057397,64.7811731 228.494837,64.9301189 228.808505,65.2297227 C229.123868,65.5310384 229.279854,65.9128191 229.279854,66.3750649 C229.279854,66.9931046 229.089958,67.4467902 228.706775,67.7395459 C228.325287,68.0305895 227.840373,68.1761113 227.255425,68.1761113 L227.255425,68.1761113 Z M228.988228,69.3984945 L228.376152,68.9225526 C228.962795,68.7770307 229.446013,68.4842751 229.829197,68.0477097 C230.210685,67.6094322 230.400581,67.0393291 230.400581,66.3374004 C230.400581,65.8820028 230.320892,65.496798 230.15982,65.178362 C229.998747,64.8616381 229.783418,64.6048349 229.515529,64.4079524 C229.249335,64.209358 228.939058,64.0689722 228.586394,63.9833712 C228.233729,63.8977701 227.862415,63.8549696 227.472449,63.8549696 C227.123176,63.8549696 226.739992,63.8720898 226.319508,63.9063302 C225.899023,63.9405706 225.527708,63.9867952 225.203867,64.046716 L225.203867,72.9612107 L226.261861,72.9612107 L226.261861,68.8831761 L227.50975,69.0766345 L229.968228,72.9612107 L231.204249,72.9612107 L228.988228,69.3984945 Z" id="Fill-61" fill="#000000" mask="url(#mask-6)"></path>
                <polygon id="Fill-62" fill="#000000" mask="url(#mask-6)" points="214.63699 72.9606971 215.694983 72.9606971 215.694983 68.9340231 219.235192 68.9340231 219.235192 67.9838513 215.694983 67.9838513 215.694983 64.9090611 219.489517 64.9090611 219.489517 63.9571772 214.63699 63.9571772"></polygon>
                <path d="M199.058209,69.0762921 L201.135199,69.3330953 L201.135199,71.8412064 C200.753711,72.0569211 200.292535,72.1630664 199.749974,72.1630664 C199.317621,72.1630664 198.920873,72.0877375 198.556341,71.9387916 C198.191808,71.7881338 197.881531,71.5604349 197.622119,71.2574072 C197.364403,70.9526674 197.162638,70.5691746 197.020216,70.1052169 C196.876098,69.6429711 196.803191,69.0934123 196.803191,68.4582524 C196.803191,67.7648838 196.893053,67.1810845 197.071081,66.7102787 C197.249108,66.2377608 197.479697,65.85598 197.759455,65.5649364 C198.039212,65.2738928 198.354576,65.0650262 198.708936,64.9417607 C199.059905,64.8167831 199.41596,64.7551504 199.772015,64.7551504 C200.528209,64.7551504 201.109767,64.8578716 201.516687,65.0633142 L201.784576,64.1114304 C201.555684,64.0172692 201.27423,63.9419403 200.943607,63.8854436 C200.612984,63.8306589 200.1925,63.8032665 199.682154,63.8032665 C199.207413,63.8032665 198.730977,63.8888676 198.256237,64.0600697 C197.779801,64.2312719 197.350839,64.5034832 196.969351,64.8767039 C196.586167,65.2499245 196.277586,65.7327145 196.040216,66.3233619 C195.80115,66.9157212 195.682465,67.6279221 195.682465,68.4582524 C195.682465,69.2560543 195.780804,69.9494229 195.975786,70.5366462 C196.170769,71.1238695 196.44205,71.6083715 196.791323,71.9901523 C197.138901,72.371933 197.550908,72.6544165 198.027344,72.8393148 C198.502084,73.0225011 199.024299,73.1149503 199.593988,73.1149503 C199.814403,73.1149503 200.0416,73.0995421 200.27558,73.0704377 C200.507863,73.0396213 200.733365,72.9951088 200.950389,72.935188 C201.165718,72.8752673 201.370874,72.8016504 201.562466,72.7160493 C201.752362,72.6304482 201.91513,72.5362871 202.052466,72.4335658 L202.052466,68.4719486 L199.058209,68.4719486 L199.058209,69.0762921 Z" id="Fill-63" fill="#000000" mask="url(#mask-6)"></path>
                <polygon id="Fill-64" fill="#000000" mask="url(#mask-6)" points="189.227519 73.1022813 189.78873 73.1022813 189.78873 63.9566636 188.795166 63.9566636 188.795166 69.8220485 188.934197 71.0581279 188.869768 71.0581279 188.208522 69.8220485 183.940944 63.8162779 183.381428 63.8162779 183.381428 72.9601835 184.374992 72.9601835 184.374992 67.0691183 184.246134 65.7714062 184.296999 65.7714062 184.985373 67.0691183"></polygon>
                <path d="M176.107046,69.6681378 C176.107046,70.5429807 175.957842,71.1712925 175.661129,71.5513612 C175.364416,71.933142 174.871025,72.1248884 174.184347,72.1248884 C173.826596,72.1248884 173.514624,72.0820878 173.24843,71.9964868 C172.98054,71.9108857 172.756734,71.7704999 172.578706,71.5787536 C172.400679,71.3852952 172.266734,71.131916 172.176873,70.8186161 C172.088706,70.5070282 172.044623,70.1235355 172.044623,69.6681378 L172.044623,63.9568348 L170.98663,63.9568348 L170.98663,70.1697601 C170.98663,71.1473242 171.254519,71.8766453 171.788603,72.3560112 C172.324381,72.8370892 173.117876,73.0767722 174.170783,73.0767722 C174.611613,73.0767722 175.016838,73.0168514 175.381371,72.8970099 C175.745904,72.7771685 176.057877,72.5905581 176.317288,72.337179 C176.5767,72.0837998 176.775074,71.7602278 176.915801,71.3664629 C177.056527,70.970986 177.126043,70.5036042 177.126043,69.9643175 L177.126043,63.9568348 L176.107046,63.9568348 L176.107046,69.6681378 Z" id="Fill-65" fill="#000000" mask="url(#mask-6)"></path>
                <path d="M163.318214,71.2567224 C162.868906,71.8610659 162.248352,72.1640936 161.458248,72.1640936 C161.025895,72.1640936 160.649493,72.0630844 160.330739,71.8610659 C160.01368,71.6590474 159.750877,71.388548 159.547417,71.0512798 C159.343957,70.7122996 159.193057,70.3202467 159.094718,69.8734092 C158.998075,69.4282836 158.948905,68.9557658 158.948905,68.4592796 C158.948905,67.1992319 159.172711,66.2661803 159.618628,65.6618368 C160.064545,65.0574933 160.676621,64.7544656 161.458248,64.7544656 C161.900774,64.7544656 162.280566,64.8554748 162.597625,65.0574933 C162.918075,65.2577998 163.180878,65.5282992 163.387729,65.8672794 C163.596276,66.2062596 163.748871,66.6000245 163.84721,67.0502861 C163.945549,67.5005477 163.993023,67.9696415 163.993023,68.4592796 C163.993023,69.7193273 163.769217,70.6523789 163.318214,71.2567224 M164.898421,66.5486639 C164.752608,65.9785608 164.530498,65.4906347 164.228698,65.0831736 C163.928594,64.6757126 163.547106,64.3607007 163.089321,64.1364259 C162.62984,63.9138631 162.087279,63.8025817 161.458248,63.8025817 C160.295134,63.8025817 159.399908,64.2031947 158.770877,65.0061327 C158.141846,65.8073586 157.828178,66.9578369 157.828178,68.4592796 C157.828178,69.1629203 157.901085,69.7997923 158.045202,70.3681833 C158.18932,70.9399984 158.411431,71.4279245 158.71323,71.8353856 C159.01503,72.2428466 159.393126,72.5578585 159.847521,72.7804213 C160.301916,73.0029841 160.83939,73.1159775 161.458248,73.1159775 C162.62984,73.1159775 163.533542,72.7136525 164.165965,71.9124265 C164.798387,71.1112006 165.115446,69.9590102 165.115446,68.4592796 C165.115446,67.7556389 165.042539,67.1187669 164.898421,66.5486639" id="Fill-66" fill="#000000" mask="url(#mask-6)"></path>
                <polygon id="Fill-67" fill="#000000" mask="url(#mask-6)" points="149.265723 72.9606971 150.323717 72.9606971 150.323717 69.3723005 153.23998 63.9571772 152.119253 63.9571772 150.11517 67.8674338 149.881191 68.6772199 149.867627 68.6772199 149.647211 67.8931142 147.558353 63.9571772 146.324027 63.9571772 149.265723 69.3859967"></polygon>
            </g>
        </g>
    </g>
</svg>