<?xml version="1.0" encoding="UTF-8" standalone="no"?>
<svg
   viewBox="0 0 1200 548.25403"
   version="1.1"
   id="svg4"
   sodipodi:docname="wikimedia-deutschland.svg"
   inkscape:version="1.2.2 (b0a8486541, 2022-12-01)"
   width="1200"
   height="548.25403"
   xmlns:inkscape="http://www.inkscape.org/namespaces/inkscape"
   xmlns:sodipodi="http://sodipodi.sourceforge.net/DTD/sodipodi-0.dtd"
   xmlns="http://www.w3.org/2000/svg"
   xmlns:svg="http://www.w3.org/2000/svg">
  <defs
     id="defs8" />
  <sodipodi:namedview
     id="namedview6"
     pagecolor="#505050"
     bordercolor="#ffffff"
     borderopacity="1"
     inkscape:showpageshadow="0"
     inkscape:pageopacity="0"
     inkscape:pagecheckerboard="1"
     inkscape:deskcolor="#505050"
     showgrid="false"
     inkscape:zoom="0.73205511"
     inkscape:cx="293.01073"
     inkscape:cy="353.7985"
     inkscape:window-width="1920"
     inkscape:window-height="1043"
     inkscape:window-x="2332"
     inkscape:window-y="2160"
     inkscape:window-maximized="1"
     inkscape:current-layer="svg4" />
  <path
     d="M 650.03396,50.28044 A 50.280435,50.280435 0 0 1 599.75353,100.56087 50.280435,50.280435 0 0 1 549.47309,50.28044 50.280435,50.280435 0 0 1 599.75353,0 50.280435,50.280435 0 0 1 650.03396,50.28044 Z m 35.88643,25.63316 c 23.06985,22.97126 35.68925,53.63246 35.68925,86.16686 0,32.5344 -12.71799,63.19561 -35.68925,86.16686 -22.97126,22.97126 -53.63246,35.68925 -86.16686,35.68925 -32.5344,0 -63.19561,-12.71799 -86.16687,-35.68925 -22.97125,-22.97125 -35.68924,-53.63246 -35.68924,-86.16686 0,-32.5344 12.71799,-63.1956 35.68924,-86.16686 1.97179,-1.97178 4.04216,-3.84497 6.11253,-5.71817 L 491.89707,42.39331 c -2.07038,1.87319 -4.04216,3.74639 -6.01394,5.71817 -14.78836,14.78836 -26.42187,32.04145 -34.50618,51.26632 -8.38007,19.915 -12.71799,41.01306 -12.71799,62.70266 0,21.78819 4.23933,42.88626 12.71799,62.70266 8.08431,19.22487 19.71782,36.47796 34.50618,51.26633 14.78836,14.78836 32.04145,26.42187 51.26633,34.50618 19.91499,8.38007 41.01306,12.71799 62.70266,12.71799 21.78818,0 42.88625,-4.23933 62.70266,-12.71799 19.22487,-8.08431 36.47796,-19.71782 51.26632,-34.50618 14.78836,-14.78837 26.42188,-32.04146 34.50618,-51.26633 8.38007,-19.91499 12.71799,-41.01306 12.71799,-62.70266 0,-21.78819 -4.23933,-42.88625 -12.71799,-62.70266 -8.0843,-19.22487 -19.71782,-36.47796 -34.50618,-51.26632 -1.97178,-1.97179 -3.94356,-3.84498 -6.01393,-5.71817 l -27.80213,27.80212 c 1.97179,1.87319 3.94357,3.74639 5.91535,5.71817 z M 585.75388,260.37378 V 136.34871 L 535.76921,86.36404 c -21.49242,18.23898 -35.1963,45.35098 -35.1963,75.81501 0,49.98467 37.06949,91.39209 85.18097,98.19473 z m 27.9993,0 c 48.11147,-6.80264 85.18097,-48.21006 85.18097,-98.19473 0,-30.36544 -13.70388,-57.57603 -35.1963,-75.81501 l -49.98467,49.98467 z m 311.24575,254.95138 c 3.64779,3.25344 5.4224,7.78854 5.4224,13.6053 0,5.81675 -1.77461,10.45044 -5.22522,13.80247 -3.54921,3.35203 -8.87302,5.12663 -16.07003,5.12663 h -12.42222 v -37.46385 h 12.91517 c 6.60547,0 11.83069,1.67601 15.3799,4.92945 z m -0.8873,13.80247 c 0,-8.57725 -4.92946,-12.91517 -14.78837,-12.91517 h -6.3097 v 25.63317 h 6.99983 c 4.53509,0 7.98571,-1.08448 10.45044,-3.25344 2.36614,-2.07037 3.6478,-5.22522 3.6478,-9.46456 z m -68.61801,-18.73192 h 6.3097 v 37.46385 h -6.90123 l -21.19666,-27.30918 v 27.30918 h -6.3097 v -37.46385 h 6.3097 l 21.78819,27.9993 z m -87.05416,28.98519 -3.74639,8.47866 h -6.80265 l 16.46438,-37.46385 h 6.80265 l 16.46438,37.46385 h -6.80265 l -3.74639,-8.47866 z m 16.16861,-5.81676 -6.80265,-15.47848 -6.80265,15.47848 z m -76.40655,14.29542 v -37.46385 h 6.30971 v 31.44992 h 17.05591 v 6.01393 z m -66.15327,0 v -37.46385 h 6.3097 v 16.2672 h 18.63333 v -16.2672 h 6.30971 v 37.46385 h -6.30971 v -15.3799 h -18.63333 v 15.3799 z m -46.82982,-5.71817 c 2.16896,0 4.04215,-0.39435 5.61958,-1.08448 1.57742,-0.69012 3.25344,-1.87319 4.92945,-3.5492 l 4.04215,4.14074 c -3.94356,4.43651 -8.77442,6.60547 -14.49259,6.60547 -5.61958,0 -10.35186,-1.77461 -14.09824,-5.4224 -3.74639,-3.6478 -5.61958,-8.28149 -5.61958,-13.80247 0,-5.52099 1.87319,-10.25327 5.71817,-13.90107 3.84497,-3.64779 8.57725,-5.61957 14.394,-5.61957 5.81676,0 10.64763,2.16896 14.59119,6.40829 l -4.04215,4.43651 c -1.77461,-1.67602 -3.45062,-2.95768 -5.02805,-3.54921 -1.57742,-0.59154 -3.45061,-0.98589 -5.61957,-0.98589 -3.74639,0 -6.99983,1.18307 -9.56315,3.64779 -2.56331,2.46473 -3.84497,5.61958 -3.84497,9.36597 0,3.84497 1.28166,6.99982 3.84497,9.56314 2.66191,2.46473 5.71817,3.74638 9.16879,3.74638 z m -63.98432,-26.81623 c -1.87319,0 -3.35203,0.39436 -4.5351,1.08448 -1.18307,0.78872 -1.7746,1.8732 -1.7746,3.45062 0,1.47884 0.59153,2.66191 1.7746,3.45062 1.18307,0.78871 3.6478,1.67601 7.49277,2.56331 3.84498,0.88731 6.70406,2.26755 8.67584,3.94357 1.97179,1.67601 2.95768,4.14074 2.95768,7.39418 0,3.25344 -1.28166,5.91535 -3.74639,7.98572 -2.46473,2.07037 -5.71817,3.05626 -9.66173,3.05626 -5.81676,0 -11.04198,-1.97178 -15.57708,-6.01394 l 3.94357,-4.73227 c 3.74638,3.25344 7.68995,4.92945 11.83069,4.92945 2.07037,0 3.64779,-0.39435 4.83086,-1.28166 1.18307,-0.8873 1.77461,-2.07037 1.77461,-3.45061 0,-1.47884 -0.59154,-2.56332 -1.67602,-3.35203 -1.08448,-0.78872 -3.05626,-1.57743 -5.81675,-2.16896 -2.7605,-0.69013 -4.83087,-1.28166 -6.3097,-1.77461 -1.47884,-0.59153 -2.66191,-1.28166 -3.84498,-2.16896 -2.16896,-1.67601 -3.35203,-4.23933 -3.35203,-7.68995 0,-3.45061 1.28166,-6.11252 3.74639,-7.98571 2.56331,-1.87319 5.61958,-2.85909 9.36596,-2.85909 2.36614,0 4.73228,0.39436 7.09841,1.18307 2.36614,0.78872 4.43651,1.8732 6.11253,3.35203 l -3.35203,4.73228 c -1.08448,-0.98589 -2.56332,-1.7746 -4.5351,-2.46473 -1.7746,-0.78871 -3.64779,-1.18307 -5.4224,-1.18307 z m -54.12541,0.8873 v 31.6471 h -6.3097 v -31.6471 h -11.33774 v -5.81675 h 29.08378 v 5.81675 z m -71.3785,23.06985 c 1.67602,1.97178 4.04216,2.95767 6.99983,2.95767 2.95767,0 5.22522,-0.98589 6.99982,-2.95767 1.77461,-1.97178 2.56332,-4.73228 2.56332,-8.18289 v -20.70371 h 6.3097 v 20.99947 c 0,5.4224 -1.47883,9.56315 -4.43651,12.42223 -2.95767,2.95767 -6.80264,4.33792 -11.43633,4.33792 -4.63369,0 -8.47866,-1.47884 -11.43634,-4.33792 -2.95767,-2.95767 -4.4365,-7.09842 -4.4365,-12.42223 v -20.99947 h 6.3097 v 20.70371 c 0,3.5492 0.78871,6.21111 2.56331,8.18289 z m -41.70318,-28.8866 v 5.91534 h -20.01359 v 9.9575 h 17.94322 v 5.61958 h -17.94322 v 10.05609 h 20.60512 v 5.91534 h -27.01341 v -37.46385 z m -64.37868,4.92945 c 3.6478,3.25344 5.4224,7.78854 5.4224,13.6053 0,5.81675 -1.7746,10.45044 -5.22522,13.80247 -3.5492,3.35203 -8.87301,5.12663 -16.07002,5.12663 h -12.42222 v -37.46385 h 12.91517 c 6.60547,0 11.83069,1.67601 15.37989,4.92945 z m -0.98589,13.80247 c 0,-8.57725 -4.92945,-12.91517 -14.78836,-12.91517 h -6.21111 v 25.63317 h 6.99982 c 4.5351,0 7.98572,-1.08448 10.45045,-3.25344 2.36613,-2.07037 3.5492,-5.22522 3.5492,-9.46456 z m 655.81461,-67.04057 -8.38007,-19.42205 h -37.66103 l -8.38007,19.42205 h -21.39383 l 38.8441,-89.91325 h 19.42205 l 38.8441,89.91325 z m -27.21058,-63.09702 -11.33775,26.12611 h 22.47831 z m -79.06845,-26.81623 h 20.01358 v 89.91325 h -20.11217 v -89.91325 z m -30.26685,11.83069 c 8.57725,7.88713 12.91517,18.73192 12.91517,32.73158 0,13.99965 -4.14074,25.04162 -12.52082,33.22452 -8.38007,8.18289 -21.09806,12.22504 -38.25256,12.22504 h -30.7598 V 372.2724 h 31.74569 c 15.97143,-0.0986 28.29507,3.84497 36.87232,11.7321 z m -14.78837,53.43528 c 4.92946,-4.63368 7.39419,-11.33774 7.39419,-20.21076 0,-8.87302 -2.46473,-15.67566 -7.39419,-20.40794 -4.92945,-4.73228 -12.52081,-7.09841 -22.67549,-7.09841 h -11.23915 v 54.71694 h 12.71799 c 9.26738,-0.0986 16.2672,-2.36614 21.19665,-6.99983 z m -73.25169,-65.26597 v 17.84462 h -44.75944 v 18.53475 h 40.22434 v 17.1545 h -40.22434 v 18.63334 h 46.23828 v 17.74604 h -66.25187 v -89.91325 z m -107.06775,33.32311 -24.3515,49.19595 h -11.92928 l -24.15433,-49.19595 v 56.59014 h -20.11217 v -89.91325 h 27.21059 l 23.16843,49.39313 23.26703,-49.39313 h 27.01341 v 89.91325 H 622.82337 Z M 500.07996,372.17381 h 20.11217 v 89.91325 h -20.11217 z m -91.2935,0 h 20.11218 v 36.97091 l 34.01323,-36.97091 h 24.74586 l -35.78783,39.7314 c 3.05626,4.33792 8.77442,12.32364 17.1545,23.95715 8.28148,11.7321 14.49259,20.40794 18.63333,26.2247 h -23.4642 l -26.42187,-35.49208 -8.97161,10.05609 v 25.43599 h -20.01359 z m -42.19612,0 h 20.11217 v 89.91325 h -20.11217 z m -103.12419,51.75927 15.97143,-51.75927 h 20.99948 l 15.87284,51.75927 17.84463,-51.75927 h 21.78818 l -31.35133,89.91325 h -14.88695 l -19.71782,-62.50549 -19.52064,62.50549 h -14.88695 l -31.35133,-89.91325 h 21.78819 z"
     id="path2"
     style="stroke-width:0.985891" />
</svg>
