<svg width="340" height="325" viewBox="0 0 340 325" fill="none" xmlns="http://www.w3.org/2000/svg">
<rect width="340" height="325" rx="10" fill="#F6F5F5"/>
<path d="M0 138.149C0 131.725 5.9586 126.967 12.2525 128.253C109.718 148.163 231.464 145.611 328.023 127.901C334.234 126.762 340 131.496 340 137.81V315C340 320.523 335.523 325 330 325H10C4.47716 325 0 320.523 0 315V138.149Z" fill="#A2ED7E"/>
<path d="M19.7549 247H25.9055V238.733L28.931 235.04L36.8998 247H44.2577L33.3344 230.935L44.1299 217.909H36.7577L26.289 230.736H25.9055V217.909H19.7549V247Z" fill="black"/>
<path d="M53.2705 217.909H47.2194V247H53.2705V217.909Z" fill="black"/>
<path d="M58.1178 247H64.1689V225.182H58.1178V247ZM61.1576 222.369C62.9616 222.369 64.4388 220.991 64.4388 219.301C64.4388 217.625 62.9616 216.247 61.1576 216.247C59.3678 216.247 57.8905 217.625 57.8905 219.301C57.8905 220.991 59.3678 222.369 61.1576 222.369Z" fill="black"/>
<path d="M69.0162 247H75.0674V233.903C75.0674 231.489 76.6015 229.883 78.6185 229.883C80.6072 229.883 81.9424 231.247 81.9424 233.392V247H87.8089V233.676C87.8089 231.418 89.1015 229.883 91.3032 229.883C93.235 229.883 94.6839 231.091 94.6839 233.52V247H100.721V232.327C100.721 227.597 97.9083 224.898 93.8458 224.898C90.6498 224.898 88.164 226.531 87.2691 229.031H87.0418C86.3458 226.503 84.1157 224.898 81.1185 224.898C78.1782 224.898 75.9481 226.46 75.039 229.031H74.7833V225.182H69.0162V247Z" fill="black"/>
<path d="M111.722 247.412C114.947 247.412 117.035 246.006 118.1 243.974H118.271V247H124.009V232.284C124.009 227.085 119.606 224.898 114.748 224.898C109.521 224.898 106.083 227.398 105.245 231.375L110.842 231.829C111.253 230.381 112.546 229.315 114.719 229.315C116.779 229.315 117.958 230.352 117.958 232.142V232.227C117.958 233.633 116.467 233.818 112.674 234.187C108.356 234.585 104.478 236.034 104.478 240.906C104.478 245.224 107.56 247.412 111.722 247.412ZM113.455 243.236C111.594 243.236 110.259 242.369 110.259 240.707C110.259 239.003 111.665 238.165 113.796 237.866C115.117 237.682 117.276 237.369 118.001 236.886V239.202C118.001 241.489 116.111 243.236 113.455 243.236Z" fill="black"/>
<path d="M128.817 247H134.783V243.506H135.053C135.891 245.324 137.724 247.355 141.246 247.355C146.218 247.355 150.096 243.42 150.096 236.119C150.096 228.619 146.047 224.898 141.261 224.898C137.61 224.898 135.863 227.071 135.053 228.847H134.869V217.909H128.817V247ZM134.741 236.091C134.741 232.199 136.388 229.713 139.329 229.713C142.326 229.713 143.917 232.312 143.917 236.091C143.917 239.898 142.298 242.54 139.329 242.54C136.417 242.54 134.741 239.983 134.741 236.091Z" fill="black"/>
<path d="M164.077 247.426C169.474 247.426 173.111 244.798 173.963 240.75L168.366 240.381C167.756 242.043 166.193 242.909 164.176 242.909C161.15 242.909 159.233 240.906 159.233 237.653V237.639H174.091V235.977C174.091 228.562 169.602 224.898 163.835 224.898C157.415 224.898 153.253 229.457 153.253 236.19C153.253 243.108 157.358 247.426 164.077 247.426ZM159.233 233.889C159.361 231.403 161.25 229.415 163.935 229.415C166.562 229.415 168.381 231.29 168.395 233.889H159.233Z" fill="black"/>
<path d="M182.187 247H188.579L192.329 233.278H192.599L196.349 247H202.756L208.679 225.182H202.571L199.247 239.756H199.062L195.483 225.182H189.474L185.952 239.841H185.753L182.372 225.182H176.25L182.187 247Z" fill="black"/>
<path d="M225.898 237.71C225.913 240.636 223.91 242.17 221.736 242.17C219.449 242.17 217.972 240.565 217.958 237.994V225.182H211.907V239.074C211.921 244.173 214.904 247.284 219.293 247.284C222.574 247.284 224.932 245.594 225.913 243.037H226.14V247H231.949V225.182H225.898V237.71Z" fill="black"/>
<path d="M254.943 231.403C254.403 227.383 251.165 224.898 245.653 224.898C240.071 224.898 236.392 227.483 236.406 231.687C236.392 234.954 238.452 237.071 242.713 237.923L246.491 238.676C248.395 239.06 249.261 239.756 249.29 240.849C249.261 242.142 247.855 243.065 245.739 243.065C243.579 243.065 242.145 242.142 241.775 240.366L235.824 240.679C236.392 244.855 239.943 247.426 245.724 247.426C251.378 247.426 255.426 244.543 255.44 240.239C255.426 237.085 253.366 235.196 249.133 234.329L245.185 233.534C243.153 233.094 242.4 232.398 242.415 231.347C242.4 230.04 243.878 229.187 245.753 229.187C247.855 229.187 249.105 230.338 249.403 231.744L254.943 231.403Z" fill="black"/>
<path d="M277.404 231.403C276.864 227.383 273.626 224.898 268.114 224.898C262.532 224.898 258.853 227.483 258.867 231.687C258.853 234.954 260.913 237.071 265.174 237.923L268.952 238.676C270.856 239.06 271.722 239.756 271.751 240.849C271.722 242.142 270.316 243.065 268.199 243.065C266.04 243.065 264.606 242.142 264.236 240.366L258.285 240.679C258.853 244.855 262.404 247.426 268.185 247.426C273.839 247.426 277.887 244.543 277.901 240.239C277.887 237.085 275.827 235.196 271.594 234.329L267.646 233.534C265.614 233.094 264.861 232.398 264.876 231.347C264.861 230.04 266.339 229.187 268.214 229.187C270.316 229.187 271.566 230.338 271.864 231.744L277.404 231.403Z" fill="black"/>
<path d="M293.317 225.182H289.212V219.954H283.16V225.182H280.177V229.727H283.16V241.091C283.132 245.366 286.044 247.483 290.433 247.298C291.996 247.241 293.104 246.929 293.714 246.73L292.763 242.227C292.464 242.284 291.825 242.426 291.257 242.426C290.05 242.426 289.212 241.972 289.212 240.295V229.727H293.317V225.182Z" fill="black"/>
<path d="M306.967 247.426C312.365 247.426 316.001 244.798 316.854 240.75L311.257 240.381C310.646 242.043 309.084 242.909 307.067 242.909C304.041 242.909 302.124 240.906 302.124 237.653V237.639H316.981V235.977C316.981 228.562 312.493 224.898 306.726 224.898C300.305 224.898 296.143 229.457 296.143 236.19C296.143 243.108 300.249 247.426 306.967 247.426ZM302.124 233.889C302.251 231.403 304.141 229.415 306.825 229.415C309.453 229.415 311.271 231.29 311.285 233.889H302.124Z" fill="black"/>
<path d="M101.069 295H107.063L112.589 275.98H112.816L118.356 295H124.35L132.674 265.909H125.955L121.14 286.165H120.884L115.586 265.909H109.833L104.521 286.122H104.279L99.4637 265.909H92.7449L101.069 295Z" fill="black"/>
<path d="M143.452 295.426C148.849 295.426 152.486 292.798 153.338 288.75L147.741 288.381C147.131 290.043 145.568 290.909 143.551 290.909C140.525 290.909 138.608 288.906 138.608 285.653V285.639H153.466V283.977C153.466 276.562 148.977 272.898 143.21 272.898C136.79 272.898 132.628 277.457 132.628 284.19C132.628 291.108 136.733 295.426 143.452 295.426ZM138.608 281.889C138.736 279.403 140.625 277.415 143.31 277.415C145.937 277.415 147.756 279.29 147.77 281.889H138.608Z" fill="black"/>
<path d="M157.528 295H163.494V291.506H163.764C164.602 293.324 166.435 295.355 169.957 295.355C174.929 295.355 178.807 291.42 178.807 284.119C178.807 276.619 174.758 272.898 169.971 272.898C166.321 272.898 164.574 275.071 163.764 276.847H163.579V265.909H157.528V295ZM163.452 284.091C163.452 280.199 165.099 277.713 168.04 277.713C171.037 277.713 172.628 280.312 172.628 284.091C172.628 287.898 171.008 290.54 168.04 290.54C165.128 290.54 163.452 287.983 163.452 284.091Z" fill="black"/>
<path d="M200.998 279.403C200.458 275.383 197.219 272.898 191.708 272.898C186.126 272.898 182.447 275.483 182.461 279.687C182.447 282.954 184.506 285.071 188.768 285.923L192.546 286.676C194.449 287.06 195.316 287.756 195.344 288.849C195.316 290.142 193.91 291.065 191.793 291.065C189.634 291.065 188.199 290.142 187.83 288.366L181.878 288.679C182.447 292.855 185.998 295.426 191.779 295.426C197.432 295.426 201.481 292.543 201.495 288.239C201.481 285.085 199.421 283.196 195.188 282.329L191.239 281.534C189.208 281.094 188.455 280.398 188.469 279.347C188.455 278.04 189.932 277.187 191.807 277.187C193.91 277.187 195.16 278.338 195.458 279.744L200.998 279.403Z" fill="black"/>
<path d="M205.305 295H211.356V273.182H205.305V295ZM208.345 270.369C210.149 270.369 211.626 268.991 211.626 267.301C211.626 265.625 210.149 264.247 208.345 264.247C206.555 264.247 205.078 265.625 205.078 267.301C205.078 268.991 206.555 270.369 208.345 270.369Z" fill="black"/>
<path d="M227.809 273.182H223.704V267.954H217.653V273.182H214.67V277.727H217.653V289.091C217.624 293.366 220.536 295.483 224.925 295.298C226.488 295.241 227.596 294.929 228.207 294.73L227.255 290.227C226.957 290.284 226.317 290.426 225.749 290.426C224.542 290.426 223.704 289.972 223.704 288.295V277.727H227.809V273.182Z" fill="black"/>
<path d="M241.459 295.426C246.857 295.426 250.494 292.798 251.346 288.75L245.749 288.381C245.138 290.043 243.576 290.909 241.559 290.909C238.533 290.909 236.616 288.906 236.616 285.653V285.639H251.474V283.977C251.474 276.562 246.985 272.898 241.218 272.898C234.798 272.898 230.636 277.457 230.636 284.19C230.636 291.108 234.741 295.426 241.459 295.426ZM236.616 281.889C236.744 279.403 238.633 277.415 241.317 277.415C243.945 277.415 245.763 279.29 245.778 281.889H236.616Z" fill="black"/>
<path fill-rule="evenodd" clip-rule="evenodd" d="M267.995 30C267.995 26.6863 265.309 24 261.995 24H81.2761C77.9624 24 75.2761 26.6863 75.2761 30V156.876C75.2761 158.068 74.9207 159.234 74.2553 160.223L58.0309 184.354C55.3511 188.34 58.2073 193.702 63.0102 193.702H281.785C286.588 193.702 289.444 188.34 286.764 184.354L268.765 157.583C268.687 157.467 268.556 157.398 268.416 157.398V157.398C268.184 157.398 267.995 157.209 267.995 156.977V30Z" fill="#000475"/>
<rect x="87" y="37" width="166" height="119" rx="6" fill="#FFFFEF"/>
<path fill-rule="evenodd" clip-rule="evenodd" d="M122.392 73.2523C117.939 76.7884 114.417 81.6993 112.56 87.5658C107.885 102.328 115.516 117.55 129.602 121.567C143.689 125.583 158.898 116.872 163.572 102.11C165.393 96.3588 165.346 90.5371 163.778 85.3356L159.155 63.0243L155.078 49.1284C154.66 47.7063 152.828 47.2718 151.727 48.3339L136.605 62.9189C136.533 62.989 136.455 63.0539 136.372 63.113L122.834 72.8285C122.659 72.9536 122.512 73.0968 122.392 73.2523Z" fill="#A2ED7E"/>
<path d="M129.749 118.002C118.942 135.488 113.956 139.039 105.798 141.114" stroke="#A2ED7E" stroke-width="4" stroke-linecap="round"/>
<path fill-rule="evenodd" clip-rule="evenodd" d="M160.208 74.8942C155.753 78.4304 152.231 83.3419 150.373 89.2093C145.699 103.971 153.329 119.194 167.416 123.21C181.503 127.227 196.711 118.516 201.385 103.754C203.206 98.0055 203.16 92.187 201.594 86.9877L196.969 64.6678L192.892 50.7719C192.475 49.3498 190.642 48.9153 189.541 49.9774L174.42 64.5624C174.347 64.6326 174.269 64.6975 174.187 64.7566L160.648 74.472C160.474 74.5967 160.328 74.7393 160.208 74.8942Z" fill="#62DA99"/>
<path d="M167.564 119.643C156.757 137.129 151.771 140.68 143.613 142.755" stroke="#62DA99" stroke-width="4" stroke-linecap="round"/>
<path fill-rule="evenodd" clip-rule="evenodd" d="M197.706 73.2506C193.251 76.7869 189.729 81.6983 187.871 87.5658C183.197 102.328 190.827 117.55 204.914 121.567C219.001 125.583 234.209 116.872 238.884 102.11C240.704 96.3619 240.658 90.5435 239.092 85.3441L234.467 63.0243L230.39 49.1284C229.973 47.7063 228.14 47.2718 227.039 48.3339L211.918 62.9189C211.845 62.989 211.767 63.0539 211.685 63.113L198.146 72.8285C197.972 72.9531 197.826 73.0958 197.706 73.2506Z" fill="#008F7E"/>
<path d="M205.063 118.002C194.256 135.488 189.27 139.039 181.112 141.114" stroke="#008F7E" stroke-width="4" stroke-linecap="round"/>
</svg>
