<?xml version="1.0" encoding="UTF-8" standalone="no"?>
<svg
   width="600"
   zoomAndPan="magnify"
   viewBox="0 0 450.00011 236.25006"
   height="315"
   preserveAspectRatio="xMidYMid"
   version="1.0"
   id="svg498"
   sodipodi:docname="BB_Vorschau_Website.svg"
   inkscape:version="1.2.2 (b0a8486541, 2022-12-01)"
   inkscape:export-filename="BB_Vorschau_Website.png"
   inkscape:export-xdpi="192"
   inkscape:export-ydpi="192"
   xmlns:inkscape="http://www.inkscape.org/namespaces/inkscape"
   xmlns:sodipodi="http://sodipodi.sourceforge.net/DTD/sodipodi-0.dtd"
   xmlns="http://www.w3.org/2000/svg"
   xmlns:svg="http://www.w3.org/2000/svg">
  <sodipodi:namedview
     id="namedview500"
     pagecolor="#ffffff"
     bordercolor="#000000"
     borderopacity="0.25"
     inkscape:showpageshadow="2"
     inkscape:pageopacity="0.0"
     inkscape:pagecheckerboard="0"
     inkscape:deskcolor="#d1d1d1"
     showgrid="false"
     inkscape:zoom="3.7111899"
     inkscape:cx="333.45101"
     inkscape:cy="33.412465"
     inkscape:window-width="2256"
     inkscape:window-height="1431"
     inkscape:window-x="0"
     inkscape:window-y="0"
     inkscape:window-maximized="1"
     inkscape:current-layer="svg498" />
  <defs
     id="defs16">
    <g
       id="g2" />
    <clipPath
       id="a94a57cbe5">
      <path
         d="M 0,0.175781 H 322 V 224.82422 H 0 Z m 0,0"
         clip-rule="nonzero"
         id="path4" />
    </clipPath>
    <clipPath
       id="01c7134597">
      <path
         d="M 13.765625,33 H 64 V 188 H 13.765625 Z m 0,0"
         clip-rule="nonzero"
         id="path7" />
    </clipPath>
    <clipPath
       id="aa32f4b38d">
      <path
         d="m 63,187 h 2 v 29.34766 h -2 z m 0,0"
         clip-rule="nonzero"
         id="path10" />
    </clipPath>
    <clipPath
       id="5ac011fe9f">
      <path
         d="m 63,16.410156 h 68.33203 V 188 H 63 Z m 0,0"
         clip-rule="nonzero"
         id="path13" />
    </clipPath>
  </defs>
  <g
     clip-path="url(#a94a57cbe5)"
     id="g22"
     transform="matrix(1.3975155,0,0,1.0516432,0,-0.18485889)"
     style="stroke-width:0.824874">
    <path
       fill="#ffffff"
       d="M 0,0.175781 H 322 V 224.82422 H 0 Z m 0,0"
       fill-opacity="1"
       fill-rule="nonzero"
       id="path18"
       style="stroke-width:0.697765" />
    <path
       fill="#ffffff"
       d="M 0,0.175781 H 322 V 224.82422 H 0 Z m 0,0"
       fill-opacity="1"
       fill-rule="nonzero"
       id="path20"
       style="stroke-width:0.697765" />
  </g>
  <g
     fill="#000000"
     fill-opacity="1"
     id="g72"
     transform="translate(63.749995,5.6250011)">
    <g
       transform="translate(216.52787,75.193209)"
       id="g70">
      <g
         id="g68" />
    </g>
  </g>
  <g
     fill="#000000"
     fill-opacity="1"
     id="g150"
     transform="translate(63.749995,5.6250011)">
    <g
       transform="translate(173.76965,142.13893)"
       id="g148">
      <g
         id="g146" />
    </g>
  </g>
  <g
     fill="#000000"
     fill-opacity="1"
     id="g220"
     transform="translate(63.749995,5.6250011)">
    <g
       transform="translate(249.58353,142.13893)"
       id="g218">
      <g
         id="g216" />
    </g>
  </g>
  <g
     fill="#000000"
     fill-opacity="1"
     id="g362"
     transform="translate(63.749995,5.6250011)">
    <g
       transform="translate(249.1735,159.17567)"
       id="g360">
      <g
         id="g358" />
    </g>
  </g>
  <g
     clip-path="url(#01c7134597)"
     id="g26"
     transform="translate(80.194415,1.7460951)">
    <path
       fill="#bdd888"
       d="M 63.09375,187.03125 C 34.953125,185.30469 13.789062,159.88672 13.789062,127.3125 c 0,-40.4375 24.976563,-69 49.304688,-93.84375 z m 0,0"
       fill-opacity="1"
       fill-rule="nonzero"
       id="path24" />
  </g>
  <g
     clip-path="url(#aa32f4b38d)"
     id="g30"
     transform="translate(80.194415,1.7460951)">
    <path
       fill="#a1c854"
       d="M 63.09375,187.03125 H 64.875 v 29.31641 h -1.78125 z m 0,0"
       fill-opacity="1"
       fill-rule="nonzero"
       id="path28" />
  </g>
  <g
     clip-path="url(#5ac011fe9f)"
     id="g34"
     transform="translate(80.194415,1.7460951)">
    <path
       fill="#a1c854"
       d="M 63.09375,33.46875 H 80.148438 V 16.410156 H 63.09375 Z m 51.16016,0 h 17.05468 V 16.410156 h -17.05468 z m 0,0 H 97.203125 v 17.0625 H 114.25391 Z M 97.203125,135.85156 H 80.148438 v -17.07031 h 17.054687 z m 34.105465,0 v -17.07031 h -17.05468 v -17.0625 H 97.203125 V 84.660156 H 80.148438 V 67.59375 h 17.054687 v 17.0625 H 114.25391 V 67.59375 H 97.203125 V 50.53125 H 63.09375 v 136.5 h 17.054688 v -17.0625 h 17.054687 v -17.0625 h 17.050785 v -17.05469 z m 0,0"
       fill-opacity="1"
       fill-rule="nonzero"
       id="path32" />
  </g>
  <g
     fill="#000000"
     fill-opacity="1"
     id="g42"
     transform="translate(80.194415,1.7460951)">
    <g
       transform="translate(148.42027,75.193209)"
       id="g40">
      <g
         id="g38">
        <path
           d="m 23.515625,-25.046875 c 0,0.773437 -0.125,1.558594 -0.375,2.359375 -0.242187,0.804688 -0.609375,1.554688 -1.109375,2.25 -0.492188,0.699219 -1.125,1.3125 -1.90625,1.84375 -0.773438,0.523438 -1.683594,0.921875 -2.734375,1.203125 v 0.1875 c 0.925781,0.148437 1.816406,0.40625 2.671875,0.78125 0.851562,0.375 1.601562,0.886719 2.25,1.53125 0.644531,0.648437 1.171875,1.433594 1.578125,2.359375 0.40625,0.929688 0.609375,2.027344 0.609375,3.296875 0,1.667969 -0.351562,3.117187 -1.046875,4.34375 -0.699219,1.21875 -1.617187,2.214844 -2.75,2.984375 -1.125,0.773438 -2.417969,1.34375 -3.875,1.71875 -1.449219,0.375 -2.929687,0.5625 -4.4375,0.5625 -0.53125,0 -1.152344,0 -1.859375,0 C 9.820312,0.375 9.078125,0.347656 8.296875,0.296875 7.523438,0.253906 6.753906,0.191406 5.984375,0.109375 5.210938,0.0351562 4.53125,-0.078125 3.9375,-0.234375 V -32.1875 c 1.144531,-0.1875 2.472656,-0.34375 3.984375,-0.46875 1.519531,-0.125 3.175781,-0.1875 4.96875,-0.1875 1.207031,0 2.4375,0.105469 3.6875,0.3125 1.257813,0.199219 2.398437,0.585938 3.421875,1.15625 1.019531,0.5625 1.859375,1.355469 2.515625,2.375 0.664063,1.023438 1,2.339844 1,3.953125 z M 12.75,-2.96875 c 0.988281,0 1.945312,-0.113281 2.875,-0.34375 0.9375,-0.238281 1.757812,-0.613281 2.46875,-1.125 0.707031,-0.507812 1.269531,-1.132812 1.6875,-1.875 0.414062,-0.738281 0.625,-1.617188 0.625,-2.640625 0,-1.269531 -0.257812,-2.289063 -0.765625,-3.0625 -0.511719,-0.769531 -1.179687,-1.367187 -2,-1.796875 -0.8125,-0.4375 -1.730469,-0.734375 -2.75,-0.890625 -1.023437,-0.15625 -2.042969,-0.234375 -3.0625,-0.234375 h -4.03125 v 11.640625 c 0.21875,0.0625 0.523437,0.109375 0.921875,0.140625 0.40625,0.03125 0.835938,0.0625 1.296875,0.09375 0.46875,0.03125 0.945313,0.058594 1.4375,0.078125 0.5,0.011719 0.929687,0.015625 1.296875,0.015625 z M 10.203125,-18.1875 c 0.53125,0 1.164063,-0.01563 1.90625,-0.04687 0.738281,-0.03125 1.359375,-0.07813 1.859375,-0.140625 0.738281,-0.238281 1.429688,-0.535156 2.078125,-0.890625 0.65625,-0.363281 1.238281,-0.785156 1.75,-1.265625 0.507813,-0.476562 0.910156,-1.035156 1.203125,-1.671875 0.289062,-0.632813 0.4375,-1.320313 0.4375,-2.0625 0,-1.019531 -0.195312,-1.859375 -0.578125,-2.515625 -0.386719,-0.664062 -0.90625,-1.203125 -1.5625,-1.609375 -0.648437,-0.40625 -1.386719,-0.691406 -2.21875,-0.859375 -0.835937,-0.164062 -1.683594,-0.25 -2.546875,-0.25 -1.023438,0 -1.960938,0.02734 -2.8125,0.07813 -0.855469,0.04297 -1.496094,0.109375 -1.921875,0.203125 v 11.03125 z m 0,0"
           id="path36" />
      </g>
    </g>
  </g>
  <g
     fill="#000000"
     fill-opacity="1"
     id="g50"
     transform="translate(80.194415,1.7460951)">
    <g
       transform="translate(173.84462,75.193209)"
       id="g48">
      <g
         id="g46">
        <path
           d="m 4.359375,-23.1875 h 3.71875 V 0 H 4.359375 Z M 3.578125,-30.25 c 0,-0.707031 0.238281,-1.316406 0.71875,-1.828125 0.476563,-0.507813 1.085937,-0.765625 1.828125,-0.765625 0.738281,0 1.367188,0.257812 1.890625,0.765625 0.53125,0.511719 0.796875,1.121094 0.796875,1.828125 0,0.71875 -0.265625,1.3125 -0.796875,1.78125 -0.523437,0.460938 -1.152344,0.6875 -1.890625,0.6875 -0.742188,0 -1.351562,-0.226562 -1.828125,-0.6875 -0.480469,-0.46875 -0.71875,-1.0625 -0.71875,-1.78125 z m 0,0"
           id="path44" />
      </g>
    </g>
  </g>
  <g
     fill="#000000"
     fill-opacity="1"
     id="g58"
     transform="translate(80.194415,1.7460951)">
    <g
       transform="translate(184.60823,75.193209)"
       id="g56">
      <g
         id="g54">
        <path
           d="M 0.515625,-23.1875 H 4.125 v -4.59375 l 3.71875,-1.078125 v 5.671875 h 6.3125 v 3.234375 H 7.84375 V -7.09375 c 0,1.605469 0.195312,2.742188 0.59375,3.40625 0.40625,0.667969 1.085938,1 2.046875,1 0.800781,0 1.476563,-0.082031 2.03125,-0.25 0.5625,-0.175781 1.179687,-0.40625 1.859375,-0.6875 l 0.84375,2.84375 c -0.835938,0.398438 -1.746094,0.71875 -2.734375,0.96875 -0.992187,0.25 -2.058594,0.375 -3.203125,0.375 -1.886719,0 -3.21875,-0.53125 -4,-1.59375 C 4.507812,-2.101562 4.125,-3.894531 4.125,-6.40625 V -19.953125 H 0.515625 Z m 0,0"
           id="path52" />
      </g>
    </g>
  </g>
  <g
     fill="#000000"
     fill-opacity="1"
     id="g66"
     transform="translate(81.104039,1.7460951)">
    <g
       transform="translate(198.66586,75.193209)"
       id="g64">
      <g
         id="g62">
        <path
           d="m 13.78125,-6.3125 c 0,-0.925781 -0.28125,-1.648438 -0.84375,-2.171875 -0.554688,-0.53125 -1.242188,-0.972656 -2.0625,-1.328125 -0.8125,-0.351562 -1.710938,-0.691406 -2.6875,-1.015625 -0.96875,-0.320313 -1.867188,-0.738281 -2.6875,-1.25 -0.824219,-0.507813 -1.515625,-1.164063 -2.078125,-1.96875 -0.554687,-0.8125 -0.828125,-1.894531 -0.828125,-3.25 0,-2.226563 0.632812,-3.859375 1.90625,-4.890625 1.269531,-1.039062 3.03125,-1.5625 5.28125,-1.5625 1.675781,0 3.078125,0.148438 4.203125,0.4375 1.132813,0.292969 2.117187,0.640625 2.953125,1.046875 l -0.890625,3.0625 c -0.710937,-0.34375 -1.570313,-0.644531 -2.578125,-0.90625 -1,-0.257813 -2.074219,-0.390625 -3.21875,-0.390625 -1.355469,0 -2.351562,0.234375 -2.984375,0.703125 -0.636719,0.460937 -0.953125,1.261719 -0.953125,2.40625 0,0.804687 0.273438,1.429687 0.828125,1.875 0.5625,0.449219 1.25,0.851563 2.0625,1.203125 0.820313,0.355469 1.71875,0.703125 2.6875,1.046875 0.976563,0.34375 1.875,0.792969 2.6875,1.34375 0.820313,0.554687 1.507813,1.257813 2.0625,2.109375 0.5625,0.855469 0.84375,1.976562 0.84375,3.359375 0,0.992187 -0.164063,1.921875 -0.484375,2.796875 -0.324219,0.867188 -0.828125,1.605469 -1.515625,2.21875 -0.679687,0.617188 -1.523437,1.101562 -2.53125,1.453125 -1,0.363281 -2.179687,0.546875 -3.53125,0.546875 C 7.648438,0.5625 6.144531,0.390625 4.90625,0.046875 3.675781,-0.296875 2.644531,-0.695312 1.8125,-1.15625 L 2.921875,-4.3125 c 0.707031,0.398438 1.632813,0.765625 2.78125,1.109375 1.144531,0.34375 2.304687,0.515625 3.484375,0.515625 1.332031,0 2.429688,-0.257812 3.296875,-0.78125 C 13.347656,-4 13.78125,-4.945312 13.78125,-6.3125 Z m 0,0"
           id="path60" />
      </g>
    </g>
  </g>
  <g
     fill="#000000"
     fill-opacity="1"
     id="g80"
     transform="translate(80.194415,1.7460951)">
    <g
       transform="translate(227.24506,75.193209)"
       id="g78">
      <g
         id="g76">
        <path
           d="m 5.46875,-8.671875 c 0,-1.238281 0.210938,-2.421875 0.640625,-3.546875 0.4375,-1.132812 1.023437,-2.179688 1.765625,-3.140625 0.75,-0.957031 1.59375,-1.835937 2.53125,-2.640625 0.945312,-0.800781 1.929688,-1.515625 2.953125,-2.140625 -0.742187,-1.101563 -1.382813,-2.210937 -1.921875,-3.328125 -0.542969,-1.113281 -0.8125,-2.320312 -0.8125,-3.625 0,-0.738281 0.117188,-1.460938 0.359375,-2.171875 0.25,-0.71875 0.644531,-1.351563 1.1875,-1.90625 0.539063,-0.5625 1.238281,-1.007813 2.09375,-1.34375 0.851563,-0.34375 1.878906,-0.515625 3.078125,-0.515625 1.269531,0 2.335938,0.164062 3.203125,0.484375 0.863281,0.324219 1.554687,0.75 2.078125,1.28125 0.53125,0.523437 0.910156,1.109375 1.140625,1.765625 0.238281,0.648438 0.359375,1.308594 0.359375,1.984375 0,1.304687 -0.507812,2.640625 -1.515625,4.015625 -1,1.375 -2.585937,2.699219 -4.75,3.96875 0.5,0.898438 1.078125,1.820312 1.734375,2.765625 0.664062,0.9375 1.367188,1.871094 2.109375,2.796875 0.75,0.929688 1.507813,1.851562 2.28125,2.765625 0.769531,0.917969 1.539063,1.761719 2.3125,2.53125 0.34375,-0.375 0.679687,-0.847656 1.015625,-1.421875 0.34375,-0.570312 0.675781,-1.171875 1,-1.796875 0.332031,-0.632813 0.628906,-1.289063 0.890625,-1.96875 0.257813,-0.6875 0.5,-1.335937 0.71875,-1.953125 l 2.875,1.34375 c -0.1875,0.523438 -0.453125,1.148438 -0.796875,1.875 -0.335938,0.730469 -0.710938,1.476562 -1.125,2.234375 -0.417969,0.75 -0.84375,1.476563 -1.28125,2.171875 -0.429688,0.699219 -0.828125,1.277344 -1.203125,1.734375 0.644531,0.625 1.226563,1.164063 1.75,1.609375 0.53125,0.449219 1.019531,0.835938 1.46875,1.15625 0.445313,0.324219 0.878906,0.621094 1.296875,0.890625 0.425781,0.261719 0.851562,0.511719 1.28125,0.75 L 31.875,0.5625 C 30.226562,-0.25 28.351562,-1.6875 26.25,-3.75 c -0.554688,0.554688 -1.164062,1.085938 -1.828125,1.59375 -0.667969,0.511719 -1.417969,0.96875 -2.25,1.375 -0.835937,0.398438 -1.757813,0.71875 -2.765625,0.96875 -1,0.25 -2.105469,0.375 -3.3125,0.375 -1.449219,0 -2.820312,-0.203125 -4.109375,-0.609375 -1.28125,-0.40625 -2.402344,-1 -3.359375,-1.78125 C 7.664062,-2.617188 6.898438,-3.585938 6.328125,-4.734375 5.753906,-5.878906 5.46875,-7.191406 5.46875,-8.671875 Z m 18.609375,2.59375 C 23.179688,-6.972656 22.300781,-7.945312 21.4375,-9 c -0.867188,-1.050781 -1.695312,-2.101562 -2.484375,-3.15625 -0.792969,-1.050781 -1.523437,-2.0625 -2.1875,-3.03125 -0.667969,-0.976562 -1.230469,-1.835938 -1.6875,-2.578125 -0.835937,0.617187 -1.609375,1.25 -2.328125,1.90625 -0.710938,0.648437 -1.335938,1.335937 -1.875,2.0625 -0.542969,0.71875 -0.960938,1.5 -1.25,2.34375 -0.292969,0.835937 -0.4375,1.730469 -0.4375,2.6875 0,0.960937 0.195312,1.820313 0.59375,2.578125 0.40625,0.75 0.957031,1.382812 1.65625,1.890625 0.695312,0.511719 1.492188,0.90625 2.390625,1.1875 0.894531,0.28125 1.835937,0.421875 2.828125,0.421875 0.769531,0 1.519531,-0.097656 2.25,-0.296875 0.726562,-0.207031 1.414062,-0.460937 2.0625,-0.765625 0.644531,-0.3125 1.238281,-0.664062 1.78125,-1.0625 0.539062,-0.40625 0.984375,-0.828125 1.328125,-1.265625 z m -9.84375,-21.015625 c 0,0.929688 0.191406,1.851562 0.578125,2.765625 0.394531,0.90625 0.898438,1.808594 1.515625,2.703125 1.632813,-1.039062 2.769531,-1.992188 3.40625,-2.859375 0.632813,-0.875 0.953125,-1.632813 0.953125,-2.28125 0,-0.988281 -0.242188,-1.789063 -0.71875,-2.40625 -0.480469,-0.625 -1.308594,-0.9375 -2.484375,-0.9375 -1.117187,0 -1.9375,0.28125 -2.46875,0.84375 -0.523437,0.554687 -0.78125,1.277344 -0.78125,2.171875 z m 0,0"
           id="path74" />
      </g>
    </g>
  </g>
  <g
     fill="#000000"
     fill-opacity="1"
     id="g88"
     transform="translate(80.194415,1.7460951)">
    <g
       transform="translate(148.42027,118.28099)"
       id="g86">
      <g
         id="g84">
        <path
           d="m 23.515625,-25.046875 c 0,0.773437 -0.125,1.558594 -0.375,2.359375 -0.242187,0.804688 -0.609375,1.554688 -1.109375,2.25 -0.492188,0.699219 -1.125,1.3125 -1.90625,1.84375 -0.773438,0.523438 -1.683594,0.921875 -2.734375,1.203125 v 0.1875 c 0.925781,0.148437 1.816406,0.40625 2.671875,0.78125 0.851562,0.375 1.601562,0.886719 2.25,1.53125 0.644531,0.648437 1.171875,1.433594 1.578125,2.359375 0.40625,0.929688 0.609375,2.027344 0.609375,3.296875 0,1.667969 -0.351562,3.117187 -1.046875,4.34375 -0.699219,1.21875 -1.617187,2.214844 -2.75,2.984375 -1.125,0.773438 -2.417969,1.34375 -3.875,1.71875 -1.449219,0.375 -2.929687,0.5625 -4.4375,0.5625 -0.53125,0 -1.152344,0 -1.859375,0 C 9.820312,0.375 9.078125,0.347656 8.296875,0.296875 7.523438,0.253906 6.753906,0.191406 5.984375,0.109375 5.210938,0.0351562 4.53125,-0.078125 3.9375,-0.234375 V -32.1875 c 1.144531,-0.1875 2.472656,-0.34375 3.984375,-0.46875 1.519531,-0.125 3.175781,-0.1875 4.96875,-0.1875 1.207031,0 2.4375,0.105469 3.6875,0.3125 1.257813,0.199219 2.398437,0.585938 3.421875,1.15625 1.019531,0.5625 1.859375,1.355469 2.515625,2.375 0.664063,1.023438 1,2.339844 1,3.953125 z M 12.75,-2.96875 c 0.988281,0 1.945312,-0.113281 2.875,-0.34375 0.9375,-0.238281 1.757812,-0.613281 2.46875,-1.125 0.707031,-0.507812 1.269531,-1.132812 1.6875,-1.875 0.414062,-0.738281 0.625,-1.617188 0.625,-2.640625 0,-1.269531 -0.257812,-2.289063 -0.765625,-3.0625 -0.511719,-0.769531 -1.179687,-1.367187 -2,-1.796875 -0.8125,-0.4375 -1.730469,-0.734375 -2.75,-0.890625 -1.023437,-0.15625 -2.042969,-0.234375 -3.0625,-0.234375 h -4.03125 v 11.640625 c 0.21875,0.0625 0.523437,0.109375 0.921875,0.140625 0.40625,0.03125 0.835938,0.0625 1.296875,0.09375 0.46875,0.03125 0.945313,0.058594 1.4375,0.078125 0.5,0.011719 0.929687,0.015625 1.296875,0.015625 z M 10.203125,-18.1875 c 0.53125,0 1.164063,-0.01563 1.90625,-0.04687 0.738281,-0.03125 1.359375,-0.07813 1.859375,-0.140625 0.738281,-0.238281 1.429688,-0.535156 2.078125,-0.890625 0.65625,-0.363281 1.238281,-0.785156 1.75,-1.265625 0.507813,-0.476562 0.910156,-1.035156 1.203125,-1.671875 0.289062,-0.632813 0.4375,-1.320313 0.4375,-2.0625 0,-1.019531 -0.195312,-1.859375 -0.578125,-2.515625 -0.386719,-0.664062 -0.90625,-1.203125 -1.5625,-1.609375 -0.648437,-0.40625 -1.386719,-0.691406 -2.21875,-0.859375 -0.835937,-0.164062 -1.683594,-0.25 -2.546875,-0.25 -1.023438,0 -1.960938,0.02734 -2.8125,0.07813 -0.855469,0.04297 -1.496094,0.109375 -1.921875,0.203125 v 11.03125 z m 0,0"
           id="path82" />
      </g>
    </g>
  </g>
  <g
     fill="#000000"
     fill-opacity="1"
     id="g96"
     transform="translate(80.194415,1.7460951)">
    <g
       transform="translate(173.84462,118.28099)"
       id="g94">
      <g
         id="g92">
        <path
           d="m 3.203125,-21.484375 c 1.175781,-0.707031 2.546875,-1.226563 4.109375,-1.5625 1.5625,-0.34375 3.191406,-0.515625 4.890625,-0.515625 1.601563,0 2.890625,0.21875 3.859375,0.65625 0.976562,0.429688 1.722656,0.992188 2.234375,1.6875 0.507813,0.6875 0.847656,1.453125 1.015625,2.296875 0.175781,0.835937 0.265625,1.667969 0.265625,2.5 0,1.855469 -0.04687,3.667969 -0.140625,5.4375 -0.09375,1.761719 -0.140625,3.429687 -0.140625,5 0,1.148437 0.04687,2.230469 0.140625,3.25 0.09375,1.023437 0.265625,1.964844 0.515625,2.828125 h -2.75 l -0.96875,-3.25 H 16 c -0.273438,0.4375 -0.621094,0.867188 -1.046875,1.28125 -0.417969,0.417969 -0.917969,0.789062 -1.5,1.109375 -0.585937,0.324219 -1.265625,0.59375 -2.046875,0.8125 C 10.632812,0.265625 9.753906,0.375 8.765625,0.375 7.773438,0.375 6.851562,0.21875 6,-0.09375 5.15625,-0.40625 4.421875,-0.84375 3.796875,-1.40625 3.179688,-1.976562 2.695312,-2.664062 2.34375,-3.46875 1.988281,-4.28125 1.8125,-5.195312 1.8125,-6.21875 c 0,-1.351562 0.273438,-2.488281 0.828125,-3.40625 0.5625,-0.914062 1.34375,-1.644531 2.34375,-2.1875 1.007813,-0.539062 2.21875,-0.925781 3.625,-1.15625 1.40625,-0.226562 2.957031,-0.34375 4.65625,-0.34375 0.4375,0 0.863281,0 1.28125,0 0.414063,0 0.835937,0.03125 1.265625,0.09375 0.09375,-0.925781 0.140625,-1.757812 0.140625,-2.5 0,-1.707031 -0.339844,-2.898438 -1.015625,-3.578125 -0.679688,-0.675781 -1.917969,-1.015625 -3.71875,-1.015625 -0.523438,0 -1.085938,0.03906 -1.6875,0.109375 -0.605469,0.07422 -1.226562,0.183594 -1.859375,0.328125 -0.625,0.136719 -1.226563,0.308594 -1.796875,0.515625 -0.574219,0.199219 -1.078125,0.417969 -1.515625,0.65625 z M 9.78125,-2.875 c 0.875,0 1.648438,-0.113281 2.328125,-0.34375 0.675781,-0.238281 1.257813,-0.535156 1.75,-0.890625 0.5,-0.351563 0.910156,-0.742187 1.234375,-1.171875 0.332031,-0.4375 0.570312,-0.859375 0.71875,-1.265625 v -3.84375 c -0.429688,-0.03125 -0.867188,-0.05078 -1.3125,-0.0625 -0.449219,-0.01953 -0.890625,-0.03125 -1.328125,-0.03125 -0.960937,0 -1.898437,0.05859 -2.8125,0.171875 -0.90625,0.105469 -1.710937,0.304688 -2.40625,0.59375 -0.699219,0.292969 -1.257813,0.695312 -1.671875,1.203125 -0.417969,0.511719 -0.625,1.152344 -0.625,1.921875 0,1.085938 0.382812,1.976562 1.15625,2.671875 C 7.59375,-3.222656 8.582031,-2.875 9.78125,-2.875 Z M 4.875,-30.296875 c 0,-0.707031 0.207031,-1.273437 0.625,-1.703125 0.414062,-0.4375 0.96875,-0.65625 1.65625,-0.65625 0.675781,0 1.222656,0.21875 1.640625,0.65625 0.414063,0.429688 0.625,0.996094 0.625,1.703125 0,0.65625 -0.210937,1.203125 -0.625,1.640625 -0.417969,0.429688 -0.964844,0.640625 -1.640625,0.640625 -0.6875,0 -1.242188,-0.210937 -1.65625,-0.640625 -0.417969,-0.4375 -0.625,-0.984375 -0.625,-1.640625 z m 8.90625,0 c 0,-0.707031 0.207031,-1.273437 0.625,-1.703125 0.414062,-0.4375 0.96875,-0.65625 1.65625,-0.65625 0.707031,0 1.269531,0.21875 1.6875,0.65625 0.414062,0.429688 0.625,0.996094 0.625,1.703125 0,0.65625 -0.210938,1.203125 -0.625,1.640625 -0.417969,0.429688 -0.980469,0.640625 -1.6875,0.640625 -0.6875,0 -1.242188,-0.210937 -1.65625,-0.640625 -0.417969,-0.4375 -0.625,-0.984375 -0.625,-1.640625 z m 0,0"
           id="path90" />
      </g>
    </g>
  </g>
  <g
     fill="#000000"
     fill-opacity="1"
     id="g104"
     transform="translate(80.194415,1.7460951)">
    <g
       transform="translate(195.18624,118.28099)"
       id="g102">
      <g
         id="g100">
        <path
           d="m 6.90625,-23.1875 v 13.21875 c 0,1.199219 0.066406,2.257812 0.203125,3.171875 0.144531,0.917969 0.382813,1.679687 0.71875,2.28125 0.34375,0.59375 0.804687,1.046875 1.390625,1.359375 0.59375,0.3125 1.335938,0.46875 2.234375,0.46875 0.84375,0 1.585937,-0.128906 2.234375,-0.390625 0.644531,-0.269531 1.222656,-0.632813 1.734375,-1.09375 0.507813,-0.46875 0.957031,-1.003906 1.34375,-1.609375 0.382813,-0.601562 0.703125,-1.242188 0.953125,-1.921875 V -23.1875 h 3.71875 v 16.59375 c 0,1.117188 0.03516,2.273438 0.109375,3.46875 0.08203,1.1875 0.210937,2.230469 0.390625,3.125 H 19.390625 L 18.46875,-3.671875 h -0.234375 c -0.710937,1.210937 -1.667969,2.21875 -2.875,3.03125 C 14.148438,0.160156 12.617188,0.5625 10.765625,0.5625 9.523438,0.5625 8.429688,0.410156 7.484375,0.109375 6.546875,-0.179688 5.757812,-0.695312 5.125,-1.4375 4.488281,-2.175781 4.007812,-3.171875 3.6875,-4.421875 3.363281,-5.679688 3.203125,-7.269531 3.203125,-9.1875 v -14 z m 0,0"
           id="path98" />
      </g>
    </g>
  </g>
  <g
     fill="#000000"
     fill-opacity="1"
     id="g112"
     transform="translate(80.194415,1.7460951)">
    <g
       transform="translate(218.52284,118.28099)"
       id="g110">
      <g
         id="g108">
        <path
           d="m 17.171875,0 v -13.125 c 0,-1.238281 -0.05859,-2.3125 -0.171875,-3.21875 -0.105469,-0.914062 -0.3125,-1.679688 -0.625,-2.296875 -0.3125,-0.625 -0.757812,-1.085937 -1.328125,-1.390625 -0.5625,-0.3125 -1.3125,-0.46875 -2.25,-0.46875 -1.417969,0 -2.601563,0.433594 -3.546875,1.296875 -0.9375,0.867187 -1.59375,1.949219 -1.96875,3.25 V 0 H 3.578125 v -23.1875 h 2.59375 l 0.6875,2.828125 h 0.1875 c 0.832031,-0.988281 1.796875,-1.800781 2.890625,-2.4375 1.101562,-0.632813 2.535156,-0.953125 4.296875,-0.953125 1.488281,0 2.703125,0.289062 3.640625,0.859375 0.945312,0.574219 1.6875,1.570313 2.21875,2.984375 0.707031,-1.195312 1.6875,-2.132812 2.9375,-2.8125 1.25,-0.6875 2.664062,-1.03125 4.25,-1.03125 1.289062,0 2.382812,0.148438 3.28125,0.4375 0.90625,0.292969 1.648438,0.8125 2.234375,1.5625 0.582031,0.742188 1.003906,1.746094 1.265625,3.015625 0.269531,1.261719 0.40625,2.867187 0.40625,4.8125 V 0 H 30.75 v -13.96875 c 0,-1.113281 -0.05469,-2.078125 -0.15625,-2.890625 -0.105469,-0.820313 -0.324219,-1.503906 -0.65625,-2.046875 -0.324219,-0.539062 -0.773438,-0.941406 -1.34375,-1.203125 -0.574219,-0.257813 -1.324219,-0.390625 -2.25,-0.390625 -1.542969,0 -2.746094,0.433594 -3.609375,1.296875 C 21.867188,-18.335938 21.25,-17.101562 20.875,-15.5 V 0 Z m 0,0"
           id="path106" />
      </g>
    </g>
  </g>
  <g
     fill="#000000"
     fill-opacity="1"
     id="g120"
     transform="translate(80.194415,1.7460951)">
    <g
       transform="translate(254.52522,118.28099)"
       id="g118">
      <g
         id="g116">
        <path
           d="M 20.5,-1.859375 C 19.570312,-1.117188 18.40625,-0.53125 17,-0.09375 15.59375,0.34375 14.101562,0.5625 12.53125,0.5625 10.757812,0.5625 9.222656,0.273438 7.921875,-0.296875 6.628906,-0.867188 5.566406,-1.6875 4.734375,-2.75 3.898438,-3.820312 3.28125,-5.097656 2.875,-6.578125 2.46875,-8.066406 2.265625,-9.738281 2.265625,-11.59375 c 0,-3.957031 0.878906,-6.972656 2.640625,-9.046875 1.769531,-2.070313 4.296875,-3.109375 7.578125,-3.109375 1.050781,0 2.097656,0.117188 3.140625,0.34375 1.050781,0.230469 1.992188,0.671875 2.828125,1.328125 0.84375,0.648437 1.523437,1.570313 2.046875,2.765625 0.53125,1.1875 0.796875,2.757812 0.796875,4.703125 0,1.023437 -0.09375,2.152344 -0.28125,3.390625 H 6.125 c 0,1.355469 0.132812,2.558594 0.40625,3.609375 0.28125,1.054687 0.710938,1.945313 1.296875,2.671875 0.59375,0.730469 1.359375,1.289062 2.296875,1.671875 0.945312,0.386719 2.101562,0.578125 3.46875,0.578125 1.050781,0 2.101562,-0.179688 3.15625,-0.546875 1.050781,-0.375 1.835938,-0.8125 2.359375,-1.3125 z M 12.53125,-20.5 c -1.835938,0 -3.296875,0.480469 -4.390625,1.4375 -1.09375,0.960938 -1.75,2.59375 -1.96875,4.90625 h 11.5 c 0,-2.34375 -0.449219,-3.984375 -1.34375,-4.921875 C 15.429688,-20.023438 14.164062,-20.5 12.53125,-20.5 Z m 0,0"
           id="path114" />
      </g>
    </g>
  </g>
  <g
     fill="#000000"
     fill-opacity="1"
     id="g128"
     transform="translate(80.194415,1.7460951)">
    <g
       transform="translate(151.18607,142.13893)"
       id="g126">
      <g
         id="g124">
        <path
           d="m 1.453125,-11.953125 c 0.21875,-0.03125 0.457031,-0.05469 0.71875,-0.07813 0.269531,-0.01953 0.550781,-0.03125 0.84375,-0.03125 0.289063,-0.0078 0.570313,-0.01563 0.84375,-0.01563 0.28125,-0.0078 0.539063,-0.01563 0.78125,-0.01563 0.957031,0 1.785156,0.152344 2.484375,0.453125 0.707031,0.292969 1.285156,0.703125 1.734375,1.234375 C 9.316406,-9.875 9.65625,-9.238281 9.875,-8.5 c 0.226562,0.742188 0.34375,1.554688 0.34375,2.4375 0,0.8125 -0.109375,1.59375 -0.328125,2.34375 -0.210937,0.742188 -0.542969,1.398438 -1,1.96875 C 8.441406,-1.175781 7.851562,-0.710938 7.125,-0.359375 6.394531,-0.015625 5.507812,0.15625 4.46875,0.15625 c -0.179688,0 -0.414062,-0.007812 -0.703125,-0.015625 -0.292969,0 -0.59375,-0.011719 -0.90625,-0.03125 C 2.554688,0.0859375 2.273438,0.0703125 2.015625,0.0625 1.753906,0.0507812 1.566406,0.0351562 1.453125,0.015625 Z m 3.21875,1.125 c -0.148437,0 -0.308594,0 -0.484375,0 -0.179688,0 -0.351562,0.0078 -0.515625,0.01563 -0.167969,0.01172 -0.324219,0.02344 -0.46875,0.03125 -0.148437,0.01172 -0.257813,0.02734 -0.328125,0.04687 v 9.5625 c 0.050781,0.011719 0.15625,0.023437 0.3125,0.03125 0.164062,0 0.332031,0.00781 0.5,0.015625 0.164062,0 0.328125,0.00781 0.484375,0.015625 0.164063,0 0.28125,0 0.34375,0 0.789063,0 1.457031,-0.132813 2,-0.40625 C 7.054688,-1.796875 7.488281,-2.164062 7.8125,-2.625 8.132812,-3.082031 8.363281,-3.609375 8.5,-4.203125 8.632812,-4.804688 8.703125,-5.425781 8.703125,-6.0625 c 0,-0.5625 -0.0625,-1.125 -0.1875,-1.6875 -0.125,-0.5625 -0.34375,-1.066406 -0.65625,-1.515625 -0.304687,-0.457031 -0.714844,-0.832031 -1.234375,-1.125 -0.511719,-0.289063 -1.164062,-0.4375 -1.953125,-0.4375 z m 0,0"
           id="path122" />
      </g>
    </g>
  </g>
  <g
     fill="#000000"
     fill-opacity="1"
     id="g136"
     transform="translate(80.194415,1.7460951)">
    <g
       transform="translate(161.74331,142.13893)"
       id="g134">
      <g
         id="g132">
        <path
           d="M 1.609375,-8.546875 H 2.96875 V 0 H 1.609375 Z M 1.3125,-11.140625 c 0,-0.257813 0.085938,-0.484375 0.265625,-0.671875 C 1.753906,-12 1.976562,-12.09375 2.25,-12.09375 c 0.28125,0 0.515625,0.09375 0.703125,0.28125 0.195313,0.1875 0.296875,0.414062 0.296875,0.671875 0,0.273437 -0.101562,0.492187 -0.296875,0.65625 -0.1875,0.167969 -0.421875,0.25 -0.703125,0.25 -0.273438,0 -0.496094,-0.08203 -0.671875,-0.25 C 1.398438,-10.648438 1.3125,-10.867188 1.3125,-11.140625 Z m 0,0"
           id="path130" />
      </g>
    </g>
  </g>
  <g
     fill="#000000"
     fill-opacity="1"
     id="g144"
     transform="translate(80.194415,1.7460951)">
    <g
       transform="translate(165.70652,142.13893)"
       id="g142">
      <g
         id="g140">
        <path
           d="M 7.546875,-0.6875 C 7.203125,-0.40625 6.769531,-0.1875 6.25,-0.03125 5.738281,0.125 5.191406,0.203125 4.609375,0.203125 c -0.648437,0 -1.210937,-0.1054688 -1.6875,-0.3125 -0.480469,-0.207031 -0.875,-0.507813 -1.1875,-0.90625 C 1.429688,-1.410156 1.207031,-1.878906 1.0625,-2.421875 0.914062,-2.972656 0.84375,-3.585938 0.84375,-4.265625 0.84375,-5.722656 1.164062,-6.832031 1.8125,-7.59375 2.457031,-8.363281 3.382812,-8.75 4.59375,-8.75 c 0.382812,0 0.769531,0.046875 1.15625,0.140625 0.394531,0.085937 0.742188,0.246094 1.046875,0.484375 0.3125,0.242188 0.5625,0.578125 0.75,1.015625 0.195313,0.4375 0.296875,1.015625 0.296875,1.734375 0,0.375 -0.039062,0.789062 -0.109375,1.234375 H 2.25 c 0,0.511719 0.050781,0.960937 0.15625,1.34375 0.101562,0.386719 0.257812,0.714844 0.46875,0.984375 0.21875,0.261719 0.5,0.464844 0.84375,0.609375 C 4.070312,-1.054688 4.5,-0.984375 5,-0.984375 c 0.382812,0 0.769531,-0.066406 1.15625,-0.203125 0.394531,-0.144531 0.6875,-0.304688 0.875,-0.484375 z m -2.9375,-6.859375 c -0.667969,0 -1.203125,0.179687 -1.609375,0.53125 -0.40625,0.355469 -0.652344,0.960937 -0.734375,1.8125 H 6.5 c 0,-0.863281 -0.167969,-1.46875 -0.5,-1.8125 -0.324219,-0.351563 -0.789062,-0.53125 -1.390625,-0.53125 z m 0,0"
           id="path138" />
      </g>
    </g>
  </g>
  <g
     fill="#000000"
     fill-opacity="1"
     id="g158"
     transform="translate(80.194415,1.7460951)">
    <g
       transform="translate(177.71578,142.13893)"
       id="g156">
      <g
         id="g154">
        <path
           d="m 8.65625,-9.21875 c 0,0.28125 -0.046875,0.574219 -0.140625,0.875 -0.085937,0.292969 -0.21875,0.570312 -0.40625,0.828125 -0.179687,0.25 -0.414063,0.476563 -0.703125,0.671875 -0.28125,0.1875 -0.617188,0.335938 -1,0.4375 v 0.0625 c 0.34375,0.0625 0.671875,0.164062 0.984375,0.296875 0.3125,0.136719 0.585937,0.324219 0.828125,0.5625 0.238281,0.242187 0.429688,0.53125 0.578125,0.875 0.144531,0.34375 0.21875,0.746094 0.21875,1.203125 0,0.625 -0.132813,1.164062 -0.390625,1.609375 -0.25,0.449219 -0.585938,0.820313 -1,1.109375 -0.417969,0.28125 -0.898438,0.492188 -1.4375,0.625 -0.53125,0.1328125 -1.074219,0.203125 -1.625,0.203125 -0.199219,0 -0.429688,0 -0.6875,0 -0.261719,0 -0.539062,-0.011719 -0.828125,-0.03125 C 2.765625,0.0859375 2.484375,0.0625 2.203125,0.03125 c -0.28125,-0.0234375 -0.53125,-0.0546875 -0.75,-0.109375 v -11.78125 c 0.414063,-0.0625 0.898437,-0.113281 1.453125,-0.15625 0.5625,-0.05078 1.175781,-0.07813 1.84375,-0.07813 0.4375,0 0.882812,0.03906 1.34375,0.109375 0.46875,0.07422 0.890625,0.21875 1.265625,0.4375 0.375,0.210937 0.679687,0.5 0.921875,0.875 0.25,0.375 0.375,0.859375 0.375,1.453125 z m -3.953125,8.125 c 0.363281,0 0.710937,-0.039062 1.046875,-0.125 0.34375,-0.082031 0.644531,-0.21875 0.90625,-0.40625 0.257812,-0.1875 0.46875,-0.414062 0.625,-0.6875 0.15625,-0.28125 0.234375,-0.609375 0.234375,-0.984375 0,-0.46875 -0.09375,-0.84375 -0.28125,-1.125 -0.1875,-0.28125 -0.433594,-0.5 -0.734375,-0.65625 C 6.195312,-5.242188 5.859375,-5.351562 5.484375,-5.40625 5.109375,-5.46875 4.734375,-5.5 4.359375,-5.5 H 2.875 v 4.28125 c 0.070312,0.03125 0.179688,0.054688 0.328125,0.0625 0.15625,0.011719 0.316406,0.023438 0.484375,0.03125 0.164062,0.011719 0.335938,0.023438 0.515625,0.03125 0.1875,0 0.351563,0 0.5,0 z M 3.75,-6.6875 c 0.195312,0 0.429688,-0.00391 0.703125,-0.015625 0.28125,-0.019531 0.507813,-0.039063 0.6875,-0.0625 0.269531,-0.09375 0.523437,-0.203125 0.765625,-0.328125 0.238281,-0.132812 0.453125,-0.289062 0.640625,-0.46875 0.1875,-0.175781 0.332031,-0.378906 0.4375,-0.609375 C 7.097656,-8.398438 7.15625,-8.65625 7.15625,-8.9375 c 0,-0.375 -0.074219,-0.679688 -0.21875,-0.921875 -0.136719,-0.25 -0.324219,-0.445313 -0.5625,-0.59375 -0.242188,-0.144531 -0.515625,-0.25 -0.828125,-0.3125 -0.304687,-0.0625 -0.617187,-0.09375 -0.9375,-0.09375 -0.375,0 -0.71875,0.01172 -1.03125,0.03125 -0.3125,0.01172 -0.546875,0.03125 -0.703125,0.0625 V -6.6875 Z m 0,0"
           id="path152" />
      </g>
    </g>
  </g>
  <g
     fill="#000000"
     fill-opacity="1"
     id="g166"
     transform="translate(80.194415,1.7460951)">
    <g
       transform="translate(187.07721,142.13893)"
       id="g164">
      <g
         id="g162">
        <path
           d="M 7.546875,-0.6875 C 7.203125,-0.40625 6.769531,-0.1875 6.25,-0.03125 5.738281,0.125 5.191406,0.203125 4.609375,0.203125 c -0.648437,0 -1.210937,-0.1054688 -1.6875,-0.3125 -0.480469,-0.207031 -0.875,-0.507813 -1.1875,-0.90625 C 1.429688,-1.410156 1.207031,-1.878906 1.0625,-2.421875 0.914062,-2.972656 0.84375,-3.585938 0.84375,-4.265625 0.84375,-5.722656 1.164062,-6.832031 1.8125,-7.59375 2.457031,-8.363281 3.382812,-8.75 4.59375,-8.75 c 0.382812,0 0.769531,0.046875 1.15625,0.140625 0.394531,0.085937 0.742188,0.246094 1.046875,0.484375 0.3125,0.242188 0.5625,0.578125 0.75,1.015625 0.195313,0.4375 0.296875,1.015625 0.296875,1.734375 0,0.375 -0.039062,0.789062 -0.109375,1.234375 H 2.25 c 0,0.511719 0.050781,0.960937 0.15625,1.34375 0.101562,0.386719 0.257812,0.714844 0.46875,0.984375 0.21875,0.261719 0.5,0.464844 0.84375,0.609375 C 4.070312,-1.054688 4.5,-0.984375 5,-0.984375 c 0.382812,0 0.769531,-0.066406 1.15625,-0.203125 0.394531,-0.144531 0.6875,-0.304688 0.875,-0.484375 z m -2.9375,-6.859375 c -0.667969,0 -1.203125,0.179687 -1.609375,0.53125 -0.40625,0.355469 -0.652344,0.960937 -0.734375,1.8125 H 6.5 c 0,-0.863281 -0.167969,-1.46875 -0.5,-1.8125 -0.324219,-0.351563 -0.789062,-0.53125 -1.390625,-0.53125 z m 0,0"
           id="path160" />
      </g>
    </g>
  </g>
  <g
     fill="#000000"
     fill-opacity="1"
     id="g174"
     transform="translate(80.194415,1.7460951)">
    <g
       transform="translate(195.14034,142.13893)"
       id="g172">
      <g
         id="g170">
        <path
           d="m 6.84375,-8.546875 1.96875,5 0.421875,1.640625 H 9.28125 l 0.3125,-1.6875 1.53125,-4.953125 h 1.296875 L 9.546875,0.1875 H 8.875 L 6.640625,-5.453125 6.3125,-6.84375 H 6.265625 L 5.921875,-5.4375 3.78125,0.1875 H 3.109375 L 0.140625,-8.546875 H 1.625 L 3.3125,-3.5625 3.609375,-1.90625 H 3.625 l 0.40625,-1.703125 1.828125,-4.9375 z m 0,0"
           id="path168" />
      </g>
    </g>
  </g>
  <g
     fill="#000000"
     fill-opacity="1"
     id="g182"
     transform="translate(80.194415,1.7460951)">
    <g
       transform="translate(207.08129,142.13893)"
       id="g180">
      <g
         id="g178">
        <path
           d="M 7.546875,-0.6875 C 7.203125,-0.40625 6.769531,-0.1875 6.25,-0.03125 5.738281,0.125 5.191406,0.203125 4.609375,0.203125 c -0.648437,0 -1.210937,-0.1054688 -1.6875,-0.3125 -0.480469,-0.207031 -0.875,-0.507813 -1.1875,-0.90625 C 1.429688,-1.410156 1.207031,-1.878906 1.0625,-2.421875 0.914062,-2.972656 0.84375,-3.585938 0.84375,-4.265625 0.84375,-5.722656 1.164062,-6.832031 1.8125,-7.59375 2.457031,-8.363281 3.382812,-8.75 4.59375,-8.75 c 0.382812,0 0.769531,0.046875 1.15625,0.140625 0.394531,0.085937 0.742188,0.246094 1.046875,0.484375 0.3125,0.242188 0.5625,0.578125 0.75,1.015625 0.195313,0.4375 0.296875,1.015625 0.296875,1.734375 0,0.375 -0.039062,0.789062 -0.109375,1.234375 H 2.25 c 0,0.511719 0.050781,0.960937 0.15625,1.34375 0.101562,0.386719 0.257812,0.714844 0.46875,0.984375 0.21875,0.261719 0.5,0.464844 0.84375,0.609375 C 4.070312,-1.054688 4.5,-0.984375 5,-0.984375 c 0.382812,0 0.769531,-0.066406 1.15625,-0.203125 0.394531,-0.144531 0.6875,-0.304688 0.875,-0.484375 z m -2.9375,-6.859375 c -0.667969,0 -1.203125,0.179687 -1.609375,0.53125 -0.40625,0.355469 -0.652344,0.960937 -0.734375,1.8125 H 6.5 c 0,-0.863281 -0.167969,-1.46875 -0.5,-1.8125 -0.324219,-0.351563 -0.789062,-0.53125 -1.390625,-0.53125 z m 0,0"
           id="path176" />
      </g>
    </g>
  </g>
  <g
     fill="#000000"
     fill-opacity="1"
     id="g190"
     transform="translate(80.194415,1.7460951)">
    <g
       transform="translate(215.14442,142.13893)"
       id="g188">
      <g
         id="g186">
        <path
           d="m 7.859375,0.390625 c 0,1.101563 -0.296875,1.914063 -0.890625,2.4375 C 6.382812,3.359375 5.519531,3.625 4.375,3.625 3.6875,3.625 3.132812,3.578125 2.71875,3.484375 2.300781,3.398438 1.945312,3.289062 1.65625,3.15625 L 2.015625,2 C 2.273438,2.101562 2.5625,2.195312 2.875,2.28125 3.195312,2.375 3.617188,2.421875 4.140625,2.421875 c 0.46875,0 0.851563,-0.042969 1.15625,-0.125 C 5.597656,2.210938 5.835938,2.070312 6.015625,1.875 6.203125,1.675781 6.328125,1.414062 6.390625,1.09375 6.460938,0.78125 6.5,0.410156 6.5,-0.015625 V -0.84375 H 6.4375 C 6.207031,-0.507812 5.914062,-0.253906 5.5625,-0.078125 5.207031,0.0976562 4.75,0.1875 4.1875,0.1875 c -1.15625,0 -2.007812,-0.359375 -2.546875,-1.078125 -0.53125,-0.71875 -0.796875,-1.832031 -0.796875,-3.34375 0,-1.457031 0.34375,-2.5625 1.03125,-3.3125 0.695312,-0.757813 1.722656,-1.140625 3.078125,-1.140625 0.644531,0 1.195313,0.054688 1.65625,0.15625 0.46875,0.09375 0.882813,0.210938 1.25,0.34375 z M 4.421875,-1 c 0.582031,0 1.035156,-0.144531 1.359375,-0.4375 0.332031,-0.289062 0.566406,-0.742188 0.703125,-1.359375 v -4.375 C 6.035156,-7.390625 5.457031,-7.5 4.75,-7.5 3.976562,-7.5 3.367188,-7.234375 2.921875,-6.703125 2.472656,-6.179688 2.25,-5.363281 2.25,-4.25 c 0,0.480469 0.039062,0.917969 0.125,1.3125 0.082031,0.398438 0.207031,0.742188 0.375,1.03125 0.164062,0.28125 0.382812,0.507812 0.65625,0.671875 C 3.6875,-1.078125 4.023438,-1 4.421875,-1 Z m 0,0"
           id="path184" />
      </g>
    </g>
  </g>
  <g
     fill="#000000"
     fill-opacity="1"
     id="g198"
     transform="translate(80.194415,1.7460951)">
    <g
       transform="translate(223.70295,142.13893)"
       id="g196">
      <g
         id="g194">
        <path
           d="m 2.546875,-8.546875 v 4.875 c 0,0.449219 0.023437,0.839844 0.078125,1.171875 0.050781,0.335938 0.140625,0.617188 0.265625,0.84375 0.125,0.21875 0.289063,0.386719 0.5,0.5 0.21875,0.117188 0.492187,0.171875 0.828125,0.171875 0.300781,0 0.570312,-0.046875 0.8125,-0.140625 0.238281,-0.101562 0.453125,-0.238281 0.640625,-0.40625 0.1875,-0.175781 0.351563,-0.375 0.5,-0.59375 C 6.316406,-2.34375 6.4375,-2.578125 6.53125,-2.828125 v -5.71875 h 1.359375 v 6.125 c 0,0.40625 0.00781,0.828125 0.03125,1.265625 0.03125,0.4375 0.082031,0.824219 0.15625,1.15625 h -0.9375 L 6.796875,-1.34375 H 6.71875 c -0.273438,0.4375 -0.632812,0.808594 -1.078125,1.109375 -0.4375,0.2890625 -0.996094,0.4375 -1.671875,0.4375 C 3.507812,0.203125 3.101562,0.144531 2.75,0.03125 2.40625,-0.0703125 2.113281,-0.257812 1.875,-0.53125 1.644531,-0.800781 1.46875,-1.164062 1.34375,-1.625 1.226562,-2.09375 1.171875,-2.675781 1.171875,-3.375 v -5.171875 z m 0,0"
           id="path192" />
      </g>
    </g>
  </g>
  <g
     fill="#000000"
     fill-opacity="1"
     id="g206"
     transform="translate(80.194415,1.7460951)">
    <g
       transform="translate(232.29564,142.13893)"
       id="g204">
      <g
         id="g202">
        <path
           d="m 6.796875,0 v -4.875 c 0,-0.882812 -0.132813,-1.550781 -0.390625,-2 C 6.15625,-7.320312 5.6875,-7.546875 5,-7.546875 c -0.605469,0 -1.105469,0.164063 -1.5,0.484375 -0.386719,0.324219 -0.65625,0.730469 -0.8125,1.21875 V 0 H 1.3125 V -8.546875 H 2.265625 L 2.53125,-7.5 h 0.0625 C 2.863281,-7.863281 3.226562,-8.160156 3.6875,-8.390625 4.15625,-8.628906 4.707031,-8.75 5.34375,-8.75 c 0.46875,0 0.878906,0.058594 1.234375,0.171875 0.351563,0.105469 0.644531,0.296875 0.875,0.578125 0.238281,0.273438 0.414063,0.636719 0.53125,1.09375 0.113281,0.460938 0.171875,1.042969 0.171875,1.75 V 0 Z m 0,0"
           id="path200" />
      </g>
    </g>
  </g>
  <g
     fill="#000000"
     fill-opacity="1"
     id="g214"
     transform="translate(80.194415,1.7460951)">
    <g
       transform="translate(241.025,142.13893)"
       id="g212">
      <g
         id="g210">
        <path
           d="m 7.859375,0.390625 c 0,1.101563 -0.296875,1.914063 -0.890625,2.4375 C 6.382812,3.359375 5.519531,3.625 4.375,3.625 3.6875,3.625 3.132812,3.578125 2.71875,3.484375 2.300781,3.398438 1.945312,3.289062 1.65625,3.15625 L 2.015625,2 C 2.273438,2.101562 2.5625,2.195312 2.875,2.28125 3.195312,2.375 3.617188,2.421875 4.140625,2.421875 c 0.46875,0 0.851563,-0.042969 1.15625,-0.125 C 5.597656,2.210938 5.835938,2.070312 6.015625,1.875 6.203125,1.675781 6.328125,1.414062 6.390625,1.09375 6.460938,0.78125 6.5,0.410156 6.5,-0.015625 V -0.84375 H 6.4375 C 6.207031,-0.507812 5.914062,-0.253906 5.5625,-0.078125 5.207031,0.0976562 4.75,0.1875 4.1875,0.1875 c -1.15625,0 -2.007812,-0.359375 -2.546875,-1.078125 -0.53125,-0.71875 -0.796875,-1.832031 -0.796875,-3.34375 0,-1.457031 0.34375,-2.5625 1.03125,-3.3125 0.695312,-0.757813 1.722656,-1.140625 3.078125,-1.140625 0.644531,0 1.195313,0.054688 1.65625,0.15625 0.46875,0.09375 0.882813,0.210938 1.25,0.34375 z M 4.421875,-1 c 0.582031,0 1.035156,-0.144531 1.359375,-0.4375 0.332031,-0.289062 0.566406,-0.742188 0.703125,-1.359375 v -4.375 C 6.035156,-7.390625 5.457031,-7.5 4.75,-7.5 3.976562,-7.5 3.367188,-7.234375 2.921875,-6.703125 2.472656,-6.179688 2.25,-5.363281 2.25,-4.25 c 0,0.480469 0.039062,0.917969 0.125,1.3125 0.082031,0.398438 0.207031,0.742188 0.375,1.03125 0.164062,0.28125 0.382812,0.507812 0.65625,0.671875 C 3.6875,-1.078125 4.023438,-1 4.421875,-1 Z m 0,0"
           id="path208" />
      </g>
    </g>
  </g>
  <g
     fill="#000000"
     fill-opacity="1"
     id="g228"
     transform="translate(80.194415,1.7460951)">
    <g
       transform="translate(253.52966,142.13893)"
       id="g226">
      <g
         id="g224">
        <path
           d="m 0.375,-8.546875 h 1.328125 v -0.46875 c 0,-0.519531 0.039063,-0.972656 0.125,-1.359375 0.09375,-0.394531 0.234375,-0.710938 0.421875,-0.953125 0.195312,-0.25 0.445312,-0.429687 0.75,-0.546875 0.3125,-0.125 0.695312,-0.1875 1.15625,-0.1875 0.363281,0 0.679688,0.02734 0.953125,0.07813 0.28125,0.04297 0.578125,0.125 0.890625,0.25 l -0.3125,1.140625 c -0.261719,-0.113281 -0.511719,-0.1875 -0.75,-0.21875 -0.230469,-0.03125 -0.449219,-0.04687 -0.65625,-0.04687 -0.292969,0 -0.523438,0.04687 -0.6875,0.140625 -0.167969,0.08594 -0.289062,0.214844 -0.359375,0.390625 -0.074219,0.179687 -0.121094,0.398437 -0.140625,0.65625 -0.011719,0.25 -0.015625,0.546875 -0.015625,0.890625 v 0.234375 H 5.34375 V -7.34375 H 3.078125 V 0 h -1.375 V -7.34375 H 0.375 Z m 0,0"
           id="path222" />
      </g>
    </g>
  </g>
  <g
     fill="#000000"
     fill-opacity="1"
     id="g236"
     transform="translate(80.194415,1.7460951)">
    <g
       transform="translate(258.36412,142.13893)"
       id="g234">
      <g
         id="g232">
        <path
           d="m 2.546875,-8.546875 v 4.875 c 0,0.449219 0.023437,0.839844 0.078125,1.171875 0.050781,0.335938 0.140625,0.617188 0.265625,0.84375 0.125,0.21875 0.289063,0.386719 0.5,0.5 0.21875,0.117188 0.492187,0.171875 0.828125,0.171875 0.300781,0 0.570312,-0.046875 0.8125,-0.140625 0.238281,-0.101562 0.453125,-0.238281 0.640625,-0.40625 0.1875,-0.175781 0.351563,-0.375 0.5,-0.59375 C 6.316406,-2.34375 6.4375,-2.578125 6.53125,-2.828125 v -5.71875 h 1.359375 v 6.125 c 0,0.40625 0.00781,0.828125 0.03125,1.265625 0.03125,0.4375 0.082031,0.824219 0.15625,1.15625 h -0.9375 L 6.796875,-1.34375 H 6.71875 c -0.273438,0.4375 -0.632812,0.808594 -1.078125,1.109375 -0.4375,0.2890625 -0.996094,0.4375 -1.671875,0.4375 C 3.507812,0.203125 3.101562,0.144531 2.75,0.03125 2.40625,-0.0703125 2.113281,-0.257812 1.875,-0.53125 1.644531,-0.800781 1.46875,-1.164062 1.34375,-1.625 1.226562,-2.09375 1.171875,-2.675781 1.171875,-3.375 v -5.171875 z m -0.40625,-2.609375 c 0,-0.257812 0.070313,-0.46875 0.21875,-0.625 0.15625,-0.15625 0.359375,-0.234375 0.609375,-0.234375 0.25,0 0.453125,0.07813 0.609375,0.234375 0.15625,0.15625 0.234375,0.367188 0.234375,0.625 0,0.242188 -0.078125,0.445312 -0.234375,0.609375 -0.15625,0.15625 -0.359375,0.234375 -0.609375,0.234375 -0.25,0 -0.453125,-0.07813 -0.609375,-0.234375 -0.148437,-0.164063 -0.21875,-0.367187 -0.21875,-0.609375 z m 3.265625,0 c 0,-0.257812 0.078125,-0.46875 0.234375,-0.625 C 5.796875,-11.9375 6,-12.015625 6.25,-12.015625 c 0.257812,0 0.46875,0.07813 0.625,0.234375 0.15625,0.15625 0.234375,0.367188 0.234375,0.625 0,0.242188 -0.078125,0.445312 -0.234375,0.609375 -0.15625,0.15625 -0.367188,0.234375 -0.625,0.234375 -0.25,0 -0.453125,-0.07813 -0.609375,-0.234375 -0.15625,-0.164063 -0.234375,-0.367187 -0.234375,-0.609375 z m 0,0"
           id="path230" />
      </g>
    </g>
  </g>
  <g
     fill="#000000"
     fill-opacity="1"
     id="g244"
     transform="translate(80.194415,1.7460951)">
    <g
       transform="translate(266.95681,142.13893)"
       id="g242">
      <g
         id="g240">
        <path
           d="M 5.34375,-7.21875 C 5,-7.332031 4.675781,-7.390625 4.375,-7.390625 c -0.492188,0 -0.882812,0.136719 -1.171875,0.40625 -0.28125,0.261719 -0.453125,0.59375 -0.515625,1 V 0 H 1.3125 V -8.546875 H 2.265625 L 2.53125,-7.5 h 0.0625 C 2.8125,-7.882812 3.070312,-8.179688 3.375,-8.390625 c 0.300781,-0.207031 0.6875,-0.3125 1.15625,-0.3125 0.320312,0 0.691406,0.054687 1.109375,0.15625 z m 0,0"
           id="path238" />
      </g>
    </g>
  </g>
  <g
     fill="#000000"
     fill-opacity="1"
     id="g252"
     transform="translate(80.194415,1.7460951)">
    <g
       transform="translate(151.18607,159.17567)"
       id="g250">
      <g
         id="g248">
        <path
           d="M 3.609375,-7.828125 2.6875,-9.546875 H 2.609375 l 0.171875,1.71875 V 0 H 1.453125 v -12.140625 h 0.75 l 5.71875,7.96875 0.890625,1.640625 h 0.078125 l -0.1875,-1.640625 v -7.78125 h 1.34375 V 0.1875 h -0.75 z m 0,0"
           id="path246" />
      </g>
    </g>
  </g>
  <g
     fill="#000000"
     fill-opacity="1"
     id="g260"
     transform="translate(80.194415,1.7460951)">
    <g
       transform="translate(162.06788,159.17567)"
       id="g258">
      <g
         id="g256">
        <path
           d="m 1.171875,-7.90625 c 0.4375,-0.257812 0.941406,-0.453125 1.515625,-0.578125 0.570312,-0.125 1.171875,-0.1875 1.796875,-0.1875 0.59375,0 1.066406,0.078125 1.421875,0.234375 0.363281,0.15625 0.640625,0.367188 0.828125,0.625 0.1875,0.261719 0.3125,0.546875 0.375,0.859375 0.0625,0.304687 0.09375,0.605469 0.09375,0.90625 0,0.6875 -0.015625,1.355469 -0.046875,2 C 7.125,-3.398438 7.109375,-2.785156 7.109375,-2.203125 7.109375,-1.785156 7.125,-1.382812 7.15625,-1 7.1875,-0.625 7.25,-0.28125 7.34375,0.03125 h -1 L 5.984375,-1.15625 H 5.890625 C 5.785156,-1 5.65625,-0.84375 5.5,-0.6875 c -0.148438,0.148438 -0.328125,0.28125 -0.546875,0.40625 -0.21875,0.117188 -0.46875,0.2148438 -0.75,0.296875 -0.28125,0.0820312 -0.605469,0.125 -0.96875,0.125 -0.367187,0 -0.710937,-0.0585938 -1.03125,-0.171875 -0.3125,-0.113281 -0.585937,-0.273438 -0.8125,-0.484375 -0.21875,-0.21875 -0.398437,-0.472656 -0.53125,-0.765625 -0.125,-0.289062 -0.1875,-0.625 -0.1875,-1 0,-0.507812 0.097656,-0.929688 0.296875,-1.265625 0.207031,-0.332031 0.492188,-0.597656 0.859375,-0.796875 0.375,-0.195312 0.816406,-0.335938 1.328125,-0.421875 0.519531,-0.09375 1.097656,-0.140625 1.734375,-0.140625 0.15625,0 0.304687,0 0.453125,0 0.15625,0 0.316406,0.011719 0.484375,0.03125 C 5.859375,-5.207031 5.875,-5.515625 5.875,-5.796875 c 0,-0.625 -0.125,-1.0625 -0.375,-1.3125 -0.25,-0.25 -0.703125,-0.375 -1.359375,-0.375 -0.199219,0 -0.414063,0.015625 -0.640625,0.046875 -0.21875,0.03125 -0.449219,0.074219 -0.6875,0.125 -0.230469,0.054688 -0.449219,0.117188 -0.65625,0.1875 -0.210938,0.074219 -0.390625,0.15625 -0.546875,0.25 z m 2.4375,6.84375 c 0.3125,0 0.59375,-0.039062 0.84375,-0.125 0.25,-0.082031 0.460937,-0.1875 0.640625,-0.3125 0.1875,-0.132812 0.335938,-0.28125 0.453125,-0.4375 0.125,-0.164062 0.21875,-0.320312 0.28125,-0.46875 v -1.421875 c -0.167969,-0.00781 -0.335937,-0.015625 -0.5,-0.015625 -0.15625,-0.00781 -0.320313,-0.015625 -0.484375,-0.015625 -0.34375,0 -0.6875,0.023437 -1.03125,0.0625 -0.335938,0.042969 -0.632812,0.117187 -0.890625,0.21875 -0.25,0.105469 -0.453125,0.25 -0.609375,0.4375 -0.15625,0.1875 -0.234375,0.429687 -0.234375,0.71875 0,0.398437 0.140625,0.726563 0.421875,0.984375 0.289062,0.25 0.660156,0.375 1.109375,0.375 z m 0,0"
           id="path254" />
      </g>
    </g>
  </g>
  <g
     fill="#000000"
     fill-opacity="1"
     id="g268"
     transform="translate(80.194415,1.7460951)">
    <g
       transform="translate(169.92601,159.17567)"
       id="g266">
      <g
         id="g264">
        <path
           d="m 7.140625,-0.5625 c -0.34375,0.25 -0.75,0.4375 -1.21875,0.5625 -0.46875,0.132812 -0.960937,0.203125 -1.46875,0.203125 -0.65625,0 -1.214844,-0.1054688 -1.671875,-0.3125 C 2.320312,-0.316406 1.945312,-0.617188 1.65625,-1.015625 1.375,-1.410156 1.164062,-1.882812 1.03125,-2.4375 c -0.125,-0.550781 -0.1875,-1.160156 -0.1875,-1.828125 0,-1.445313 0.316406,-2.554687 0.953125,-3.328125 0.632813,-0.769531 1.550781,-1.15625 2.75,-1.15625 0.539063,0 1,0.046875 1.375,0.140625 C 6.304688,-8.523438 6.65625,-8.40625 6.96875,-8.25 l -0.390625,1.171875 c -0.261719,-0.144531 -0.554687,-0.257813 -0.875,-0.34375 -0.324219,-0.082031 -0.667969,-0.125 -1.03125,-0.125 -1.617187,0 -2.421875,1.09375 -2.421875,3.28125 0,0.429687 0.039062,0.839844 0.125,1.234375 0.09375,0.398438 0.238281,0.746094 0.4375,1.046875 0.195312,0.304687 0.457031,0.546875 0.78125,0.734375 0.320312,0.179688 0.722656,0.265625 1.203125,0.265625 0.40625,0 0.769531,-0.0625 1.09375,-0.1875 0.332031,-0.125 0.597656,-0.269531 0.796875,-0.4375 z m 0,0"
           id="path262" />
      </g>
    </g>
  </g>
  <g
     fill="#000000"
     fill-opacity="1"
     id="g276"
     transform="translate(80.194415,1.7460951)">
    <g
       transform="translate(177.01541,159.17567)"
       id="g274">
      <g
         id="g272">
        <path
           d="m 6.796875,0 v -4.875 c 0,-0.4375 -0.027344,-0.820312 -0.078125,-1.15625 C 6.664062,-6.375 6.570312,-6.65625 6.4375,-6.875 6.300781,-7.09375 6.113281,-7.257812 5.875,-7.375 5.644531,-7.488281 5.34375,-7.546875 4.96875,-7.546875 c -0.53125,0 -1.015625,0.179687 -1.453125,0.53125 C 3.085938,-6.671875 2.8125,-6.226562 2.6875,-5.6875 V 0 h -1.375 v -11.953125 h 1.375 v 4.375 H 2.75 C 3.039062,-7.929688 3.394531,-8.210938 3.8125,-8.421875 4.226562,-8.640625 4.742188,-8.75 5.359375,-8.75 c 0.476563,0 0.894531,0.058594 1.25,0.171875 C 6.960938,-8.472656 7.253906,-8.28125 7.484375,-8 7.722656,-7.726562 7.894531,-7.363281 8,-6.90625 c 0.101562,0.460938 0.15625,1.042969 0.15625,1.75 V 0 Z m 0,0"
           id="path270" />
      </g>
    </g>
  </g>
  <g
     fill="#000000"
     fill-opacity="1"
     id="g284"
     transform="translate(80.194415,1.7460951)">
    <g
       transform="translate(185.74477,159.17567)"
       id="g282">
      <g
         id="g280">
        <path
           d="m 6.796875,0 v -4.875 c 0,-0.4375 -0.027344,-0.820312 -0.078125,-1.15625 C 6.664062,-6.375 6.570312,-6.65625 6.4375,-6.875 6.300781,-7.09375 6.113281,-7.257812 5.875,-7.375 5.644531,-7.488281 5.34375,-7.546875 4.96875,-7.546875 c -0.53125,0 -1.015625,0.179687 -1.453125,0.53125 C 3.085938,-6.671875 2.8125,-6.226562 2.6875,-5.6875 V 0 h -1.375 v -11.953125 h 1.375 v 4.375 H 2.75 C 3.039062,-7.929688 3.394531,-8.210938 3.8125,-8.421875 4.226562,-8.640625 4.742188,-8.75 5.359375,-8.75 c 0.476563,0 0.894531,0.058594 1.25,0.171875 C 6.960938,-8.472656 7.253906,-8.28125 7.484375,-8 7.722656,-7.726562 7.894531,-7.363281 8,-6.90625 c 0.101562,0.460938 0.15625,1.042969 0.15625,1.75 V 0 Z m 0,0"
           id="path278" />
      </g>
    </g>
  </g>
  <g
     fill="#000000"
     fill-opacity="1"
     id="g292"
     transform="translate(80.194415,1.7460951)">
    <g
       transform="translate(194.47413,159.17567)"
       id="g290">
      <g
         id="g288">
        <path
           d="m 1.171875,-7.90625 c 0.4375,-0.257812 0.941406,-0.453125 1.515625,-0.578125 0.570312,-0.125 1.171875,-0.1875 1.796875,-0.1875 0.59375,0 1.066406,0.078125 1.421875,0.234375 0.363281,0.15625 0.640625,0.367188 0.828125,0.625 0.1875,0.261719 0.3125,0.546875 0.375,0.859375 0.0625,0.304687 0.09375,0.605469 0.09375,0.90625 0,0.6875 -0.015625,1.355469 -0.046875,2 C 7.125,-3.398438 7.109375,-2.785156 7.109375,-2.203125 7.109375,-1.785156 7.125,-1.382812 7.15625,-1 7.1875,-0.625 7.25,-0.28125 7.34375,0.03125 h -1 L 5.984375,-1.15625 H 5.890625 C 5.785156,-1 5.65625,-0.84375 5.5,-0.6875 c -0.148438,0.148438 -0.328125,0.28125 -0.546875,0.40625 -0.21875,0.117188 -0.46875,0.2148438 -0.75,0.296875 -0.28125,0.0820312 -0.605469,0.125 -0.96875,0.125 -0.367187,0 -0.710937,-0.0585938 -1.03125,-0.171875 -0.3125,-0.113281 -0.585937,-0.273438 -0.8125,-0.484375 -0.21875,-0.21875 -0.398437,-0.472656 -0.53125,-0.765625 -0.125,-0.289062 -0.1875,-0.625 -0.1875,-1 0,-0.507812 0.097656,-0.929688 0.296875,-1.265625 0.207031,-0.332031 0.492188,-0.597656 0.859375,-0.796875 0.375,-0.195312 0.816406,-0.335938 1.328125,-0.421875 0.519531,-0.09375 1.097656,-0.140625 1.734375,-0.140625 0.15625,0 0.304687,0 0.453125,0 0.15625,0 0.316406,0.011719 0.484375,0.03125 C 5.859375,-5.207031 5.875,-5.515625 5.875,-5.796875 c 0,-0.625 -0.125,-1.0625 -0.375,-1.3125 -0.25,-0.25 -0.703125,-0.375 -1.359375,-0.375 -0.199219,0 -0.414063,0.015625 -0.640625,0.046875 -0.21875,0.03125 -0.449219,0.074219 -0.6875,0.125 -0.230469,0.054688 -0.449219,0.117188 -0.65625,0.1875 -0.210938,0.074219 -0.390625,0.15625 -0.546875,0.25 z m 2.4375,6.84375 c 0.3125,0 0.59375,-0.039062 0.84375,-0.125 0.25,-0.082031 0.460937,-0.1875 0.640625,-0.3125 0.1875,-0.132812 0.335938,-0.28125 0.453125,-0.4375 0.125,-0.164062 0.21875,-0.320312 0.28125,-0.46875 v -1.421875 c -0.167969,-0.00781 -0.335937,-0.015625 -0.5,-0.015625 -0.15625,-0.00781 -0.320313,-0.015625 -0.484375,-0.015625 -0.34375,0 -0.6875,0.023437 -1.03125,0.0625 -0.335938,0.042969 -0.632812,0.117187 -0.890625,0.21875 -0.25,0.105469 -0.453125,0.25 -0.609375,0.4375 -0.15625,0.1875 -0.234375,0.429687 -0.234375,0.71875 0,0.398437 0.140625,0.726563 0.421875,0.984375 0.289062,0.25 0.660156,0.375 1.109375,0.375 z m 0,0"
           id="path286" />
      </g>
    </g>
  </g>
  <g
     fill="#000000"
     fill-opacity="1"
     id="g300"
     transform="translate(80.194415,1.7460951)">
    <g
       transform="translate(202.33226,159.17567)"
       id="g298">
      <g
         id="g296">
        <path
           d="m 2.828125,-2.09375 c 0,0.398438 0.066406,0.683594 0.203125,0.859375 0.144531,0.167969 0.34375,0.25 0.59375,0.25 0.144531,0 0.300781,-0.007813 0.46875,-0.03125 0.175781,-0.03125 0.367188,-0.082031 0.578125,-0.15625 l 0.15625,1.0625 c -0.179687,0.09375 -0.429687,0.1640625 -0.75,0.21875 -0.324219,0.0625 -0.605469,0.09375 -0.84375,0.09375 -0.523437,0 -0.949219,-0.1484375 -1.28125,-0.4375 C 1.628906,-0.523438 1.46875,-1.015625 1.46875,-1.703125 v -10.25 h 1.359375 z m 0,0"
           id="path294" />
      </g>
    </g>
  </g>
  <g
     fill="#000000"
     fill-opacity="1"
     id="g308"
     transform="translate(80.194415,1.7460951)">
    <g
       transform="translate(206.70547,159.17567)"
       id="g306">
      <g
         id="g304">
        <path
           d="m 0.1875,-8.546875 h 1.328125 v -1.6875 l 1.375,-0.390625 v 2.078125 h 2.3125 v 1.203125 h -2.3125 v 4.734375 c 0,0.59375 0.070313,1.015625 0.21875,1.265625 0.144531,0.242188 0.394531,0.359375 0.75,0.359375 0.289063,0 0.539063,-0.03125 0.75,-0.09375 0.207031,-0.0625 0.4375,-0.144531 0.6875,-0.25 l 0.3125,1.03125 C 5.296875,-0.140625 4.957031,-0.0195312 4.59375,0.0625 4.226562,0.15625 3.835938,0.203125 3.421875,0.203125 2.722656,0.203125 2.226562,0.0078125 1.9375,-0.375 1.65625,-0.769531 1.515625,-1.429688 1.515625,-2.359375 V -7.34375 H 0.1875 Z m 0,0"
           id="path302" />
      </g>
    </g>
  </g>
  <g
     fill="#000000"
     fill-opacity="1"
     id="g316"
     transform="translate(80.194415,1.7460951)">
    <g
       transform="translate(211.88157,159.17567)"
       id="g314">
      <g
         id="g312">
        <path
           d="M 1.609375,-8.546875 H 2.96875 V 0 H 1.609375 Z M 1.3125,-11.140625 c 0,-0.257813 0.085938,-0.484375 0.265625,-0.671875 C 1.753906,-12 1.976562,-12.09375 2.25,-12.09375 c 0.28125,0 0.515625,0.09375 0.703125,0.28125 0.195313,0.1875 0.296875,0.414062 0.296875,0.671875 0,0.273437 -0.101562,0.492187 -0.296875,0.65625 -0.1875,0.167969 -0.421875,0.25 -0.703125,0.25 -0.273438,0 -0.496094,-0.08203 -0.671875,-0.25 C 1.398438,-10.648438 1.3125,-10.867188 1.3125,-11.140625 Z m 0,0"
           id="path310" />
      </g>
    </g>
  </g>
  <g
     fill="#000000"
     fill-opacity="1"
     id="g324"
     transform="translate(80.194415,1.7460951)">
    <g
       transform="translate(215.84479,159.17567)"
       id="g322">
      <g
         id="g320">
        <path
           d="m 7.859375,0.390625 c 0,1.101563 -0.296875,1.914063 -0.890625,2.4375 C 6.382812,3.359375 5.519531,3.625 4.375,3.625 3.6875,3.625 3.132812,3.578125 2.71875,3.484375 2.300781,3.398438 1.945312,3.289062 1.65625,3.15625 L 2.015625,2 C 2.273438,2.101562 2.5625,2.195312 2.875,2.28125 3.195312,2.375 3.617188,2.421875 4.140625,2.421875 c 0.46875,0 0.851563,-0.042969 1.15625,-0.125 C 5.597656,2.210938 5.835938,2.070312 6.015625,1.875 6.203125,1.675781 6.328125,1.414062 6.390625,1.09375 6.460938,0.78125 6.5,0.410156 6.5,-0.015625 V -0.84375 H 6.4375 C 6.207031,-0.507812 5.914062,-0.253906 5.5625,-0.078125 5.207031,0.0976562 4.75,0.1875 4.1875,0.1875 c -1.15625,0 -2.007812,-0.359375 -2.546875,-1.078125 -0.53125,-0.71875 -0.796875,-1.832031 -0.796875,-3.34375 0,-1.457031 0.34375,-2.5625 1.03125,-3.3125 0.695312,-0.757813 1.722656,-1.140625 3.078125,-1.140625 0.644531,0 1.195313,0.054688 1.65625,0.15625 0.46875,0.09375 0.882813,0.210938 1.25,0.34375 z M 4.421875,-1 c 0.582031,0 1.035156,-0.144531 1.359375,-0.4375 0.332031,-0.289062 0.566406,-0.742188 0.703125,-1.359375 v -4.375 C 6.035156,-7.390625 5.457031,-7.5 4.75,-7.5 3.976562,-7.5 3.367188,-7.234375 2.921875,-6.703125 2.472656,-6.179688 2.25,-5.363281 2.25,-4.25 c 0,0.480469 0.039062,0.917969 0.125,1.3125 0.082031,0.398438 0.207031,0.742188 0.375,1.03125 0.164062,0.28125 0.382812,0.507812 0.65625,0.671875 C 3.6875,-1.078125 4.023438,-1 4.421875,-1 Z m 0,0"
           id="path318" />
      </g>
    </g>
  </g>
  <g
     fill="#000000"
     fill-opacity="1"
     id="g332"
     transform="translate(80.194415,1.7460951)">
    <g
       transform="translate(224.40332,159.17567)"
       id="g330">
      <g
         id="g328">
        <path
           d="M 3.46875,-3.84375 H 2.6875 V 0 h -1.375 v -11.953125 h 1.375 v 7.28125 l 0.6875,-0.25 2.65625,-3.625 H 7.609375 L 5,-5.109375 4.296875,-4.546875 5.15625,-3.859375 8.015625,0 H 6.3125 Z m 0,0"
           id="path326" />
      </g>
    </g>
  </g>
  <g
     fill="#000000"
     fill-opacity="1"
     id="g340"
     transform="translate(80.194415,1.7460951)">
    <g
       transform="translate(231.97104,159.17567)"
       id="g338">
      <g
         id="g336">
        <path
           d="M 7.546875,-0.6875 C 7.203125,-0.40625 6.769531,-0.1875 6.25,-0.03125 5.738281,0.125 5.191406,0.203125 4.609375,0.203125 c -0.648437,0 -1.210937,-0.1054688 -1.6875,-0.3125 -0.480469,-0.207031 -0.875,-0.507813 -1.1875,-0.90625 C 1.429688,-1.410156 1.207031,-1.878906 1.0625,-2.421875 0.914062,-2.972656 0.84375,-3.585938 0.84375,-4.265625 0.84375,-5.722656 1.164062,-6.832031 1.8125,-7.59375 2.457031,-8.363281 3.382812,-8.75 4.59375,-8.75 c 0.382812,0 0.769531,0.046875 1.15625,0.140625 0.394531,0.085937 0.742188,0.246094 1.046875,0.484375 0.3125,0.242188 0.5625,0.578125 0.75,1.015625 0.195313,0.4375 0.296875,1.015625 0.296875,1.734375 0,0.375 -0.039062,0.789062 -0.109375,1.234375 H 2.25 c 0,0.511719 0.050781,0.960937 0.15625,1.34375 0.101562,0.386719 0.257812,0.714844 0.46875,0.984375 0.21875,0.261719 0.5,0.464844 0.84375,0.609375 C 4.070312,-1.054688 4.5,-0.984375 5,-0.984375 c 0.382812,0 0.769531,-0.066406 1.15625,-0.203125 0.394531,-0.144531 0.6875,-0.304688 0.875,-0.484375 z m -2.9375,-6.859375 c -0.667969,0 -1.203125,0.179687 -1.609375,0.53125 -0.40625,0.355469 -0.652344,0.960937 -0.734375,1.8125 H 6.5 c 0,-0.863281 -0.167969,-1.46875 -0.5,-1.8125 -0.324219,-0.351563 -0.789062,-0.53125 -1.390625,-0.53125 z m 0,0"
           id="path334" />
      </g>
    </g>
  </g>
  <g
     fill="#000000"
     fill-opacity="1"
     id="g348"
     transform="translate(80.194415,1.7460951)">
    <g
       transform="translate(240.03417,159.17567)"
       id="g346">
      <g
         id="g344">
        <path
           d="M 1.609375,-8.546875 H 2.96875 V 0 H 1.609375 Z M 1.3125,-11.140625 c 0,-0.257813 0.085938,-0.484375 0.265625,-0.671875 C 1.753906,-12 1.976562,-12.09375 2.25,-12.09375 c 0.28125,0 0.515625,0.09375 0.703125,0.28125 0.195313,0.1875 0.296875,0.414062 0.296875,0.671875 0,0.273437 -0.101562,0.492187 -0.296875,0.65625 -0.1875,0.167969 -0.421875,0.25 -0.703125,0.25 -0.273438,0 -0.496094,-0.08203 -0.671875,-0.25 C 1.398438,-10.648438 1.3125,-10.867188 1.3125,-11.140625 Z m 0,0"
           id="path342" />
      </g>
    </g>
  </g>
  <g
     fill="#000000"
     fill-opacity="1"
     id="g356"
     transform="translate(80.194415,1.7460951)">
    <g
       transform="translate(243.99739,159.17567)"
       id="g354">
      <g
         id="g352">
        <path
           d="m 0.1875,-8.546875 h 1.328125 v -1.6875 l 1.375,-0.390625 v 2.078125 h 2.3125 v 1.203125 h -2.3125 v 4.734375 c 0,0.59375 0.070313,1.015625 0.21875,1.265625 0.144531,0.242188 0.394531,0.359375 0.75,0.359375 0.289063,0 0.539063,-0.03125 0.75,-0.09375 0.207031,-0.0625 0.4375,-0.144531 0.6875,-0.25 l 0.3125,1.03125 C 5.296875,-0.140625 4.957031,-0.0195312 4.59375,0.0625 4.226562,0.15625 3.835938,0.203125 3.421875,0.203125 2.722656,0.203125 2.226562,0.0078125 1.9375,-0.375 1.65625,-0.769531 1.515625,-1.429688 1.515625,-2.359375 V -7.34375 H 0.1875 Z m 0,0"
           id="path350" />
      </g>
    </g>
  </g>
  <g
     fill="#000000"
     fill-opacity="1"
     id="g370"
     transform="translate(80.194415,1.7460951)">
    <g
       transform="translate(253.11963,159.17567)"
       id="g368">
      <g
         id="g366">
        <path
           d="M 2.015625,-3.1875 C 2.015625,-3.644531 2.09375,-4.082031 2.25,-4.5 2.414062,-4.914062 2.632812,-5.300781 2.90625,-5.65625 3.175781,-6.007812 3.484375,-6.332031 3.828125,-6.625 4.179688,-6.925781 4.546875,-7.1875 4.921875,-7.40625 4.648438,-7.820312 4.410156,-8.234375 4.203125,-8.640625 4.003906,-9.046875 3.90625,-9.488281 3.90625,-9.96875 c 0,-0.28125 0.046875,-0.550781 0.140625,-0.8125 0.09375,-0.257812 0.238281,-0.488281 0.4375,-0.6875 0.195313,-0.207031 0.453125,-0.375 0.765625,-0.5 0.3125,-0.125 0.691406,-0.1875 1.140625,-0.1875 0.46875,0 0.859375,0.0625 1.171875,0.1875 0.320312,0.117188 0.578125,0.273438 0.765625,0.46875 0.195313,0.1875 0.335937,0.402344 0.421875,0.640625 0.082031,0.242187 0.125,0.484375 0.125,0.734375 0,0.480469 -0.1875,0.976562 -0.5625,1.484375 -0.367188,0.5 -0.945312,0.984375 -1.734375,1.453125 0.175781,0.335938 0.382813,0.671875 0.625,1.015625 0.25,0.34375 0.507813,0.6875 0.78125,1.03125 0.28125,0.34375 0.5625,0.683594 0.84375,1.015625 0.28125,0.335938 0.566406,0.648438 0.859375,0.9375 0.125,-0.144531 0.25,-0.320312 0.375,-0.53125 0.125,-0.207031 0.242188,-0.425781 0.359375,-0.65625 0.125,-0.238281 0.234375,-0.484375 0.328125,-0.734375 0.09375,-0.25 0.179688,-0.488281 0.265625,-0.71875 l 1.0625,0.5 c -0.07422,0.199219 -0.171875,0.433594 -0.296875,0.703125 -0.125,0.261719 -0.265625,0.53125 -0.421875,0.8125 -0.148437,0.273438 -0.304687,0.539062 -0.46875,0.796875 -0.15625,0.261719 -0.304687,0.476563 -0.4375,0.640625 0.238281,0.230469 0.453125,0.429688 0.640625,0.59375 0.195312,0.167969 0.378906,0.3125 0.546875,0.4375 0.164063,0.117188 0.320313,0.21875 0.46875,0.3125 0.15625,0.09375 0.316406,0.1875 0.484375,0.28125 l -0.859375,0.953125 c -0.605469,-0.2890625 -1.292969,-0.820313 -2.0625,-1.59375 -0.210937,0.210937 -0.4375,0.40625 -0.6875,0.59375 C 8.742188,-0.609375 8.46875,-0.4375 8.15625,-0.28125 7.851562,-0.132812 7.515625,-0.0195312 7.140625,0.0625 6.773438,0.15625 6.367188,0.203125 5.921875,0.203125 5.390625,0.203125 4.882812,0.128906 4.40625,-0.015625 3.9375,-0.160156 3.523438,-0.378906 3.171875,-0.671875 2.816406,-0.960938 2.535156,-1.316406 2.328125,-1.734375 2.117188,-2.160156 2.015625,-2.644531 2.015625,-3.1875 Z m 6.84375,0.953125 C 8.535156,-2.566406 8.210938,-2.925781 7.890625,-3.3125 7.566406,-3.695312 7.257812,-4.082031 6.96875,-4.46875 6.6875,-4.863281 6.421875,-5.238281 6.171875,-5.59375 5.929688,-5.945312 5.722656,-6.265625 5.546875,-6.546875 5.242188,-6.316406 4.957031,-6.082031 4.6875,-5.84375 4.425781,-5.601562 4.195312,-5.347656 4,-5.078125 c -0.199219,0.273437 -0.355469,0.5625 -0.46875,0.875 -0.105469,0.304687 -0.15625,0.625 -0.15625,0.96875 0,0.355469 0.070312,0.671875 0.21875,0.953125 C 3.75,-2 3.953125,-1.765625 4.203125,-1.578125 c 0.257813,0.1875 0.550781,0.335937 0.875,0.4375 0.332031,0.105469 0.679687,0.15625 1.046875,0.15625 0.289062,0 0.566406,-0.035156 0.828125,-0.109375 C 7.222656,-1.175781 7.476562,-1.269531 7.71875,-1.375 7.957031,-1.488281 8.175781,-1.617188 8.375,-1.765625 c 0.195312,-0.15625 0.359375,-0.3125 0.484375,-0.46875 z M 5.25,-9.96875 c 0,0.335938 0.066406,0.671875 0.203125,1.015625 0.144531,0.335937 0.332031,0.667969 0.5625,1 0.601563,-0.394531 1.019531,-0.75 1.25,-1.0625 0.226563,-0.320313 0.34375,-0.601563 0.34375,-0.84375 0,-0.363281 -0.089844,-0.65625 -0.265625,-0.875 -0.167969,-0.226563 -0.46875,-0.34375 -0.90625,-0.34375 -0.40625,0 -0.710938,0.105469 -0.90625,0.3125 C 5.34375,-10.566406 5.25,-10.300781 5.25,-9.96875 Z m 0,0"
           id="path364" />
      </g>
    </g>
  </g>
  <g
     fill="#000000"
     fill-opacity="1"
     id="g378"
     transform="translate(80.194415,1.7460951)">
    <g
       transform="translate(151.18607,176.21242)"
       id="g376">
      <g
         id="g374">
        <path
           d="m 1.453125,-11.953125 c 0.21875,-0.03125 0.457031,-0.05469 0.71875,-0.07813 0.269531,-0.01953 0.550781,-0.03125 0.84375,-0.03125 0.289063,-0.0078 0.570313,-0.01563 0.84375,-0.01563 0.28125,-0.0078 0.539063,-0.01563 0.78125,-0.01563 0.957031,0 1.785156,0.152344 2.484375,0.453125 0.707031,0.292969 1.285156,0.703125 1.734375,1.234375 C 9.316406,-9.875 9.65625,-9.238281 9.875,-8.5 c 0.226562,0.742188 0.34375,1.554688 0.34375,2.4375 0,0.8125 -0.109375,1.59375 -0.328125,2.34375 -0.210937,0.742188 -0.542969,1.398438 -1,1.96875 C 8.441406,-1.175781 7.851562,-0.710938 7.125,-0.359375 6.394531,-0.015625 5.507812,0.15625 4.46875,0.15625 c -0.179688,0 -0.414062,-0.007812 -0.703125,-0.015625 -0.292969,0 -0.59375,-0.011719 -0.90625,-0.03125 C 2.554688,0.0859375 2.273438,0.0703125 2.015625,0.0625 1.753906,0.0507812 1.566406,0.0351562 1.453125,0.015625 Z m 3.21875,1.125 c -0.148437,0 -0.308594,0 -0.484375,0 -0.179688,0 -0.351562,0.0078 -0.515625,0.01563 -0.167969,0.01172 -0.324219,0.02344 -0.46875,0.03125 -0.148437,0.01172 -0.257813,0.02734 -0.328125,0.04687 v 9.5625 c 0.050781,0.011719 0.15625,0.023437 0.3125,0.03125 0.164062,0 0.332031,0.00781 0.5,0.015625 0.164062,0 0.328125,0.00781 0.484375,0.015625 0.164063,0 0.28125,0 0.34375,0 0.789063,0 1.457031,-0.132813 2,-0.40625 C 7.054688,-1.796875 7.488281,-2.164062 7.8125,-2.625 8.132812,-3.082031 8.363281,-3.609375 8.5,-4.203125 8.632812,-4.804688 8.703125,-5.425781 8.703125,-6.0625 c 0,-0.5625 -0.0625,-1.125 -0.1875,-1.6875 -0.125,-0.5625 -0.34375,-1.066406 -0.65625,-1.515625 -0.304687,-0.457031 -0.714844,-0.832031 -1.234375,-1.125 -0.511719,-0.289063 -1.164062,-0.4375 -1.953125,-0.4375 z m 0,0"
           id="path372" />
      </g>
    </g>
  </g>
  <g
     fill="#000000"
     fill-opacity="1"
     id="g386"
     transform="translate(80.194415,1.7460951)">
    <g
       transform="translate(161.74331,176.21242)"
       id="g384">
      <g
         id="g382">
        <path
           d="M 1.609375,-8.546875 H 2.96875 V 0 H 1.609375 Z M 1.3125,-11.140625 c 0,-0.257813 0.085938,-0.484375 0.265625,-0.671875 C 1.753906,-12 1.976562,-12.09375 2.25,-12.09375 c 0.28125,0 0.515625,0.09375 0.703125,0.28125 0.195313,0.1875 0.296875,0.414062 0.296875,0.671875 0,0.273437 -0.101562,0.492187 -0.296875,0.65625 -0.1875,0.167969 -0.421875,0.25 -0.703125,0.25 -0.273438,0 -0.496094,-0.08203 -0.671875,-0.25 C 1.398438,-10.648438 1.3125,-10.867188 1.3125,-11.140625 Z m 0,0"
           id="path380" />
      </g>
    </g>
  </g>
  <g
     fill="#000000"
     fill-opacity="1"
     id="g394"
     transform="translate(80.194415,1.7460951)">
    <g
       transform="translate(165.70652,176.21242)"
       id="g392">
      <g
         id="g390">
        <path
           d="m 7.859375,0.390625 c 0,1.101563 -0.296875,1.914063 -0.890625,2.4375 C 6.382812,3.359375 5.519531,3.625 4.375,3.625 3.6875,3.625 3.132812,3.578125 2.71875,3.484375 2.300781,3.398438 1.945312,3.289062 1.65625,3.15625 L 2.015625,2 C 2.273438,2.101562 2.5625,2.195312 2.875,2.28125 3.195312,2.375 3.617188,2.421875 4.140625,2.421875 c 0.46875,0 0.851563,-0.042969 1.15625,-0.125 C 5.597656,2.210938 5.835938,2.070312 6.015625,1.875 6.203125,1.675781 6.328125,1.414062 6.390625,1.09375 6.460938,0.78125 6.5,0.410156 6.5,-0.015625 V -0.84375 H 6.4375 C 6.207031,-0.507812 5.914062,-0.253906 5.5625,-0.078125 5.207031,0.0976562 4.75,0.1875 4.1875,0.1875 c -1.15625,0 -2.007812,-0.359375 -2.546875,-1.078125 -0.53125,-0.71875 -0.796875,-1.832031 -0.796875,-3.34375 0,-1.457031 0.34375,-2.5625 1.03125,-3.3125 0.695312,-0.757813 1.722656,-1.140625 3.078125,-1.140625 0.644531,0 1.195313,0.054688 1.65625,0.15625 0.46875,0.09375 0.882813,0.210938 1.25,0.34375 z M 4.421875,-1 c 0.582031,0 1.035156,-0.144531 1.359375,-0.4375 0.332031,-0.289062 0.566406,-0.742188 0.703125,-1.359375 v -4.375 C 6.035156,-7.390625 5.457031,-7.5 4.75,-7.5 3.976562,-7.5 3.367188,-7.234375 2.921875,-6.703125 2.472656,-6.179688 2.25,-5.363281 2.25,-4.25 c 0,0.480469 0.039062,0.917969 0.125,1.3125 0.082031,0.398438 0.207031,0.742188 0.375,1.03125 0.164062,0.28125 0.382812,0.507812 0.65625,0.671875 C 3.6875,-1.078125 4.023438,-1 4.421875,-1 Z m 0,0"
           id="path388" />
      </g>
    </g>
  </g>
  <g
     fill="#000000"
     fill-opacity="1"
     id="g402"
     transform="translate(80.194415,1.7460951)">
    <g
       transform="translate(174.26505,176.21242)"
       id="g400">
      <g
         id="g398">
        <path
           d="M 1.609375,-8.546875 H 2.96875 V 0 H 1.609375 Z M 1.3125,-11.140625 c 0,-0.257813 0.085938,-0.484375 0.265625,-0.671875 C 1.753906,-12 1.976562,-12.09375 2.25,-12.09375 c 0.28125,0 0.515625,0.09375 0.703125,0.28125 0.195313,0.1875 0.296875,0.414062 0.296875,0.671875 0,0.273437 -0.101562,0.492187 -0.296875,0.65625 -0.1875,0.167969 -0.421875,0.25 -0.703125,0.25 -0.273438,0 -0.496094,-0.08203 -0.671875,-0.25 C 1.398438,-10.648438 1.3125,-10.867188 1.3125,-11.140625 Z m 0,0"
           id="path396" />
      </g>
    </g>
  </g>
  <g
     fill="#000000"
     fill-opacity="1"
     id="g410"
     transform="translate(80.194415,1.7460951)">
    <g
       transform="translate(178.22827,176.21242)"
       id="g408">
      <g
         id="g406">
        <path
           d="m 0.1875,-8.546875 h 1.328125 v -1.6875 l 1.375,-0.390625 v 2.078125 h 2.3125 v 1.203125 h -2.3125 v 4.734375 c 0,0.59375 0.070313,1.015625 0.21875,1.265625 0.144531,0.242188 0.394531,0.359375 0.75,0.359375 0.289063,0 0.539063,-0.03125 0.75,-0.09375 0.207031,-0.0625 0.4375,-0.144531 0.6875,-0.25 l 0.3125,1.03125 C 5.296875,-0.140625 4.957031,-0.0195312 4.59375,0.0625 4.226562,0.15625 3.835938,0.203125 3.421875,0.203125 2.722656,0.203125 2.226562,0.0078125 1.9375,-0.375 1.65625,-0.769531 1.515625,-1.429688 1.515625,-2.359375 V -7.34375 H 0.1875 Z m 0,0"
           id="path404" />
      </g>
    </g>
  </g>
  <g
     fill="#000000"
     fill-opacity="1"
     id="g418"
     transform="translate(80.194415,1.7460951)">
    <g
       transform="translate(183.40438,176.21242)"
       id="g416">
      <g
         id="g414">
        <path
           d="m 1.171875,-7.90625 c 0.4375,-0.257812 0.941406,-0.453125 1.515625,-0.578125 0.570312,-0.125 1.171875,-0.1875 1.796875,-0.1875 0.59375,0 1.066406,0.078125 1.421875,0.234375 0.363281,0.15625 0.640625,0.367188 0.828125,0.625 0.1875,0.261719 0.3125,0.546875 0.375,0.859375 0.0625,0.304687 0.09375,0.605469 0.09375,0.90625 0,0.6875 -0.015625,1.355469 -0.046875,2 C 7.125,-3.398438 7.109375,-2.785156 7.109375,-2.203125 7.109375,-1.785156 7.125,-1.382812 7.15625,-1 7.1875,-0.625 7.25,-0.28125 7.34375,0.03125 h -1 L 5.984375,-1.15625 H 5.890625 C 5.785156,-1 5.65625,-0.84375 5.5,-0.6875 c -0.148438,0.148438 -0.328125,0.28125 -0.546875,0.40625 -0.21875,0.117188 -0.46875,0.2148438 -0.75,0.296875 -0.28125,0.0820312 -0.605469,0.125 -0.96875,0.125 -0.367187,0 -0.710937,-0.0585938 -1.03125,-0.171875 -0.3125,-0.113281 -0.585937,-0.273438 -0.8125,-0.484375 -0.21875,-0.21875 -0.398437,-0.472656 -0.53125,-0.765625 -0.125,-0.289062 -0.1875,-0.625 -0.1875,-1 0,-0.507812 0.097656,-0.929688 0.296875,-1.265625 0.207031,-0.332031 0.492188,-0.597656 0.859375,-0.796875 0.375,-0.195312 0.816406,-0.335938 1.328125,-0.421875 0.519531,-0.09375 1.097656,-0.140625 1.734375,-0.140625 0.15625,0 0.304687,0 0.453125,0 0.15625,0 0.316406,0.011719 0.484375,0.03125 C 5.859375,-5.207031 5.875,-5.515625 5.875,-5.796875 c 0,-0.625 -0.125,-1.0625 -0.375,-1.3125 -0.25,-0.25 -0.703125,-0.375 -1.359375,-0.375 -0.199219,0 -0.414063,0.015625 -0.640625,0.046875 -0.21875,0.03125 -0.449219,0.074219 -0.6875,0.125 -0.230469,0.054688 -0.449219,0.117188 -0.65625,0.1875 -0.210938,0.074219 -0.390625,0.15625 -0.546875,0.25 z m 2.4375,6.84375 c 0.3125,0 0.59375,-0.039062 0.84375,-0.125 0.25,-0.082031 0.460937,-0.1875 0.640625,-0.3125 0.1875,-0.132812 0.335938,-0.28125 0.453125,-0.4375 0.125,-0.164062 0.21875,-0.320312 0.28125,-0.46875 v -1.421875 c -0.167969,-0.00781 -0.335937,-0.015625 -0.5,-0.015625 -0.15625,-0.00781 -0.320313,-0.015625 -0.484375,-0.015625 -0.34375,0 -0.6875,0.023437 -1.03125,0.0625 -0.335938,0.042969 -0.632812,0.117187 -0.890625,0.21875 -0.25,0.105469 -0.453125,0.25 -0.609375,0.4375 -0.15625,0.1875 -0.234375,0.429687 -0.234375,0.71875 0,0.398437 0.140625,0.726563 0.421875,0.984375 0.289062,0.25 0.660156,0.375 1.109375,0.375 z m 0,0"
           id="path412" />
      </g>
    </g>
  </g>
  <g
     fill="#000000"
     fill-opacity="1"
     id="g426"
     transform="translate(80.194415,1.7460951)">
    <g
       transform="translate(191.26251,176.21242)"
       id="g424">
      <g
         id="g422">
        <path
           d="m 2.828125,-2.09375 c 0,0.398438 0.066406,0.683594 0.203125,0.859375 0.144531,0.167969 0.34375,0.25 0.59375,0.25 0.144531,0 0.300781,-0.007813 0.46875,-0.03125 0.175781,-0.03125 0.367188,-0.082031 0.578125,-0.15625 l 0.15625,1.0625 c -0.179687,0.09375 -0.429687,0.1640625 -0.75,0.21875 -0.324219,0.0625 -0.605469,0.09375 -0.84375,0.09375 -0.523437,0 -0.949219,-0.1484375 -1.28125,-0.4375 C 1.628906,-0.523438 1.46875,-1.015625 1.46875,-1.703125 v -10.25 h 1.359375 z m 0,0"
           id="path420" />
      </g>
    </g>
  </g>
  <g
     fill="#000000"
     fill-opacity="1"
     id="g434"
     transform="translate(80.194415,1.7460951)">
    <g
       transform="translate(195.63572,176.21242)"
       id="g432">
      <g
         id="g430">
        <path
           d="M 1.609375,-8.546875 H 2.96875 V 0 H 1.609375 Z M 1.3125,-11.140625 c 0,-0.257813 0.085938,-0.484375 0.265625,-0.671875 C 1.753906,-12 1.976562,-12.09375 2.25,-12.09375 c 0.28125,0 0.515625,0.09375 0.703125,0.28125 0.195313,0.1875 0.296875,0.414062 0.296875,0.671875 0,0.273437 -0.101562,0.492187 -0.296875,0.65625 -0.1875,0.167969 -0.421875,0.25 -0.703125,0.25 -0.273438,0 -0.496094,-0.08203 -0.671875,-0.25 C 1.398438,-10.648438 1.3125,-10.867188 1.3125,-11.140625 Z m 0,0"
           id="path428" />
      </g>
    </g>
  </g>
  <g
     fill="#000000"
     fill-opacity="1"
     id="g442"
     transform="translate(80.194415,1.7460951)">
    <g
       transform="translate(199.59894,176.21242)"
       id="g440">
      <g
         id="g438">
        <path
           d="m 5.078125,-2.328125 c 0,-0.332031 -0.105469,-0.597656 -0.3125,-0.796875 C 4.554688,-3.320312 4.300781,-3.484375 4,-3.609375 c -0.304688,-0.132813 -0.636719,-0.257813 -1,-0.375 -0.355469,-0.125 -0.683594,-0.28125 -0.984375,-0.46875 -0.292969,-0.1875 -0.542969,-0.425781 -0.75,-0.71875 C 1.054688,-5.472656 0.953125,-5.875 0.953125,-6.375 0.953125,-7.1875 1.1875,-7.785156 1.65625,-8.171875 2.125,-8.554688 2.773438,-8.75 3.609375,-8.75 c 0.613281,0 1.125,0.058594 1.53125,0.171875 0.414063,0.105469 0.78125,0.230469 1.09375,0.375 l -0.328125,1.125 C 5.644531,-7.203125 5.328125,-7.3125 4.953125,-7.40625 4.585938,-7.5 4.195312,-7.546875 3.78125,-7.546875 c -0.511719,0 -0.882812,0.089844 -1.109375,0.265625 -0.230469,0.167969 -0.34375,0.460938 -0.34375,0.875 0,0.304688 0.097656,0.539062 0.296875,0.703125 0.207031,0.15625 0.460938,0.304687 0.765625,0.4375 0.300781,0.125 0.628906,0.25 0.984375,0.375 0.363281,0.125 0.695312,0.292969 1,0.5 0.300781,0.210937 0.550781,0.46875 0.75,0.78125 0.207031,0.3125 0.3125,0.726563 0.3125,1.234375 0,0.367188 -0.0625,0.710938 -0.1875,1.03125 -0.117188,0.3125 -0.296875,0.585938 -0.546875,0.8125 C 5.453125,-0.300781 5.140625,-0.125 4.765625,0 4.398438,0.132812 3.96875,0.203125 3.46875,0.203125 c -0.648438,0 -1.199219,-0.0625 -1.65625,-0.1875 -0.460938,-0.125 -0.839844,-0.269531 -1.140625,-0.4375 l 0.40625,-1.171875 c 0.257813,0.15625 0.597656,0.296875 1.015625,0.421875 0.425781,0.125 0.851562,0.1875 1.28125,0.1875 0.488281,0 0.894531,-0.097656 1.21875,-0.296875 0.320312,-0.195312 0.484375,-0.546875 0.484375,-1.046875 z m 0,0"
           id="path436" />
      </g>
    </g>
  </g>
  <g
     fill="#000000"
     fill-opacity="1"
     id="g450"
     transform="translate(80.194415,1.7460951)">
    <g
       transform="translate(206.17585,176.21242)"
       id="g448">
      <g
         id="g446">
        <path
           d="M 1.609375,-8.546875 H 2.96875 V 0 H 1.609375 Z M 1.3125,-11.140625 c 0,-0.257813 0.085938,-0.484375 0.265625,-0.671875 C 1.753906,-12 1.976562,-12.09375 2.25,-12.09375 c 0.28125,0 0.515625,0.09375 0.703125,0.28125 0.195313,0.1875 0.296875,0.414062 0.296875,0.671875 0,0.273437 -0.101562,0.492187 -0.296875,0.65625 -0.1875,0.167969 -0.421875,0.25 -0.703125,0.25 -0.273438,0 -0.496094,-0.08203 -0.671875,-0.25 C 1.398438,-10.648438 1.3125,-10.867188 1.3125,-11.140625 Z m 0,0"
           id="path444" />
      </g>
    </g>
  </g>
  <g
     fill="#000000"
     fill-opacity="1"
     id="g458"
     transform="translate(80.194415,1.7460951)">
    <g
       transform="translate(210.13907,176.21242)"
       id="g456">
      <g
         id="g454">
        <path
           d="M 7.546875,-0.6875 C 7.203125,-0.40625 6.769531,-0.1875 6.25,-0.03125 5.738281,0.125 5.191406,0.203125 4.609375,0.203125 c -0.648437,0 -1.210937,-0.1054688 -1.6875,-0.3125 -0.480469,-0.207031 -0.875,-0.507813 -1.1875,-0.90625 C 1.429688,-1.410156 1.207031,-1.878906 1.0625,-2.421875 0.914062,-2.972656 0.84375,-3.585938 0.84375,-4.265625 0.84375,-5.722656 1.164062,-6.832031 1.8125,-7.59375 2.457031,-8.363281 3.382812,-8.75 4.59375,-8.75 c 0.382812,0 0.769531,0.046875 1.15625,0.140625 0.394531,0.085937 0.742188,0.246094 1.046875,0.484375 0.3125,0.242188 0.5625,0.578125 0.75,1.015625 0.195313,0.4375 0.296875,1.015625 0.296875,1.734375 0,0.375 -0.039062,0.789062 -0.109375,1.234375 H 2.25 c 0,0.511719 0.050781,0.960937 0.15625,1.34375 0.101562,0.386719 0.257812,0.714844 0.46875,0.984375 0.21875,0.261719 0.5,0.464844 0.84375,0.609375 C 4.070312,-1.054688 4.5,-0.984375 5,-0.984375 c 0.382812,0 0.769531,-0.066406 1.15625,-0.203125 0.394531,-0.144531 0.6875,-0.304688 0.875,-0.484375 z m -2.9375,-6.859375 c -0.667969,0 -1.203125,0.179687 -1.609375,0.53125 -0.40625,0.355469 -0.652344,0.960937 -0.734375,1.8125 H 6.5 c 0,-0.863281 -0.167969,-1.46875 -0.5,-1.8125 -0.324219,-0.351563 -0.789062,-0.53125 -1.390625,-0.53125 z m 0,0"
           id="path452" />
      </g>
    </g>
  </g>
  <g
     fill="#000000"
     fill-opacity="1"
     id="g466"
     transform="translate(80.194415,1.7460951)">
    <g
       transform="translate(218.20219,176.21242)"
       id="g464">
      <g
         id="g462">
        <path
           d="M 5.34375,-7.21875 C 5,-7.332031 4.675781,-7.390625 4.375,-7.390625 c -0.492188,0 -0.882812,0.136719 -1.171875,0.40625 -0.28125,0.261719 -0.453125,0.59375 -0.515625,1 V 0 H 1.3125 V -8.546875 H 2.265625 L 2.53125,-7.5 h 0.0625 C 2.8125,-7.882812 3.070312,-8.179688 3.375,-8.390625 c 0.300781,-0.207031 0.6875,-0.3125 1.15625,-0.3125 0.320312,0 0.691406,0.054687 1.109375,0.15625 z m 0,0"
           id="path460" />
      </g>
    </g>
  </g>
  <g
     fill="#000000"
     fill-opacity="1"
     id="g474"
     transform="translate(80.194415,1.7460951)">
    <g
       transform="translate(223.39538,176.21242)"
       id="g472">
      <g
         id="g470">
        <path
           d="m 2.546875,-8.546875 v 4.875 c 0,0.449219 0.023437,0.839844 0.078125,1.171875 0.050781,0.335938 0.140625,0.617188 0.265625,0.84375 0.125,0.21875 0.289063,0.386719 0.5,0.5 0.21875,0.117188 0.492187,0.171875 0.828125,0.171875 0.300781,0 0.570312,-0.046875 0.8125,-0.140625 0.238281,-0.101562 0.453125,-0.238281 0.640625,-0.40625 0.1875,-0.175781 0.351563,-0.375 0.5,-0.59375 C 6.316406,-2.34375 6.4375,-2.578125 6.53125,-2.828125 v -5.71875 h 1.359375 v 6.125 c 0,0.40625 0.00781,0.828125 0.03125,1.265625 0.03125,0.4375 0.082031,0.824219 0.15625,1.15625 h -0.9375 L 6.796875,-1.34375 H 6.71875 c -0.273438,0.4375 -0.632812,0.808594 -1.078125,1.109375 -0.4375,0.2890625 -0.996094,0.4375 -1.671875,0.4375 C 3.507812,0.203125 3.101562,0.144531 2.75,0.03125 2.40625,-0.0703125 2.113281,-0.257812 1.875,-0.53125 1.644531,-0.800781 1.46875,-1.164062 1.34375,-1.625 1.226562,-2.09375 1.171875,-2.675781 1.171875,-3.375 v -5.171875 z m 0,0"
           id="path468" />
      </g>
    </g>
  </g>
  <g
     fill="#000000"
     fill-opacity="1"
     id="g482"
     transform="translate(80.194415,1.7460951)">
    <g
       transform="translate(231.98807,176.21242)"
       id="g480">
      <g
         id="g478">
        <path
           d="m 6.796875,0 v -4.875 c 0,-0.882812 -0.132813,-1.550781 -0.390625,-2 C 6.15625,-7.320312 5.6875,-7.546875 5,-7.546875 c -0.605469,0 -1.105469,0.164063 -1.5,0.484375 -0.386719,0.324219 -0.65625,0.730469 -0.8125,1.21875 V 0 H 1.3125 V -8.546875 H 2.265625 L 2.53125,-7.5 h 0.0625 C 2.863281,-7.863281 3.226562,-8.160156 3.6875,-8.390625 4.15625,-8.628906 4.707031,-8.75 5.34375,-8.75 c 0.46875,0 0.878906,0.058594 1.234375,0.171875 0.351563,0.105469 0.644531,0.296875 0.875,0.578125 0.238281,0.273438 0.414063,0.636719 0.53125,1.09375 0.113281,0.460938 0.171875,1.042969 0.171875,1.75 V 0 Z m 0,0"
           id="path476" />
      </g>
    </g>
  </g>
  <g
     fill="#000000"
     fill-opacity="1"
     id="g490"
     transform="translate(80.194415,1.7460951)">
    <g
       transform="translate(240.71743,176.21242)"
       id="g488">
      <g
         id="g486">
        <path
           d="m 7.859375,0.390625 c 0,1.101563 -0.296875,1.914063 -0.890625,2.4375 C 6.382812,3.359375 5.519531,3.625 4.375,3.625 3.6875,3.625 3.132812,3.578125 2.71875,3.484375 2.300781,3.398438 1.945312,3.289062 1.65625,3.15625 L 2.015625,2 C 2.273438,2.101562 2.5625,2.195312 2.875,2.28125 3.195312,2.375 3.617188,2.421875 4.140625,2.421875 c 0.46875,0 0.851563,-0.042969 1.15625,-0.125 C 5.597656,2.210938 5.835938,2.070312 6.015625,1.875 6.203125,1.675781 6.328125,1.414062 6.390625,1.09375 6.460938,0.78125 6.5,0.410156 6.5,-0.015625 V -0.84375 H 6.4375 C 6.207031,-0.507812 5.914062,-0.253906 5.5625,-0.078125 5.207031,0.0976562 4.75,0.1875 4.1875,0.1875 c -1.15625,0 -2.007812,-0.359375 -2.546875,-1.078125 -0.53125,-0.71875 -0.796875,-1.832031 -0.796875,-3.34375 0,-1.457031 0.34375,-2.5625 1.03125,-3.3125 0.695312,-0.757813 1.722656,-1.140625 3.078125,-1.140625 0.644531,0 1.195313,0.054688 1.65625,0.15625 0.46875,0.09375 0.882813,0.210938 1.25,0.34375 z M 4.421875,-1 c 0.582031,0 1.035156,-0.144531 1.359375,-0.4375 0.332031,-0.289062 0.566406,-0.742188 0.703125,-1.359375 v -4.375 C 6.035156,-7.390625 5.457031,-7.5 4.75,-7.5 3.976562,-7.5 3.367188,-7.234375 2.921875,-6.703125 2.472656,-6.179688 2.25,-5.363281 2.25,-4.25 c 0,0.480469 0.039062,0.917969 0.125,1.3125 0.082031,0.398438 0.207031,0.742188 0.375,1.03125 0.164062,0.28125 0.382812,0.507812 0.65625,0.671875 C 3.6875,-1.078125 4.023438,-1 4.421875,-1 Z m 0,0"
           id="path484" />
      </g>
    </g>
  </g>
  <g
     fill="#000000"
     fill-opacity="1"
     id="g496"
     transform="translate(63.749995,5.6250011)">
    <g
       transform="translate(249.27606,176.21242)"
       id="g494">
      <g
         id="g492" />
    </g>
  </g>
</svg>
